<?xml version="1.0" encoding="utf-8"?> <!-- Generator: IcoMoon.io --> <!DOCTYPE svg PUBLIC "-//W3C//DTD SVG 1.1//EN" "http://www.w3.org/Graphics/SVG/1.1/DTD/svg11.dtd"> <svg xmlns:xlink="http://www.w3.org/1999/xlink" xmlns="http://www.w3.org/2000/svg" fill="#666666" width="645" height="340" viewBox="0 0 645 340"><path d="M 20.00,11.532 L 10.00,3.77 L 0.00,11.532 L 0.00,8.367 L 10.00,0.605 L 20.00,8.367 ZM 17.50,11.25 L 17.50,18.75 L 12.50,18.75 L 12.50,13.75 L 7.50,13.75 L 7.50,18.75 L 2.50,18.75 L 2.50,11.25 L 10.00,5.625 ZM 60.00,11.875L 56.25,8.125L 56.25,2.50L 53.75,2.50L 53.75,5.625L 50.00,1.875L 40.00,11.875L 40.00,12.50L 42.50,12.50L 42.50,18.75L 48.75,18.75L 48.75,15.00L 51.25,15.00L 51.25,18.75L 57.50,18.75L 57.50,12.50L 60.00,12.50 zM 80.00,20.00l 10.00,0.00 L 90.00,0.00 L 80.00,0.00 L 80.00,20.00 z M 86.25,2.50l 2.50,0.00 l0.00,2.50 l-2.50,0.00 L 86.25,2.50 z M 86.25,7.50l 2.50,0.00 l0.00,2.50 l-2.50,0.00 L 86.25,7.50 z M 86.25,12.50l 2.50,0.00 l0.00,2.50 l-2.50,0.00 L 86.25,12.50 z M 81.25,2.50l 2.50,0.00 l0.00,2.50 L 81.25,5.00 L 81.25,2.50 z M 81.25,7.50 l 2.50,0.00 l0.00,2.50 L 81.25,10.00 L 81.25,7.50 z M 81.25,12.50l 2.50,0.00 l0.00,2.50 L 81.25,15.00 L 81.25,12.50 zM 91.25,6.25L 100.00,6.25L 100.00,7.50L 91.25,7.50zM 91.25,20.00L 93.75,20.00L 93.75,15.00L 97.50,15.00L 97.50,20.00L 100.00,20.00L 100.00,8.75L 91.25,8.75 zM 136.875,0.00 C 138.601,0.00 140.00,1.399 140.00,3.125 C 140.00,3.829 139.767,4.478 139.375,5.00 L 138.125,6.25 L 133.75,1.875 L 135.00,0.625 C 135.522,0.233 136.171,0.00 136.875,0.00 ZM 121.25,14.375L 120.00,20.00l 5.625-1.25l 11.563-11.563L 132.813,2.813L 121.25,14.375z M 133.976,7.101l-8.75,8.75l-1.077-1.077l 8.75-8.75L 133.976,7.101zM 167.50,3.75 C 172.332,3.75 176.25,7.668 176.25,12.50 L 174.375,12.50 C 174.375,10.664 173.66,8.937 172.361,7.639 C 171.063,6.34 169.336,5.625 167.50,5.625 L 167.50,3.75 ZM 167.50,0.00 C 174.404,0.00 180.00,5.596 180.00,12.50 L 178.125,12.50 C 178.125,11.065 177.844,9.674 177.291,8.365 C 176.756,7.10 175.989,5.963 175.013,4.987 C 174.037,4.011 172.90,3.244 171.635,2.709 C 170.326,2.156 168.935,1.875 167.50,1.875 L 167.50,0.00 ZM 171.219,8.781 C 172.073,9.636 172.50,10.756 172.499,11.876 C 171.25,13.751 171.25,16.25 171.25,16.25 C 166.25,16.25 162.50,20.00 162.50,20.00 L 162.227,19.727 L 161.775,19.275 L 167.314,13.736 C 167.374,13.745 167.437,13.75 167.50,13.75 C 168.19,13.75 168.75,13.19 168.75,12.50 C 168.75,11.81 168.19,11.25 167.50,11.25 C 166.81,11.25 166.25,11.81 166.25,12.50 C 166.25,12.563 166.255,12.626 166.264,12.686 L 160.725,18.225 L 160.00,17.50 C 160.00,17.50 163.75,13.75 163.75,8.75 C 163.75,8.75 166.25,8.75 168.125,7.50 C 169.245,7.50 170.364,7.927 171.219,8.781 ZM 217.50,3.75 L 202.50,3.75 L 202.50,16.25 L 217.50,16.25 L 217.50,3.75 Z M 220.00,1.25 L 220.00,1.25 L 220.00,18.75 L 200.00,18.75 L 200.00,1.25 L 220.00,1.25 ZM 216.25,15.00 L 203.75,15.00 L 203.75,12.50 L 207.50,6.25 L 212.637,12.50 L 216.25,10.00 L 216.25,11.25 ZM 212.50,6.875A1.875,1.875 2520.00 1 0 216.25,6.875A1.875,1.875 2520.00 1 0 212.50,6.875zM 240.00,2.50l0.00,16.25 l 20.00,0.00 L 260.00,2.50 L 240.00,2.50 z M 258.75,17.50L 241.25,17.50 L 241.25,3.75 l 17.50,0.00 L 258.75,17.50 zM 253.75,6.875A1.875,1.875 2520.00 1 0 257.50,6.875A1.875,1.875 2520.00 1 0 253.75,6.875zM 257.50,16.25 L 242.50,16.25 L 246.25,6.25 L 251.25,12.50 L 253.75,10.625 ZM 282.50,5.00l0.00,12.50 l 17.50,0.00 L 300.00,5.00 L 282.50,5.00 z M 298.75,15.417L 296.25,11.25l-2.833,2.361L 291.25,10.00L 283.75,16.25L 283.75,6.25 l 15.00,0.00 L 298.75,15.417 zM 285.00,9.375A1.875,1.875 7560.00 1 0 288.75,9.375A1.875,1.875 7560.00 1 0 285.00,9.375zM 297.50,2.50L 280.00,2.50L 280.00,15.00L 281.25,15.00L 281.25,3.75L 297.50,3.75 zM 325.938,11.875c0.00,2.244, 1.819,4.063, 4.063,4.063s 4.063-1.819, 4.063-4.063s-1.819-4.063-4.063-4.063S 325.938,9.631, 325.938,11.875z M 338.75,5.00L 334.375,5.00 c-0.313-1.25-0.625-2.50-1.875-2.50L 327.50,2.50 c-1.25,0.00-1.563,1.25-1.875,2.50L 321.25,5.00 c-0.688,0.00-1.25,0.563-1.25,1.25l0.00,11.25 c0.00,0.688, 0.563,1.25, 1.25,1.25l 17.50,0.00 c 0.688,0.00, 1.25-0.563, 1.25-1.25L 340.00,6.25 C 340.00,5.563, 339.438,5.00, 338.75,5.00z M 330.00,17.422c-3.063,0.00-5.547-2.483-5.547-5.547c0.00-3.063, 2.483-5.547, 5.547-5.547c 3.064,0.00, 5.547,2.483, 5.547,5.547 C 335.547,14.939, 333.064,17.422, 330.00,17.422z M 338.75,8.75l-2.50,0.00 l0.00-1.25 l 2.50,0.00 L 338.75,8.75 zM 366.25,3.75 L 380.00,0.00 L 380.00,1.25 L 380.00,3.75 L 380.00,14.375 C 380.00,16.101 378.041,17.50 375.625,17.50 C 373.209,17.50 371.25,16.101 371.25,14.375 C 371.25,12.649 373.209,11.25 375.625,11.25 C 376.296,11.25 376.932,11.358 377.50,11.551 L 377.50,5.114 L 368.75,7.50 L 368.75,16.875 C 368.75,18.601 366.791,20.00 364.375,20.00 C 361.959,20.00 360.00,18.601 360.00,16.875 C 360.00,15.149 361.959,13.75 364.375,13.75 C 365.046,13.75 365.682,13.858 366.25,14.051 L 366.25,7.50 L 366.25,3.75 ZM 403.75,11.295l0.00,8.661 c 0.204,0.029, 0.413,0.045, 0.625,0.045l 0.625,0.00 L 405.00,11.25 l-0.625,0.00 C 404.163,11.25, 403.954,11.265, 403.75,11.295zM 415.00,11.25l0.00,8.75 l 0.625,0.00 c 0.212,0.00, 0.421-0.015, 0.625-0.045L 416.25,11.295 c-0.204-0.029-0.413-0.045-0.625-0.045L 415.00,11.25 zM 420.00,10.00C 420.00,4.477, 415.523,0.00, 410.00,0.00S 400.00,4.477, 400.00,10.00c0.00,1.20, 0.211,2.35, 0.599,3.416C 400.218,14.064, 400.00,14.819, 400.00,15.625 c0.00,1.745, 1.022,3.252, 2.50,3.954L 402.50,11.671 c-0.393,0.187-0.754,0.431-1.071,0.721C 401.312,11.821, 401.25,11.23, 401.25,10.625 C 401.25,5.793, 405.168,1.875, 410.00,1.875s 8.75,3.917, 8.75,8.75c0.00,0.605-0.061,1.196-0.179,1.767c-0.318-0.29-0.678-0.534-1.071-0.721 l0.00,7.907 c 1.478-0.702, 2.50-2.209, 2.50-3.954c0.00-0.806-0.218-1.561-0.599-2.209C 419.789,12.35, 420.00,11.20, 420.00,10.00zM 459.164,3.127C 456.359,2.724, 453.259,2.50, 450.00,2.50c-3.259,0.00-6.359,0.224-9.164,0.627 C 440.298,5.231, 440.00,7.556, 440.00,10.00c0.00,2.444, 0.298,4.769, 0.836,6.873C 443.642,17.276, 446.741,17.50, 450.00,17.50 c 3.259,0.00, 6.358-0.224, 9.164-0.627C 459.702,14.769, 460.00,12.444, 460.00,10.00C 460.00,7.556, 459.702,5.231, 459.164,3.127z M 447.50,13.75L 447.50,6.25 l 6.25,3.75L 447.50,13.75zM 480.00,2.50l0.00,15.00 l 20.00,0.00 L 500.00,2.50 L 480.00,2.50 z M 483.75,16.25L 481.25,16.25 l0.00-2.50 l 2.50,0.00 L 483.75,16.25 z M 483.75,11.25L 481.25,11.25 l0.00-2.50 l 2.50,0.00 L 483.75,11.25 z M 483.75,6.25L 481.25,6.25 L 481.25,3.75 l 2.50,0.00 L 483.75,6.25 z M 495.00,16.25L 485.00,16.25 L 485.00,3.75 l 10.00,0.00 L 495.00,16.25 z M 498.75,16.25l-2.50,0.00 l0.00-2.50 l 2.50,0.00 L 498.75,16.25 z M 498.75,11.25l-2.50,0.00 l0.00-2.50 l 2.50,0.00 L 498.75,11.25 z M 498.75,6.25l-2.50,0.00 L 496.25,3.75 l 2.50,0.00 L 498.75,6.25 zM 487.50,6.25L 487.50,13.75L 492.50,10.00 zM 527.50,5.625A3.125,3.125 10800.00 1 0 533.75,5.625A3.125,3.125 10800.00 1 0 527.50,5.625zM 520.00,5.625A3.125,3.125 10800.00 1 0 526.25,5.625A3.125,3.125 10800.00 1 0 520.00,5.625zM 535.00,11.875l0.00-1.875 c0.00-0.688-0.563-1.25-1.25-1.25l-3.125,0.00 L 523.125,8.75 L 521.25,8.75 c-0.688,0.00-1.25,0.563-1.25,1.25l0.00,6.25 c0.00,0.688, 0.563,1.25, 1.25,1.25l 12.50,0.00 c 0.688,0.00, 1.25-0.563, 1.25-1.25 l0.00-1.875 l 5.00,3.125L 540.00,8.75 L 535.00,11.875z M 532.50,15.00L 522.50,15.00 l0.00-3.75 l 10.00,0.00 L 532.50,15.00 zM 580.00,8.384c0.00-3.924-1.148-7.108-2.568-7.133c 0.006,0.00, 0.011-0.001, 0.017-0.001l-1.62,0.00 c0.00,0.00-3.805,2.858-9.282,3.98c-0.167,0.885-0.274,1.939-0.274,3.154c0.00,1.215, 0.107,2.27, 0.274,3.154 c 5.477,1.121, 9.282,3.98, 9.282,3.98l 1.62,0.00 c-0.006,0.00-0.011,0.00-0.017-0.001C 578.852,15.492, 580.00,12.308, 580.00,8.384 z M 576.891,14.439c-0.183,0.00-0.381-0.19-0.483-0.304c-0.247-0.275-0.484-0.702-0.687-1.237 c-0.454-1.196-0.704-2.799-0.704-4.514c0.00-1.715, 0.25-3.318, 0.704-4.514c 0.203-0.535, 0.441-0.962, 0.687-1.237 c 0.102-0.114, 0.30-0.304, 0.483-0.304c 0.183,0.00, 0.382,0.19, 0.483,0.304c 0.247,0.275, 0.484,0.702, 0.687,1.237 c 0.454,1.196, 0.704,2.799, 0.704,4.514c0.00,1.715-0.25,3.318-0.704,4.514c-0.203,0.535-0.441,0.962-0.687,1.237 C 577.273,14.248, 577.074,14.439, 576.891,14.439z M 564.918,8.384c0.00-1.015, 0.074-2.001, 0.216-2.912 c-0.925,0.128-1.737,0.202-2.741,0.202c-1.31,0.00-1.31,0.00-1.31,0.00L 560.00,7.523l0.00,1.722 l 1.083,1.849c0.00,0.00,0.00,0.00, 1.31,0.00 c 1.004,0.00, 1.816,0.074, 2.741,0.202C 564.993,10.385, 564.918,9.399, 564.918,8.384z M 567.19,12.542l-2.50-0.479 l 1.598,6.28c 0.083,0.325, 0.405,0.489, 0.717,0.364l 2.316-0.927c 0.311-0.125, 0.436-0.468, 0.277-0.763L 567.19,12.542zM 576.891,10.717c-0.071,0.00-0.147-0.073-0.186-0.117c-0.095-0.106-0.187-0.271-0.265-0.477 c-0.175-0.461-0.271-1.079-0.271-1.74c0.00-0.661, 0.096-1.279, 0.271-1.74c 0.078-0.206, 0.17-0.371, 0.265-0.477 c 0.039-0.044, 0.116-0.117, 0.186-0.117c 0.071,0.00, 0.147,0.073, 0.186,0.117c 0.095,0.106, 0.187,0.271, 0.265,0.477 c 0.175,0.461, 0.272,1.079, 0.272,1.74c0.00,0.661-0.096,1.279-0.272,1.74c-0.078,0.206-0.17,0.371-0.265,0.477 C 577.038,10.644, 576.962,10.717, 576.891,10.717zM 612.50,11.25 C 614.568,11.25 616.443,12.091 617.801,13.449 L 616.034,15.216 C 615.129,14.311 613.878,13.75 612.50,13.75 C 611.122,13.75 609.872,14.311 608.966,15.216 L 607.199,13.449 C 608.557,12.091 610.432,11.25 612.50,11.25 ZM 603.661,9.911 C 606.022,7.55 609.161,6.25 612.50,6.25 C 615.839,6.25 618.978,7.55 621.339,9.911 L 619.571,11.679 L 619.571,11.679 C 617.682,9.79 615.171,8.75 612.50,8.75 C 609.829,8.75 607.318,9.79 605.429,11.679 L 603.661,9.911 ZM 619.312,2.626 C 621.396,3.507 623.268,4.769 624.874,6.376 L 624.874,6.376 L 623.107,8.143 C 620.273,5.31 616.507,3.75 612.50,3.75 C 608.493,3.75 604.727,5.31 601.893,8.143 L 600.126,6.376 C 601.732,4.769 603.604,3.507 605.688,2.626 C 607.846,1.713 610.138,1.25 612.50,1.25 C 614.862,1.25 617.154,1.713 619.312,2.626 ZM 611.25,17.50A1.25,1.25 2520.00 1 0 613.75,17.5A1.25,1.25 2520.00 1 0 611.25,17.5zM 16.875,40.00L 1.875,40.00 C 0.844,40.00,0.00,40.844,0.00,41.875l0.00,16.25 c0.00,1.031, 0.844,1.875, 1.875,1.875l 15.00,0.00 c 1.031,0.00, 1.875-0.844, 1.875-1.875L 18.75,41.875 C 18.75,40.844, 17.906,40.00, 16.875,40.00z M 16.25,57.50L 2.50,57.50 L 2.50,42.50 l 13.75,0.00 L 16.25,57.50 zM 5.00,48.75L 13.75,48.75L 13.75,50.00L 5.00,50.00zM 5.00,51.25L 13.75,51.25L 13.75,52.50L 5.00,52.50zM 5.00,53.75L 13.75,53.75L 13.75,55.00L 5.00,55.00zM 5.00,46.25L 13.75,46.25L 13.75,47.50L 5.00,47.50zM 57.424,43.674l-2.348-2.348C 54.347,40.597, 52.906,40.00, 51.875,40.00L 43.125,40.00 C 42.094,40.00, 41.25,40.844, 41.25,41.875l0.00,16.25 c0.00,1.031, 0.844,1.875, 1.875,1.875l 13.75,0.00 c 1.031,0.00, 1.875-0.844, 1.875-1.875L 58.75,46.875 C 58.75,45.844, 58.153,44.403, 57.424,43.674z M 52.50,42.648c 0.043,0.016, 0.087,0.033, 0.132,0.051 c 0.353,0.146, 0.598,0.316, 0.676,0.394l 2.348,2.348c 0.078,0.078, 0.248,0.323, 0.394,0.676c 0.019,0.045, 0.036,0.089, 0.051,0.132 L 52.50,46.25 L 52.50,42.648 z M 56.25,57.50L 43.75,57.50 L 43.75,42.50 l 7.50,0.00 l0.00,5.00 l 5.00,0.00 L 56.25,57.50 zM 80.00,46.25 L 100.00,46.25 L 98.75,58.75 L 81.25,58.75 L 80.00,46.25 Z M 98.125,43.75 L 98.75,45.00 L 81.25,45.00 L 82.50,42.50 L 89.375,42.50 L 90.00,43.75 L 98.125,43.75 ZM 136.25,58.75L 140.00,48.75L 123.75,48.75L 120.00,58.75 zM 122.50,47.50 L 120.00,58.75 L 120.00,42.50 L 125.625,42.50 L 128.125,45.00 L 136.25,45.00 L 136.25,47.50 ZM 178.121,40.00L 172.485,40.00 c-1.033,0.00-2.476,0.598-3.207,1.328L 160.548,50.059c-0.731,0.731-0.731,1.926,0.00,2.657 l 6.737,6.736c 0.731,0.731, 1.926,0.731, 2.657,0.00l 8.73-8.73C 179.402,49.991, 180.00,48.548, 180.00,47.515L 180.00,41.879 C 180.00,40.845, 179.155,40.00, 178.121,40.00z M 175.625,46.25c-1.036,0.00-1.875-0.839-1.875-1.875s 0.839-1.875, 1.875-1.875s 1.875,0.839, 1.875,1.875S 176.661,46.25, 175.625,46.25zM 202.50,58.125A1.875,1.875 10800.00 1 0 206.25,58.125A1.875,1.875 10800.00 1 0 202.50,58.125zM 215.00,58.125A1.875,1.875 10800.00 1 0 218.75,58.125A1.875,1.875 10800.00 1 0 215.00,58.125zM 218.75,50.00L 218.75,42.50 L 202.50,42.50 C 202.50,41.119, 201.381,40.00, 200.00,40.00l0.00,1.25 c 0.689,0.00, 1.25,0.561, 1.25,1.25l 0.939,8.048C 201.617,51.006, 201.25,51.71, 201.25,52.50 c0.00,1.381, 1.119,2.50, 2.50,2.50l 15.00,0.00 l0.00-1.25 L 203.75,53.75 c-0.69,0.00-1.25-0.56-1.25-1.25c0.00-0.004, 0.00-0.009, 0.00-0.013L 218.75,50.00zM 256.547,51.25c 0.688,0.00, 1.405-0.541, 1.593-1.202l 1.813-6.346C 260.143,43.041, 259.735,42.50, 259.047,42.50L 246.25,42.50 c0.00-1.381-1.119-2.50-2.50-2.50L 240.00,40.00 l0.00,2.50 l 3.75,0.00 l0.00,10.625 c0.00,1.036, 0.839,1.875, 1.875,1.875l 11.875,0.00 c 0.69,0.00, 1.25-0.56, 1.25-1.25s-0.56-1.25-1.25-1.25L 246.25,52.50 l0.00-1.25 L 256.547,51.25 z M 246.25,45.00l 11.305,0.00 l-1.071,3.75L 246.25,48.75 L 246.25,45.00 zM 247.50,58.438c0.00,0.859-0.703,1.563-1.563,1.563l-0.625,0.00 c-0.859,0.00-1.563-0.703-1.563-1.563l0.00-0.625 c0.00-0.859, 0.703-1.563, 1.563-1.563l 0.625,0.00 c 0.859,0.00, 1.563,0.703, 1.563,1.563L 247.50,58.438 zM 258.75,58.438c0.00,0.859-0.703,1.563-1.563,1.563l-0.625,0.00 c-0.859,0.00-1.563-0.703-1.563-1.563l0.00-0.625 c0.00-0.859, 0.703-1.563, 1.563-1.563l 0.625,0.00 c 0.859,0.00, 1.563,0.703, 1.563,1.563L 258.75,58.438 zM 299.093,43.798c-0.664-0.19-1.356,0.195-1.545,0.859L 297.45,45.00L 285.791,45.00 l-0.176-1.405 C 285.537,42.969, 285.005,42.50, 284.375,42.50L 281.25,42.50 C 280.56,42.50, 280.00,43.06, 280.00,43.75s 0.56,1.25, 1.25,1.25l 2.022,0.00 l 1.113,8.905 C 284.463,54.531, 284.995,55.00, 285.625,55.00l 10.625,0.00 c 0.558,0.00, 1.049-0.37, 1.202-0.907l 2.50-8.75 C 300.142,44.68, 299.757,43.988, 299.093,43.798z M 290.00,50.00l0.00-1.25 l 2.50,0.00 l0.00,1.25 L 290.00,50.00 z M 292.50,51.25l0.00,1.25 L 290.00,52.50 l0.00-1.25 L 292.50,51.25 z M 290.00,47.50l0.00-1.25 l 2.50,0.00 l0.00,1.25 L 290.00,47.50 z M 285.947,46.25L 288.75,46.25 l0.00,1.25 l-2.647,0.00 L 285.947,46.25z M 286.26,48.75L 288.75,48.75 l0.00,1.25 l-2.334,0.00 L 286.26,48.75z M 286.572,51.25L 288.75,51.25 l0.00,1.25 l-2.022,0.00 L 286.572,51.25z M 295.307,52.50l-1.557,0.00 l0.00-1.25 l 1.914,0.00 L 295.307,52.50z M 296.021,50.00l-2.271,0.00 l0.00-1.25 l 2.629,0.00 L 296.021,50.00z M 296.736,47.50l-2.986,0.00 l0.00-1.25 l 3.343,0.00 L 296.736,47.50zM 285.00,58.125A1.875,1.875 2520.00 1 0 288.75,58.125A1.875,1.875 2520.00 1 0 285.00,58.125zM 292.50,58.125A1.875,1.875 2520.00 1 0 296.25,58.125A1.875,1.875 2520.00 1 0 292.50,58.125zM 333.75,52.50c-1.25,1.25-1.25,2.50-2.50,2.50s-2.50-1.25-3.75-2.50s-2.50-2.50-2.50-3.75s 1.25-1.25, 2.50-2.50S 325.00,41.25, 323.75,41.25S 320.00,45.00, 320.00,45.00c0.00,2.50, 2.568,7.568, 5.00,10.00 s 7.50,5.00, 10.00,5.00c0.00,0.00, 3.75-2.50, 3.75-3.75S 335.00,51.25, 333.75,52.50zM 379.871,51.25 C 380.027,52.334 380.129,53.816 379.643,54.384 C 378.839,55.322 373.75,55.322 373.75,53.445 C 373.75,52.50 374.587,51.88 373.783,50.942 C 372.993,50.019 371.576,50.004 370.00,50.003 C 368.424,50.004 367.007,50.019 366.217,50.942 C 365.413,51.88 366.25,52.50 366.25,53.445 C 366.25,55.322 361.161,55.322 360.357,54.384 C 359.871,53.816 359.973,52.334 360.129,51.25 C 360.25,50.527 360.554,49.746 361.527,48.75 C 361.527,48.75 361.527,48.75 361.527,48.75 C 362.987,47.388 365.196,46.275 369.922,46.251 L 369.922,46.25 C 369.948,46.25 369.974,46.25 370.00,46.25 C 370.026,46.25 370.052,46.25 370.078,46.25 L 370.078,46.251 C 374.804,46.275 377.013,47.388 378.473,48.75 C 378.473,48.75 378.473,48.75 378.473,48.75 C 379.446,49.746 379.75,50.526 379.871,51.25 ZM 418.125,42.50L 401.875,42.50 C 400.844,42.50, 400.00,43.344, 400.00,44.375l0.00,12.50 c0.00,1.031, 0.844,1.875, 1.875,1.875l 16.25,0.00 c 1.031,0.00, 1.875-0.844, 1.875-1.875L 420.00,44.375 C 420.00,43.344, 419.156,42.50, 418.125,42.50z M 407.788,50.749L 402.50,54.868L 402.50,45.071 L 407.788,50.749z M 403.445,45.00L 416.555,45.00 L 410.00,49.922L 403.445,45.00z M 407.994,50.971L 410.00,53.125l 2.006-2.154 L 416.118,56.25L 403.882,56.25 L 407.994,50.971z M 412.212,50.749L 417.50,45.071l0.00,9.798 L 412.212,50.749zM 450.625,40.00l-1.875,1.875l 1.875,1.875L 446.25,48.75L 441.875,48.75 l 3.438,3.438L 440.00,59.231L 440.00,60.00 l 0.769,0.00 L 447.813,54.688l 3.438,3.438L 451.25,53.75 l 5.00-4.375l 1.875,1.875l 1.875-1.875L 450.625,40.00z M 448.75,50.625l-1.25-1.25 l 4.375-4.375l 1.25,1.25L 448.75,50.625zM 490.00,40.00C 486.548,40.00, 483.75,42.798, 483.75,46.25c0.00,6.25, 6.25,13.75, 6.25,13.75s 6.25-7.50, 6.25-13.75C 496.25,42.798, 493.452,40.00, 490.00,40.00z M 490.00,50.00 c-2.071,0.00-3.75-1.679-3.75-3.75s 1.679-3.75, 3.75-3.75s 3.75,1.679, 3.75,3.75S 492.071,50.00, 490.00,50.00zM 530.00,40.00C 526.548,40.00, 523.75,42.798, 523.75,46.25c0.00,6.25, 6.25,13.75, 6.25,13.75s 6.25-7.50, 6.25-13.75C 536.25,42.798, 533.452,40.00, 530.00,40.00z M 530.00,50.078 c-2.114,0.00-3.828-1.714-3.828-3.828s 1.714-3.828, 3.828-3.828s 3.828,1.714, 3.828,3.828S 532.114,50.078, 530.00,50.078zM 527.578,46.25A2.422,2.422 1080.00 1 0 532.422,46.25A2.422,2.422 1080.00 1 0 527.578,46.25zM 572.866,54.634L 568.75,50.518L 568.75,45.00L 571.25,45.00L 571.25,49.482L 574.634,52.866 zM 570.00,40.00C 564.477,40.00, 560.00,44.477, 560.00,50.00s 4.477,10.00, 10.00,10.00s 10.00-4.477, 10.00-10.00S 575.523,40.00, 570.00,40.00z M 570.00,57.50 c-4.142,0.00-7.50-3.358-7.50-7.50c0.00-4.142, 3.358-7.50, 7.50-7.50c 4.142,0.00, 7.50,3.358, 7.50,7.50C 577.50,54.142, 574.142,57.50, 570.00,57.50zM 610.00,40.00C 604.477,40.00, 600.00,44.477, 600.00,50.00s 4.477,10.00, 10.00,10.00s 10.00-4.477, 10.00-10.00S 615.523,40.00, 610.00,40.00z M 612.866,54.634L 608.75,50.518 L 608.75,45.00 l 2.50,0.00 l0.00,4.482 l 3.384,3.384L 612.866,54.634zM 10.00,82.50C 5.168,82.50, 1.25,86.418, 1.25,91.25s 3.917,8.75, 8.75,8.75s 8.75-3.917, 8.75-8.75S 14.832,82.50, 10.00,82.50z M 10.00,98.281 c-3.883,0.00-7.031-3.148-7.031-7.031c0.00-3.883, 3.148-7.031, 7.031-7.031c 3.883,0.00, 7.031,3.148, 7.031,7.031C 17.031,95.133, 13.883,98.281, 10.00,98.281z M 18.258,85.609C 18.571,85.061, 18.75,84.426, 18.75,83.75c0.00-2.071-1.679-3.75-3.75-3.75c-1.207,0.00-2.281,0.571-2.967,1.457 C 14.609,81.989, 16.822,83.512, 18.258,85.609z M 7.967,81.457C 7.281,80.571, 6.207,80.00, 5.00,80.00C 2.929,80.00, 1.25,81.679, 1.25,83.75 c0.00,0.676, 0.179,1.311, 0.493,1.859C 3.178,83.512, 5.391,81.989, 7.967,81.457z M 8.75,86.25l 1.25,0.00 l0.00,6.25 l-1.25,0.00 L 8.75,86.25 z M 10.00,91.25l 3.75,0.00 l0.00,1.25 l-3.75,0.00 L 10.00,91.25 zM 46.25,87.50L 48.75,87.50L 48.75,90.00L 46.25,90.00zM 50.00,87.50L 52.50,87.50L 52.50,90.00L 50.00,90.00zM 53.75,87.50L 56.25,87.50L 56.25,90.00L 53.75,90.00zM 42.50,95.00L 45.00,95.00L 45.00,97.50L 42.50,97.50zM 46.25,95.00L 48.75,95.00L 48.75,97.50L 46.25,97.50zM 50.00,95.00L 52.50,95.00L 52.50,97.50L 50.00,97.50zM 46.25,91.25L 48.75,91.25L 48.75,93.75L 46.25,93.75zM 50.00,91.25L 52.50,91.25L 52.50,93.75L 50.00,93.75zM 53.75,91.25L 56.25,91.25L 56.25,93.75L 53.75,93.75zM 42.50,91.25L 45.00,91.25L 45.00,93.75L 42.50,93.75zM 56.25,80.00l0.00,1.25 l-2.50,0.00 L 53.75,80.00 L 45.00,80.00 l0.00,1.25 L 42.50,81.25 L 42.50,80.00 L 40.00,80.00 l0.00,20.00 l 18.75,0.00 L 58.75,80.00 L 56.25,80.00 z M 57.50,98.75L 41.25,98.75 L 41.25,85.00 l 16.25,0.00 L 57.50,98.75 zM 97.50,82.50l-1.875,0.00 l0.00,0.625 c0.00,0.689-0.561,1.25-1.25,1.25s-1.25-0.561-1.25-1.25L 93.125,82.50 L 86.875,82.50 l0.00,0.625 c0.00,0.689-0.561,1.25-1.25,1.25s-1.25-0.561-1.25-1.25L 84.375,82.50 L 82.50,82.50 c-0.688,0.00-1.25,0.563-1.25,1.25l0.00,13.75 c0.00,0.688, 0.563,1.25, 1.25,1.25l 15.00,0.00 c 0.688,0.00, 1.25-0.563, 1.25-1.25L 98.75,83.75 C 98.75,83.063, 98.188,82.50, 97.50,82.50z M 97.50,97.498 c-0.001,0.001-0.001,0.002-0.002,0.002L 82.502,97.50 c-0.001-0.001-0.002-0.001-0.002-0.002L 82.50,86.25 l 15.00,0.00 L 97.50,97.498 zM 85.625,83.75c 0.345,0.00, 0.625-0.28, 0.625-0.625L 86.25,80.625 c0.00-0.345-0.28-0.625-0.625-0.625s-0.625,0.28-0.625,0.625l0.00,2.50 C 85.00,83.47, 85.28,83.75, 85.625,83.75zM 94.375,83.75c 0.345,0.00, 0.625-0.28, 0.625-0.625L 95.00,80.625 c0.00-0.345-0.28-0.625-0.625-0.625s-0.625,0.28-0.625,0.625l0.00,2.50 C 93.75,83.47, 94.03,83.75, 94.375,83.75zM 91.25,87.50L 85.00,87.50L 85.00,88.75L 90.00,88.75L 90.00,91.25L 85.00,91.25L 85.00,92.50L 90.00,92.50L 90.00,95.00L 85.00,95.00L 85.00,96.25L 91.25,96.25 zM 93.75,96.25L 95.00,96.25L 95.00,87.50L 92.50,87.50L 92.50,88.75L 93.75,88.75 zM 97.031,99.219L 82.969,99.219 c-0.688,0.00-1.25-0.406-1.25-1.094l0.00,0.625 c0.00,0.688, 0.563,1.25, 1.25,1.25l 14.063,0.00 c 0.688,0.00, 1.25-0.563, 1.25-1.25l0.00-0.625 C 98.281,98.813, 97.719,99.219, 97.031,99.219zM 125.00,81.25L 135.00,81.25L 135.00,83.75L 125.00,83.75zM 138.75,85.00L 121.25,85.00 C 120.563,85.00, 120.00,85.563, 120.00,86.25l0.00,6.25 c0.00,0.688, 0.562,1.25, 1.25,1.25l 3.75,0.00 l0.00,5.00 l 10.00,0.00 L 135.00,93.75 l 3.75,0.00 c 0.688,0.00, 1.25-0.563, 1.25-1.25L 140.00,86.25 C 140.00,85.563, 139.438,85.00, 138.75,85.00z M 133.75,97.50L 126.25,97.50 L 126.25,91.25 l 7.50,0.00 L 133.75,97.50 z M 139.031,86.875c0.00,0.501-0.406,0.906-0.906,0.906 c-0.501,0.00-0.906-0.406-0.906-0.906s 0.406-0.906, 0.906-0.906C 138.626,85.969, 139.031,86.374, 139.031,86.875zM 173.75,83.75L 166.25,83.75 L 160.00,91.25l0.00,3.125 l0.00,1.875 c0.00,0.69, 0.56,1.25, 1.25,1.25l 17.50,0.00 c 0.69,0.00, 1.25-0.56, 1.25-1.25l0.00-1.875 l0.00-3.125 L 173.75,83.75z M 175.00,91.25l-2.50,2.50L 167.50,93.75 l-2.50-2.50L 161.627,91.25 l 5.208-6.25l 6.329,0.00 l 5.208,6.25L 175.00,91.25 zM 213.75,83.75L 206.25,83.75 L 200.00,91.25l0.00,5.00 c0.00,0.69, 0.56,1.25, 1.25,1.25l 17.50,0.00 c 0.69,0.00, 1.25-0.56, 1.25-1.25L 220.00,91.25 L 213.75,83.75z M 212.50,93.75L 207.50,93.75 l-1.25-1.25l 7.50,0.00 L 212.50,93.75z M 201.627,91.25l 5.208-6.25l 6.329,0.00 l 5.208,6.25L 201.627,91.25 zM 205.566,87.50L 214.434,87.50L 213.393,86.25L 206.607,86.25 zM 203.482,90.00L 216.518,90.00L 215.476,88.75L 204.524,88.75 zM 257.549,80.00 L 258.862,91.163 L 257.388,91.337 L 256.215,81.367 L 243.785,81.367 L 242.612,91.337 L 241.138,91.163 L 242.451,80.00 ZM 245.00,82.50L 255.00,82.50L 255.00,83.75L 245.00,83.75zM 245.00,85.00L 255.00,85.00L 255.00,86.25L 245.00,86.25zM 245.00,87.50L 255.00,87.50L 255.00,88.75L 245.00,88.75zM 245.00,90.00L 255.00,90.00L 255.00,91.25L 245.00,91.25zM 259.375,92.50L 240.625,92.50 c-0.344,0.00-0.536,0.267-0.427,0.593L 242.302,99.407C 242.411,99.733, 242.781,100.00, 243.125,100.00l 13.75,0.00 c 0.344,0.00, 0.714-0.267, 0.823-0.593l 2.105-6.314C 259.911,92.767, 259.719,92.50, 259.375,92.50z M 252.50,95.00L 247.50,95.00 l0.00-1.25 l 5.00,0.00 L 252.50,95.00 zM 296.25,81.25L 283.75,81.25 L 280.00,85.00l0.00,13.125 c0.00,0.345, 0.28,0.625, 0.625,0.625l 18.75,0.00 c 0.345,0.00, 0.625-0.28, 0.625-0.625L 300.00,85.00 L 296.25,81.25z M 290.00,96.25L 283.75,91.25l 3.75,0.00 l0.00-3.75 l 5.00,0.00 l0.00,3.75 l 3.75,0.00 L 290.00,96.25z M 283.018,83.75l 1.25-1.25l 11.464,0.00 l 1.25,1.25L 283.018,83.75 zM 336.25,81.25L 323.75,81.25 L 320.00,85.00l0.00,13.125 c0.00,0.345, 0.28,0.625, 0.625,0.625l 18.75,0.00 c 0.345,0.00, 0.625-0.28, 0.625-0.625L 340.00,85.00 L 336.25,81.25z M 332.50,92.50l0.00,3.75 L 327.50,96.25 l0.00-3.75 L 323.75,92.50 l 6.25-5.00 l 6.25,5.00L 332.50,92.50 z M 323.018,83.75l 1.25-1.25l 11.464,0.00 l 1.25,1.25L 323.018,83.75 zM 370.00,91.25L 375.00,86.25L 371.25,86.25L 371.25,81.25L 368.75,81.25L 368.75,86.25L 365.00,86.25 zM 374.545,89.205L 373.144,90.606L 378.224,92.50L 370.00,95.567L 361.776,92.50L 366.856,90.606L 365.455,89.205L 360.00,91.25L 360.00,96.25L 370.00,100.00L 380.00,96.25L 380.00,91.25 zM 408.75,91.25L 411.25,91.25L 411.25,86.25L 415.00,86.25L 410.00,81.25L 405.00,86.25L 408.75,86.25 zM 412.50,88.438L 412.50,90.365L 418.224,92.50L 410.00,95.567L 401.776,92.50L 407.50,90.365L 407.50,88.438L 400.00,91.25L 400.00,96.25L 410.00,100.00L 420.00,96.25L 420.00,91.25 zM 454.88,100.00C 457.101,95.976, 457.476,89.838, 448.75,90.043L 448.75,95.00 L 441.25,87.50L 448.75,80.00l0.00,4.851 C 459.198,84.579, 460.363,94.074, 454.88,100.00zM 491.25,84.851L 491.25,80.00 l 7.50,7.50L 491.25,95.00L 491.25,90.043 C 482.524,89.838, 482.899,95.976, 485.12,100.00 C 479.637,94.074, 480.802,84.579, 491.25,84.851zM 530.00,81.25 C 535.523,81.25 540.00,84.888 540.00,89.375 C 540.00,93.862 535.523,97.50 530.00,97.50 C 529.47,97.50 528.949,97.466 528.441,97.401 C 526.293,99.549 523.729,99.935 521.25,99.991 L 521.25,99.466 C 522.589,98.81 523.75,97.615 523.75,96.25 C 523.75,96.059 523.735,95.872 523.708,95.69 C 521.446,94.20 520.00,91.925 520.00,89.375 C 520.00,84.888 524.477,81.25 530.00,81.25 ZM 581.25,97.601 C 581.25,98.49 581.758,99.259 582.50,99.636 L 582.50,99.947 C 582.292,99.975 582.081,99.99 581.865,99.99 C 580.537,99.99 579.339,99.433 578.492,98.54 C 577.98,98.676 577.437,98.75 576.875,98.75 C 573.768,98.75 571.25,96.511 571.25,93.75 C 571.25,90.989 573.768,88.75 576.875,88.75 C 579.982,88.75 582.50,90.989 582.50,93.75 C 582.50,94.831 582.114,95.832 581.458,96.65 C 581.325,96.939 581.25,97.261 581.25,97.601 ZM 570.00,80.00 C 575.439,80.00 579.863,83.528 579.997,87.92 C 579.036,87.492 577.974,87.266 576.875,87.266 C 575.009,87.266 573.246,87.919 571.911,89.105 C 570.528,90.335 569.766,91.985 569.766,93.75 C 569.766,94.623 569.952,95.467 570.307,96.246 C 570.205,96.248 570.103,96.25 570.00,96.25 C 569.47,96.25 568.949,96.216 568.441,96.151 C 566.293,98.299 563.729,98.685 561.25,98.741 L 561.25,98.216 C 562.589,97.56 563.75,96.365 563.75,95.00 C 563.75,94.809 563.735,94.622 563.708,94.44 C 561.446,92.95 560.00,90.675 560.00,88.125 C 560.00,83.638 564.477,80.00 570.00,80.00 ZM 610.00,83.75 C 608.927,83.75 607.891,83.919 606.92,84.253 C 606.008,84.566 605.195,85.009 604.505,85.57 C 603.212,86.621 602.50,87.972 602.50,89.375 C 602.50,90.162 602.719,90.925 603.149,91.644 C 603.594,92.384 604.262,93.061 605.083,93.602 C 605.676,93.992 606.075,94.616 606.18,95.318 C 606.215,95.552 606.237,95.789 606.246,96.024 C 606.392,95.903 606.534,95.773 606.673,95.634 C 607.145,95.162 607.782,94.901 608.441,94.901 C 608.546,94.901 608.651,94.908 608.756,94.921 C 609.166,94.974 609.584,95.00 610.00,95.00 C 611.073,95.00 612.109,94.831 613.08,94.497 C 613.992,94.184 614.805,93.741 615.495,93.18 C 616.788,92.129 617.50,90.778 617.50,89.375 C 617.50,87.972 616.788,86.621 615.495,85.57 C 614.805,85.01 613.992,84.566 613.08,84.253 C 612.109,83.919 611.073,83.75 610.00,83.75 Z M 610.00,81.25 L 610.00,81.25 C 615.523,81.25 620.00,84.888 620.00,89.375 C 620.00,93.862 615.523,97.50 610.00,97.50 C 609.47,97.50 608.949,97.466 608.441,97.401 C 606.293,99.549 603.729,99.935 601.25,99.991 L 601.25,99.466 C 602.589,98.81 603.75,97.615 603.75,96.25 C 603.75,96.059 603.735,95.872 603.708,95.69 C 601.446,94.20 600.00,91.925 600.00,89.375 C 600.00,84.888 604.477,81.25 610.00,81.25 ZM 21.25,137.601 C 21.25,138.49 21.758,139.259 22.50,139.636 L 22.50,139.947 C 22.292,139.975 22.081,139.99 21.865,139.99 C 20.537,139.99 19.339,139.433 18.492,138.54 C 17.98,138.676 17.437,138.75 16.875,138.75 C 13.768,138.75 11.25,136.511 11.25,133.75 C 11.25,130.989 13.768,128.75 16.875,128.75 C 19.982,128.75 22.50,130.989 22.50,133.75 C 22.50,134.831 22.114,135.832 21.458,136.65 C 21.325,136.939 21.25,137.261 21.25,137.601 ZM 4.505,124.32 C 3.212,125.371 2.50,126.722 2.50,128.125 C 2.50,128.912 2.719,129.675 3.149,130.394 C 3.594,131.134 4.262,131.811 5.083,132.352 C 5.676,132.742 6.075,133.366 6.18,134.068 C 6.215,134.302 6.237,134.539 6.246,134.774 C 6.392,134.653 6.534,134.523 6.673,134.384 C 7.145,133.912 7.782,133.651 8.441,133.651 C 8.546,133.651 8.651,133.658 8.756,133.671 C 9.165,133.723 9.583,133.75 9.998,133.75 L 9.998,136.25 C 9.469,136.25 8.949,136.216 8.441,136.151 C 6.293,138.299 3.729,138.685 1.25,138.741 L 1.25,138.216 C 2.589,137.56 3.75,136.365 3.75,135.00 C 3.75,134.809 3.735,134.622 3.708,134.44 C 1.446,132.95 0.00,130.675 0.00,128.125 C 0.00,123.638 4.477,120.00 10.00,120.00 C 15.439,120.00 19.863,123.528 19.997,127.92 C 19.194,127.563 18.32,127.346 17.414,127.284 C 17.188,126.189 16.527,125.159 15.495,124.32 C 14.805,123.76 13.992,123.316 13.08,123.003 C 12.109,122.669 11.073,122.50 10.00,122.50 C 8.927,122.50 7.891,122.669 6.92,123.003 C 6.008,123.316 5.195,123.759 4.505,124.32 ZM 52.165,133.725c-0.432-0.069-0.442-1.256-0.442-1.256s 1.269-1.256, 1.545-2.945 c 0.744,0.00, 1.203-1.796, 0.459-2.428C 53.759,126.431, 54.684,121.875, 50.00,121.875c-4.684,0.00-3.759,4.556-3.728,5.221 c-0.744,0.632-0.285,2.428, 0.459,2.428c 0.277,1.689, 1.545,2.945, 1.545,2.945s-0.01,1.187-0.442,1.256 C 46.444,133.947, 41.25,136.238, 41.25,138.75l 8.75,0.00 l 8.75,0.00 C 58.75,136.238, 53.556,133.947, 52.165,133.725zM 94.355,135.73c-0.37-0.058-0.379-1.067-0.379-1.067s 1.088-1.067, 1.325-2.503 c 0.638,0.00, 1.032-1.526, 0.394-2.063c 0.027-0.565, 0.82-4.437-3.195-4.437c-4.015,0.00-3.222,3.872-3.195,4.437 c-0.638,0.537-0.244,2.063, 0.394,2.063c 0.237,1.435, 1.325,2.503, 1.325,2.503s-0.008,1.009-0.379,1.067 C 89.452,135.918, 85.00,137.865, 85.00,140.00l 7.50,0.00 l 7.50,0.00 C 100.00,137.865, 95.548,135.918, 94.355,135.73zM 86.72,136.071c 0.861-0.53, 1.907-1.022, 2.764-1.317c-0.308-0.438-0.65-1.034-0.866-1.739 c-0.301-0.245-0.546-0.596-0.703-1.027c-0.158-0.432-0.217-0.915-0.168-1.361c 0.035-0.32, 0.127-0.618, 0.267-0.881 c-0.085-0.91-0.145-2.696, 1.024-3.999c 0.453-0.505, 1.026-0.868, 1.713-1.088C 90.629,123.394, 89.986,121.909, 87.50,121.909 c-4.015,0.00-3.222,3.872-3.195,4.437c-0.638,0.537-0.244,2.063, 0.394,2.063c 0.237,1.435, 1.325,2.503, 1.325,2.503 s-0.008,1.009-0.379,1.067C 84.452,132.168, 80.00,134.115, 80.00,136.25l 6.437,0.00 C 86.529,136.19, 86.623,136.13, 86.72,136.071zM 139.38,137.019L 134.643,132.99c-0.49-0.441-1.013-0.643-1.437-0.624C 134.324,131.057, 135.00,129.357, 135.00,127.50 C 135.00,123.358, 131.642,120.00, 127.50,120.00C 123.358,120.00, 120.00,123.358, 120.00,127.50c0.00,4.142, 3.358,7.50, 7.50,7.50c 1.857,0.00, 3.557-0.676, 4.867-1.794 c-0.02,0.423, 0.183,0.947, 0.624,1.437l 4.029,4.737c 0.69,0.767, 1.817,0.831, 2.504,0.144S 140.147,137.709, 139.38,137.019z M 127.50,132.50c-2.761,0.00-5.00-2.239-5.00-5.00S 124.739,122.50, 127.50,122.50s 5.00,2.239, 5.00,5.00S 130.261,132.50, 127.50,132.50zM 179.38,137.019L 174.643,132.99c-0.49-0.441-1.013-0.643-1.437-0.624C 174.324,131.057, 175.00,129.357, 175.00,127.50 C 175.00,123.358, 171.642,120.00, 167.50,120.00C 163.358,120.00, 160.00,123.358, 160.00,127.50c0.00,4.142, 3.358,7.50, 7.50,7.50c 1.857,0.00, 3.557-0.676, 4.867-1.794 c-0.02,0.423, 0.183,0.947, 0.624,1.437l 4.029,4.737c 0.69,0.767, 1.817,0.831, 2.504,0.144S 180.147,137.709, 179.38,137.019 z M 167.50,132.50c-2.761,0.00-5.00-2.239-5.00-5.00S 164.739,122.50, 167.50,122.50s 5.00,2.239, 5.00,5.00S 170.261,132.50, 167.50,132.50zM 168.75,123.75L 166.25,123.75L 166.25,126.25L 163.75,126.25L 163.75,128.75L 166.25,128.75L 166.25,131.25L 168.75,131.25L 168.75,128.75L 171.25,128.75L 171.25,126.25L 168.75,126.25 zM 219.38,137.019L 214.643,132.99c-0.49-0.441-1.013-0.643-1.437-0.624C 214.324,131.057, 215.00,129.357, 215.00,127.50 C 215.00,123.358, 211.642,120.00, 207.50,120.00C 203.358,120.00, 200.00,123.358, 200.00,127.50c0.00,4.142, 3.358,7.50, 7.50,7.50c 1.857,0.00, 3.557-0.676, 4.867-1.794 c-0.02,0.423, 0.183,0.947, 0.624,1.437l 4.029,4.737c 0.69,0.767, 1.817,0.831, 2.504,0.144S 220.147,137.709, 219.38,137.019 z M 207.50,132.50c-2.761,0.00-5.00-2.239-5.00-5.00S 204.739,122.50, 207.50,122.50s 5.00,2.239, 5.00,5.00S 210.261,132.50, 207.50,132.50zM 203.75,126.25L 211.25,126.25L 211.25,128.75L 203.75,128.75zM 260.00,120.00 L 260.00,127.50 L 257.30,124.80 L 253.159,128.94 L 251.06,126.841 L 255.20,122.70 L 252.50,120.00 ZM 244.80,122.70 L 248.94,126.841 L 246.841,128.94 L 242.70,124.80 L 240.00,127.50 L 240.00,120.00 L 247.50,120.00 ZM 257.30,135.20 L 260.00,132.50 L 260.00,140.00 L 252.50,140.00 L 255.20,137.30 L 251.06,133.159 L 253.159,131.06 ZM 248.94,133.159 L 244.80,137.30 L 247.50,140.00 L 240.00,140.00 L 240.00,132.50 L 242.70,135.20 L 246.841,131.06 ZM 293.75,120.00c-3.452,0.00-6.25,2.798-6.25,6.25c0.00,0.391, 0.036,0.774, 0.105,1.145L 280.00,135.00l0.00,3.75 c0.00,0.69, 0.56,1.25, 1.25,1.25 l 1.25,0.00 l0.00-1.25 l 2.50,0.00 l0.00-2.50 l 2.50,0.00 l0.00-2.50 l 2.50,0.00 l 1.622-1.622C 292.286,132.369, 293.003,132.50, 293.75,132.50c 3.452,0.00, 6.25-2.798, 6.25-6.25S 297.202,120.00, 293.75,120.00z M 295.623,126.252c-1.036,0.00-1.875-0.839-1.875-1.875s 0.839-1.875, 1.875-1.875s 1.875,0.839, 1.875,1.875S 296.658,126.252, 295.623,126.252zM 336.25,128.75l-1.25,0.00 l0.00-3.75 C 335.00,122.239, 332.761,120.00, 330.00,120.00c-2.761,0.00-5.00,2.239-5.00,5.00l0.00,3.75 L 323.75,128.75 c-0.688,0.00-1.25,0.563-1.25,1.25l0.00,8.75 c0.00,0.688, 0.563,1.25, 1.25,1.25l 12.50,0.00 c 0.688,0.00, 1.25-0.563, 1.25-1.25L 337.50,130.00 C 337.50,129.313, 336.938,128.75, 336.25,128.75z M 330.00,136.25c-0.69,0.00-1.25-0.56-1.25-1.25 s 0.56-1.25, 1.25-1.25s 1.25,0.56, 1.25,1.25S 330.69,136.25, 330.00,136.25z M 332.50,128.75L 327.50,128.75 l0.00-3.75 c0.00-1.379, 1.121-2.50, 2.50-2.50s 2.50,1.121, 2.50,2.50L 332.50,128.75 zM 371.563,128.75l-0.313,0.00 l0.00-3.75 c0.00-2.068-1.682-3.75-3.75-3.75l-2.50,0.00 c-2.068,0.00-3.75,1.682-3.75,3.75l0.00,3.75 l-0.313,0.00 c-0.516,0.00-0.938,0.422-0.938,0.938l0.00,9.375 c0.00,0.516, 0.422,0.938, 0.938,0.938l 10.625,0.00 c 0.516,0.00, 0.938-0.422, 0.938-0.938L 372.50,129.688 C 372.50,129.172, 372.078,128.75, 371.563,128.75z M 367.50,137.50l-2.50,0.00 l 0.544-2.719 C 365.215,134.556, 365.00,134.178, 365.00,133.75c0.00-0.69, 0.56-1.25, 1.25-1.25c 0.69,0.00, 1.25,0.56, 1.25,1.25c0.00,0.428-0.215,0.806-0.544,1.031L 367.50,137.50 z M 368.75,128.75L 363.75,128.75 l0.00-3.75 c0.00-0.689, 0.561-1.25, 1.25-1.25l 2.50,0.00 c 0.689,0.00, 1.25,0.561, 1.25,1.25L 368.75,128.75 zM 415.00,121.25l-2.50,0.00 c-2.068,0.00-3.75,1.682-3.75,3.75l0.00,3.75 L 400.938,128.75 c-0.516,0.00-0.938,0.422-0.938,0.938l0.00,9.375 c0.00,0.516, 0.422,0.938, 0.938,0.938l 10.625,0.00 c 0.516,0.00, 0.938-0.422, 0.938-0.938L 412.50,129.688 c0.00-0.516-0.422-0.938-0.938-0.938l-0.313,0.00 l0.00-3.75 c0.00-0.689, 0.561-1.25, 1.25-1.25l 2.50,0.00 c 0.689,0.00, 1.25,0.561, 1.25,1.25l0.00,3.75 l 2.50,0.00 l0.00-3.75 C 418.75,122.932, 417.068,121.25, 415.00,121.25z M 407.50,137.50l-2.50,0.00 l 0.544-2.719C 405.215,134.556, 405.00,134.178, 405.00,133.75c0.00-0.69, 0.56-1.25, 1.25-1.25c 0.69,0.00, 1.25,0.56, 1.25,1.25 c0.00,0.428-0.215,0.806-0.544,1.031L 407.50,137.50zM 459.589,135.974l-8.995-7.71C 451.012,127.477, 451.25,126.579, 451.25,125.625C 451.25,122.518, 448.732,120.00, 445.625,120.00 c-0.568,0.00-1.117,0.085-1.634,0.241l 3.25,3.25c 0.486,0.486, 0.486,1.282,0.00,1.768l-1.982,1.982 c-0.486,0.486-1.282,0.486-1.768,0.00L 440.241,123.991C 440.085,124.508, 440.00,125.057, 440.00,125.625c0.00,3.107, 2.518,5.625, 5.625,5.625 c 0.954,0.00, 1.852-0.238, 2.639-0.657l 7.71,8.995c 0.447,0.522, 1.211,0.551, 1.697,0.065l 1.982-1.982 C 460.14,137.185, 460.111,136.422, 459.589,135.974zM 498.238,131.919c-1.049-1.817-0.418-4.147, 1.409-5.205l-1.965-3.404c-0.562,0.329-1.214,0.518-1.911,0.518 c-2.10,0.00-3.803-1.714-3.803-3.828L 488.037,120.00 c 0.005,0.653-0.158,1.314-0.507,1.919 c-1.049,1.817-3.382,2.436-5.212,1.382L 480.353,126.705c 0.566,0.322, 1.056,0.793, 1.404,1.396 c 1.048,1.815, 0.42,4.139-1.401,5.20l 1.965,3.404c 0.56-0.326, 1.209-0.513, 1.902-0.513 c 2.094,0.00, 3.792,1.703, 3.803,3.808l 3.931,0.00 c-0.002-0.646, 0.162-1.30, 0.507-1.899 c 1.048-1.815, 3.375-2.433, 5.203-1.387l 1.965-3.404C 499.071,132.989, 498.585,132.519, 498.238,131.919z M 490.00,134.049 c-2.236,0.00-4.05-1.813-4.05-4.049c0.00-2.236, 1.813-4.049, 4.05-4.049c 2.236,0.00, 4.049,1.813, 4.049,4.049 C 494.049,132.236, 492.236,134.049, 490.00,134.049zM 540.00,131.877l0.00-3.754 l-2.867-0.478c-0.116-0.354-0.258-0.697-0.424-1.025l 1.689-2.364l-2.654-2.654l-2.36,1.686 c-0.33-0.167-0.675-0.31-1.031-0.428L 531.877,120.00l-3.754,0.00 l-0.477,2.86c-0.356,0.117-0.70,0.261-1.031,0.428 l-2.36-1.686l-2.654,2.654l 1.689,2.364c-0.165,0.329-0.307,0.671-0.424,1.025L 520.00,128.123l0.00,3.754 l 2.873,0.479 c 0.116,0.351, 0.258,0.69, 0.423,1.016l-1.694,2.372l 2.654,2.654l 2.376-1.697c 0.324,0.163, 0.662,0.303, 1.011,0.419 L 528.123,140.00l 3.754,0.00 l 0.48-2.88c 0.349-0.115, 0.687-0.256, 1.011-0.419l 2.376,1.697l 2.654-2.654l-1.694-2.372 c 0.165-0.326, 0.306-0.665, 0.423-1.016L 540.00,131.877z M 530.00,132.50c-1.381,0.00-2.50-1.119-2.50-2.50c0.00-1.381, 1.119-2.50, 2.50-2.50 c 1.381,0.00, 2.50,1.119, 2.50,2.50C 532.50,131.381, 531.381,132.50, 530.00,132.50zM 579.726,136.191L 573.837,130.301c-0.365-0.365-0.961-0.365-1.326,0.00l-0.442,0.442l-3.594-3.594L 574.375,121.25L 568.125,121.25 l-2.775,2.775 L 565.076,123.75L 563.75,123.75 l0.00,1.326 l 0.275,0.275L 560.00,129.375l 3.125,3.125l 4.025-4.025l 3.594,3.594l-0.442,0.442c-0.365,0.365-0.365,0.961,0.00,1.326 l 5.89,5.89c 0.365,0.365, 0.961,0.365, 1.326,0.00l 2.21-2.21C 580.091,137.152, 580.091,136.556, 579.726,136.191zM 608.75,131.25L 608.75,122.50 C 603.917,122.50, 600.00,126.418, 600.00,131.25s 3.917,8.75, 8.75,8.75s 8.75-3.917, 8.75-8.75c0.00-1.407-0.333-2.736-0.923-3.914 L 608.75,131.25zM 617.827,124.836C 616.391,121.969, 613.426,120.00, 610.00,120.00l0.00,8.75 L 617.827,124.836zM 10.00,161.25 C 15.523,161.25 20.00,165.727 20.00,171.25 C 20.00,175.015 17.918,178.294 14.844,180.00 L 5.156,180.00 C 2.082,178.294 0.00,175.015 0.00,171.25 C 0.00,165.727 4.477,161.25 10.00,161.25 Z M 15.662,176.912 C 17.175,175.40 18.008,173.389 18.008,171.25 L 16.25,171.25 L 16.25,170.00 L 17.911,170.00 C 17.774,169.121 17.493,168.278 17.08,167.50 L 15.00,167.50 L 15.00,166.25 L 16.256,166.25 C 16.071,166.02 15.874,165.799 15.662,165.588 C 14.76,164.685 13.679,164.024 12.50,163.638 L 12.50,165.00 L 11.25,165.00 L 11.25,163.339 C 10.84,163.275 10.423,163.242 10.00,163.242 C 9.577,163.242 9.16,163.275 8.75,163.339 L 8.75,165.00 L 7.50,165.00 L 7.50,163.638 C 6.321,164.024 5.24,164.685 4.338,165.588 C 4.126,165.799 3.929,166.02 3.744,166.25 L 5.00,166.25 L 5.00,167.50 L 2.92,167.50 C 2.507,168.278 2.226,169.121 2.089,170.00 L 3.75,170.00 L 3.75,171.25 L 1.992,171.25 C 1.992,173.389 2.825,175.40 4.338,176.912 C 4.547,177.122 4.766,177.317 4.993,177.50 L 8.75,177.50 L 9.464,167.50 L 10.536,167.50 L 11.25,177.50 L 15.007,177.50 C 15.234,177.317 15.453,177.122 15.662,176.912 ZM 50.00,160.00C 44.477,160.00, 40.00,164.477, 40.00,170.00s 4.477,10.00, 10.00,10.00s 10.00-4.477, 10.00-10.00S 55.523,160.00, 50.00,160.00z M 50.00,177.50 c-4.142,0.00-7.50-3.358-7.50-7.50c0.00-4.142, 3.358-7.50, 7.50-7.50c 4.142,0.00, 7.50,3.358, 7.50,7.50C 57.50,174.142, 54.142,177.50, 50.00,177.50zM 48.75,165.00A1.25,1.25 10800.00 1 0 51.25,165A1.25,1.25 10800.00 1 0 48.75,165zM 52.50,166.25A1.25,1.25 10800.00 1 0 55.00,166.25A1.25,1.25 10800.00 1 0 52.50,166.25zM 45.00,166.25A1.25,1.25 10800.00 1 0 47.50,166.25A1.25,1.25 10800.00 1 0 45.00,166.25zM 48.75,173.75L 48.75,175.00L 51.25,175.00L 51.25,173.75L 50.00,167.50 zM 86.27,180.00 C 84.937,177.226 85.647,175.637 86.671,174.14 C 87.793,172.50 88.082,170.877 88.082,170.877 C 88.082,170.877 88.964,172.023 88.611,173.816 C 90.169,172.082 90.463,169.319 90.228,168.26 C 93.75,170.722 95.255,176.051 93.227,180.00 C 104.015,173.896 95.91,164.762 94.499,163.733 C 94.969,164.762 95.059,166.504 94.108,167.349 C 92.50,161.25 88.523,160.00 88.523,160.00 C 88.993,163.145 86.818,166.585 84.72,169.155 C 84.647,167.901 84.568,167.035 83.909,165.835 C 83.761,168.113 82.02,169.971 81.548,172.253 C 80.909,175.345 82.026,177.609 86.27,180.00 ZM 123.75,180.00L 136.25,180.00L 137.50,166.25L 122.50,166.25 zM 132.50,162.50L 132.50,160.00 L 127.50,160.00 l0.00,2.50 L 121.25,162.50 l0.00,3.75 l 1.25-1.25l 15.00,0.00 l 1.25,1.25L 138.75,162.50 L 132.50,162.50 z M 131.25,162.50l-2.50,0.00 L 128.75,161.25 l 2.50,0.00 L 131.25,162.50 zM 175.625,162.50L 164.375,162.50 c-1.036,0.00-1.875,0.839-1.875,1.875l0.00,0.625 l 15.00,0.00 l0.00-0.625 C 177.50,163.339, 176.661,162.50, 175.625,162.50zM 172.35,161.25l 0.276,1.973L 167.374,163.223 l 0.276-1.973L 172.35,161.25 M 172.50,160.00L 167.50,160.00 c-0.516,0.00-0.996,0.418-1.067,0.928l-0.366,2.616 C 165.996,164.055, 166.359,164.473, 166.875,164.473l 6.25,0.00 c 0.516,0.00, 0.879-0.418, 0.808-0.928l-0.366-2.616C 173.496,160.418, 173.016,160.00, 172.50,160.00L 172.50,160.00z M 175.938,166.25L 164.063,166.25 c-0.688,0.00-1.199,0.56-1.137,1.245l 1.024,11.26C 164.012,179.44, 164.625,180.00, 165.313,180.00l 9.375,0.00 c 0.688,0.00, 1.301-0.56, 1.363-1.245l 1.024-11.26C 177.137,166.81, 176.625,166.25, 175.938,166.25z M 167.50,177.50l-1.875,0.00 l-0.625-8.75l 2.50,0.00 L 167.50,177.50 z M 171.25,177.50l-2.50,0.00 L 168.75,168.75 l 2.50,0.00 L 171.25,177.50 z M 174.375,177.50l-1.875,0.00 L 172.50,168.75 l 2.50,0.00 L 174.375,177.50zM 218.75,165.00L 213.75,165.00 L 213.75,163.75 c0.00-0.688-0.563-1.25-1.25-1.25L 207.50,162.50 c-0.688,0.00-1.25,0.563-1.25,1.25l0.00,1.25 L 201.25,165.00 c-0.688,0.00-1.25,0.563-1.25,1.25l0.00,11.25 c0.00,0.688, 0.562,1.25, 1.25,1.25l 17.50,0.00 c 0.688,0.00, 1.25-0.562, 1.25-1.25L 220.00,166.25 C 220.00,165.563, 219.438,165.00, 218.75,165.00z M 207.50,163.752 c 0.001-0.001, 0.001-0.002, 0.002-0.002l 4.996,0.00 c 0.001,0.001, 0.002,0.001, 0.002,0.002L 212.50,165.00 L 207.50,165.00 L 207.50,163.752 z M 218.75,170.00l-2.50,0.00 l0.00,1.875 c0.00,0.344-0.281,0.625-0.625,0.625l-1.25,0.00 c-0.344,0.00-0.625-0.281-0.625-0.625l0.00-1.875 L 206.25,170.00 l0.00,1.875 c0.00,0.344-0.281,0.625-0.625,0.625l-1.25,0.00 c-0.344,0.00-0.625-0.281-0.625-0.625l0.00-1.875 L 201.25,170.00 l0.00-1.25 l 17.50,0.00 L 218.75,170.00 zM 252.50,162.863l0.00,2.655 c 0.707,0.309, 1.357,0.75, 1.919,1.312C 255.60,168.011, 256.25,169.581, 256.25,171.25 s-0.65,3.239-1.831,4.419C 253.239,176.85, 251.669,177.50, 250.00,177.50s-3.239-0.65-4.419-1.831 C 244.40,174.489, 243.75,172.919, 243.75,171.25s 0.65-3.239, 1.831-4.419c 0.562-0.562, 1.212-1.003, 1.919-1.312L 247.50,162.863 C 243.886,163.939, 241.25,167.286, 241.25,171.25c0.00,4.833, 3.918,8.75, 8.75,8.75c 4.833,0.00, 8.75-3.917, 8.75-8.75 C 258.75,167.286, 256.114,163.939, 252.50,162.863zM 248.75,160.00L 251.25,160.00L 251.25,170.00L 248.75,170.00zM 280.00,160.00L 285.00,160.00L 285.00,165.00L 280.00,165.00zM 287.50,161.25L 300.00,161.25L 300.00,163.75L 287.50,163.75zM 280.00,167.50L 285.00,167.50L 285.00,172.50L 280.00,172.50zM 287.50,168.75L 300.00,168.75L 300.00,171.25L 287.50,171.25zM 280.00,175.00L 285.00,175.00L 285.00,180.00L 280.00,180.00zM 287.50,176.25L 300.00,176.25L 300.00,178.75L 287.50,178.75zM 320.00,167.50l 13.75,0.00 l0.00,2.50 L 320.00,170.00 L 320.00,167.50 z M 320.00,163.75l 13.75,0.00 l0.00,2.50 L 320.00,166.25 L 320.00,163.75 z M 320.00,171.25l 13.75,0.00 l0.00,2.50 L 320.00,173.75 L 320.00,171.25 z M 320.00,175.00l 13.75,0.00 l0.00,2.50 L 320.00,177.50 L 320.00,175.00 z M 335.00,171.25l 2.50,3.75l 2.50-3.75L 335.00,171.25 z M 340.00,170.00 l-2.50-3.75l-2.50,3.75L 340.00,170.00 zM 361.25,163.75L 378.75,163.75L 378.75,167.50L 361.25,167.50zM 361.25,168.75L 378.75,168.75L 378.75,172.50L 361.25,172.50zM 361.25,173.75L 378.75,173.75L 378.75,177.50L 361.25,177.50zM 420.00,172.843c0.00-1.603-1.107-2.947-2.598-3.31C 417.339,167.019, 415.284,165.00, 412.757,165.00 c-1.48,0.00-2.798,0.693-3.649,1.772c-0.477-0.617-1.224-1.015-2.065-1.015c-1.442,0.00-2.61,1.169-2.61,2.612 c0.00,0.126, 0.009,0.249, 0.027,0.37c-0.219-0.04-0.445-0.061-0.675-0.061C 401.694,168.678, 400.00,170.373, 400.00,172.464 C 400.00,174.555, 401.694,176.25, 403.784,176.25l 12.818,0.00 l0.00,0.00 C 418.479,176.246, 420.00,174.722, 420.00,172.843zM 457.402,167.032C 457.339,164.519, 455.284,162.50, 452.757,162.50c-1.48,0.00-2.798,0.693-3.649,1.772 c-0.477-0.617-1.224-1.015-2.065-1.015c-1.442,0.00-2.61,1.169-2.61,2.612c0.00,0.126, 0.009,0.249, 0.027,0.37 c-0.219-0.04-0.445-0.061-0.675-0.061C 441.694,166.178, 440.00,167.873, 440.00,169.964C 440.00,172.055, 441.694,173.75, 443.784,173.75l 1.948,0.00 L 450.00,178.018 L 454.268,173.75l 2.334,0.00 l0.00,0.00 C 458.479,173.746, 460.00,172.222, 460.00,170.343C 460.00,168.739, 458.893,167.395, 457.402,167.032z M 450.00,176.25l-3.75-3.75 l 2.50,0.00 l0.00-3.75 l 2.50,0.00 l0.00,3.75 l 2.50,0.00 L 450.00,176.25zM 497.427,167.549C 497.475,167.332, 497.50,167.106, 497.50,166.875c0.00-1.726-1.399-3.125-3.125-3.125c-0.278,0.00-0.547,0.036-0.803,0.105 C 493.087,162.344, 491.671,161.25, 490.00,161.25c-1.706,0.00-3.146,1.139-3.60,2.699C 485.956,163.819, 485.486,163.75, 485.00,163.75C 482.239,163.75, 480.00,165.989, 480.00,168.75 c0.00,2.761, 2.239,5.00, 5.00,5.00l 2.50,0.00 l0.00,3.75 l 5.00,0.00 l0.00-3.75 l 4.375,0.00 c 1.726,0.00, 3.125-1.399, 3.125-3.125C 500.00,169.087, 498.89,167.809, 497.427,167.549z M 491.25,172.50l0.00,3.75 l-2.50,0.00 l0.00-3.75 l-3.125,0.00 l 4.375-4.375l 4.375,4.375L 491.25,172.50 zM 529.375,173.75L 520.00,173.75 l0.00,5.00 l 18.75,0.00 L 538.75,173.75 L 529.375,173.75 z M 537.50,176.25l-2.50,0.00 l0.00-1.25 l 2.50,0.00 L 537.50,176.25 zM 524.375,166.25 L 529.375,161.25 L 534.375,166.25 L 531.25,166.25 L 531.25,172.50 L 527.50,172.50 L 527.50,166.25 ZM 578.621,161.458l-0.079-0.079c-1.839-1.839-4.848-1.839-6.686,0.00L 567.596,165.639 c-1.839,1.839-1.839,4.847,0.00,6.686l 0.079,0.079c 0.153,0.153, 0.315,0.291, 0.483,0.419l 1.56-1.56 c-0.182-0.107-0.354-0.236-0.51-0.392l-0.079-0.079c-0.998-0.998-0.998-2.622,0.00-3.621L 573.389,162.912 c 0.998-0.998, 2.623-0.998, 3.621,0.00l 0.079,0.079c 0.998,0.998, 0.998,2.623,0.00,3.621l-1.927,1.927 c 0.335,0.826, 0.493,1.707, 0.479,2.586l 2.981-2.981C 580.46,166.305, 580.46,163.296, 578.621,161.458zM 572.325,167.596c-0.153-0.153-0.315-0.291-0.483-0.419l-1.56,1.559c 0.182,0.107, 0.354,0.236, 0.51,0.392l 0.079,0.079 c 0.998,0.998, 0.998,2.622,0.00,3.621L 566.611,177.089c-0.998,0.998-2.623,0.998-3.621,0.00l-0.079-0.079 c-0.998-0.998-0.998-2.623,0.00-3.621l 1.927-1.927c-0.335-0.826-0.493-1.707-0.479-2.586l-2.981,2.98 c-1.839,1.839-1.839,4.847,0.00,6.686l 0.079,0.079c 1.839,1.838, 4.848,1.838, 6.686,0.00l 4.26-4.26 c 1.839-1.839, 1.839-4.848,0.00-6.686L 572.325,167.596zM 613.63,166.388l-1.269-1.268L 606.017,171.462c-1.051,1.051-1.051,2.755,0.00,3.806 c 1.051,1.051, 2.755,1.051, 3.806,0.00l 7.613-7.611c 1.752-1.751, 1.752-4.591,0.00-6.342 c-1.751-1.752-4.592-1.752-6.343,0.00L 603.099,169.305l 0.001,0.001c-0.006,0.006-0.012,0.011-0.017,0.017 c-2.443,2.443-2.443,6.403,0.00,8.846c 2.442,2.442, 6.404,2.442, 8.847,0.00c 0.005-0.005, 0.01-0.011, 0.016-0.017l 0.001,0.001 l 5.456-5.455l-1.269-1.268L 610.678,176.883l0.00,0.00 c-0.006,0.005-0.011,0.011-0.017,0.016 c-1.74,1.739-4.57,1.739-6.31,0.00c-1.739-1.739-1.739-4.569,0.00-6.308c 0.006-0.006, 0.012-0.011, 0.017-0.017l-0.001-0.001 l 7.994-7.992c 1.049-1.05, 2.757-1.05, 3.806,0.00c 1.049,1.049, 1.049,2.757,0.00,3.805L 608.555,173.999 c-0.35,0.35-0.919,0.35-1.269,0.00c-0.349-0.349-0.349-0.919,0.00-1.268L 613.63,166.388zM 16.393,205.789 C 17.909,206.864 19.154,208.311 20.00,210.00 C 18.142,213.71 14.362,216.25 10.00,216.25 C 8.778,216.25 7.602,216.051 6.50,215.682 L 8.023,214.159 C 8.669,214.302 9.331,214.375 10.00,214.375 C 11.749,214.375 13.454,213.877 14.931,212.935 C 16.106,212.186 17.101,211.182 17.849,210.00 C 17.126,208.856 16.169,207.88 15.044,207.139 L 16.393,205.789 ZM 10.00,213.633 C 9.556,213.633 9.126,213.575 8.716,213.466 L 14.833,207.349 C 14.942,207.759 15.00,208.189 15.00,208.633 C 15.00,211.394 12.761,213.633 10.00,213.633 ZM 18.75,200.00l-1.05,0.00 L 13.411,204.289C 12.335,203.939, 11.189,203.75, 10.00,203.75C 5.638,203.75, 1.858,206.29,0.00,210.00 c 0.833,1.664, 2.053,3.092, 3.539,4.161L0.00,217.70L0.00,218.75 l 1.05,0.00 L 18.75,201.05L 18.75,200.00 z M 8.125,206.133c 0.938,0.00, 1.716,0.689, 1.853,1.589 l-2.139,2.139C 6.939,209.724, 6.25,208.946, 6.25,208.008C 6.25,206.972, 7.089,206.133, 8.125,206.133z M 2.151,210.00 c 0.748-1.182, 1.744-2.186, 2.919-2.935c 0.077-0.049, 0.154-0.096, 0.232-0.143C 5.106,207.456, 5.00,208.032, 5.00,208.633 c0.00,1.143, 0.384,2.196, 1.029,3.038l-1.144,1.144C 3.791,212.079, 2.859,211.12, 2.151,210.00zM 43.75,200.00L 43.75,220.00L 50.00,213.75L 56.25,220.00L 56.25,200.00 zM 85.00,202.50L 85.00,220.00L 91.25,213.75L 97.50,220.00L 97.50,202.50 zM 95.00,200.00L 82.50,200.00L 82.50,217.50L 83.75,216.25L 83.75,201.25L 95.00,201.25 zM 140.00,207.755l-6.91-1.004L 130.00,200.489l-3.09,6.261L 120.00,207.755l 5.00,4.874L 123.82,219.511L 130.00,216.261l 6.18,3.249 l-1.18-6.882L 140.00,207.755z M 130.00,214.717l-4.364,2.295l 0.834-4.86l-3.531-3.442l 4.88-0.709L 130.00,203.579l 2.182,4.422 l 4.88,0.709l-3.531,3.442l 0.834,4.86L 130.00,214.717zM 180.00,207.755l-6.91-1.004L 170.00,200.489l-3.09,6.261L 160.00,207.755l 5.00,4.874L 163.82,219.511L 170.00,216.261l 6.18,3.249 l-1.18-6.882L 180.00,207.755z M 170.00,214.717l-0.018,0.01L 170.00,203.579l 2.182,4.422l 4.88,0.709l-3.531,3.442l 0.834,4.86 L 170.00,214.717zM 220.00,207.755L 213.09,206.751L 210.00,200.489l-3.09,6.261L 200.00,207.755l 5.00,4.874L 203.82,219.511L 210.00,216.261l 6.18,3.249 l-1.18-6.882L 220.00,207.755zM 260.00,206.995 C 260.00,208.682 259.273,210.199 258.115,211.25 L 258.125,211.25 L 251.875,217.50 C 251.25,218.125 250.625,218.75 250.00,218.75 C 249.375,218.75 248.75,218.125 248.125,217.50 L 241.875,211.25 L 241.885,211.25 C 240.727,210.199 240.00,208.682 240.00,206.995 C 240.00,203.822 242.572,201.25 245.745,201.25 C 247.432,201.25 248.949,201.977 250.00,203.135 C 251.051,201.977 252.568,201.25 254.255,201.25 C 257.428,201.25 260.00,203.822 260.00,206.995 ZM 300.00,206.995 C 300.00,208.682 299.273,210.199 298.115,211.25 L 298.125,211.25 L 291.875,217.50 C 291.25,218.125 290.625,218.75 290.00,218.75 C 289.375,218.75 288.75,218.125 288.125,217.50 L 281.875,211.25 L 281.885,211.25 C 280.727,210.199 280.00,208.682 280.00,206.995 C 280.00,203.822 282.572,201.25 285.745,201.25 C 286.828,201.25 287.841,201.55 288.706,202.071 L 286.875,205.00 L 291.25,207.50 L 288.75,213.75 L 295.625,206.25 L 291.25,203.75 L 292.791,201.439 C 293.258,201.316 293.749,201.25 294.255,201.25 C 297.428,201.25 300.00,203.822 300.00,206.995 ZM 338.125,211.25 C 339.551,211.25 338.75,215.00 337.50,215.00 C 338.125,215.00 337.50,218.125 336.25,218.125 C 336.25,219.375 335.00,220.00 333.75,220.00 C 328.47,220.00 330.327,218.679 325.00,218.125 L 325.00,208.125 C 329.706,206.714 334.375,203.175 334.375,200.00 C 335.41,200.00 338.125,201.25 334.375,207.50 C 334.375,207.50 337.50,207.50 338.125,207.50 C 340.00,207.50 339.375,211.25 338.125,211.25 ZM 323.75,208.125 L 323.75,218.125 L 325.00,218.125 L 325.00,218.75 L 322.50,218.75 C 321.813,218.75 321.25,217.906 321.25,216.875 L 321.25,209.375 C 321.25,208.344 321.813,207.50 322.50,207.50 L 325.00,207.50 L 325.00,208.125 L 323.75,208.125 ZM 361.875,208.75 C 360.449,208.75 361.25,205.00 362.50,205.00 C 361.875,205.00 362.50,201.875 363.75,201.875 C 363.75,200.625 365.00,200.00 366.25,200.00 C 371.53,200.00 369.673,201.321 375.00,201.875 L 375.00,211.875 C 370.294,213.286 365.625,216.825 365.625,220.00 C 364.59,220.00 361.875,218.75 365.625,212.50 C 365.625,212.50 362.50,212.50 361.875,212.50 C 360.00,212.50 360.625,208.75 361.875,208.75 ZM 376.25,211.875 L 376.25,201.875 L 375.00,201.875 L 375.00,201.25 L 377.50,201.25 C 378.188,201.25 378.75,202.094 378.75,203.125 L 378.75,210.625 C 378.75,211.656 378.188,212.50 377.50,212.50 L 375.00,212.50 L 375.00,211.875 L 376.25,211.875 ZM 410.00,203.10 L 403.265,217.50 L 416.735,217.50 L 410.00,203.10 Z M 410.00,200.00 L 410.00,200.00 C 410.431,200.00 410.862,200.291 411.189,200.872 L 419.726,217.886 C 420.38,219.049 419.823,220.00 418.489,220.00 L 401.511,220.00 C 400.177,220.00 399.62,219.049 400.274,217.886 L 408.811,200.872 C 409.138,200.291 409.569,200.00 410.00,200.00 ZM 408.75,215.00A1.25,1.25 2520.00 1 0 411.25,215A1.25,1.25 2520.00 1 0 408.75,215zM 410.00,207.50 C 410.69,207.50 411.25,208.06 411.25,208.75 L 410.859,212.50 L 409.141,212.50 L 408.75,208.75 C 408.75,208.06 409.31,207.50 410.00,207.50 ZM 450.00,201.875 C 447.83,201.875 445.789,202.72 444.255,204.255 C 442.72,205.789 441.875,207.83 441.875,210.00 C 441.875,212.17 442.72,214.211 444.255,215.745 C 445.789,217.28 447.83,218.125 450.00,218.125 C 452.17,218.125 454.211,217.28 455.745,215.745 C 457.28,214.211 458.125,212.17 458.125,210.00 C 458.125,207.83 457.28,205.789 455.745,204.255 C 454.211,202.72 452.17,201.875 450.00,201.875 Z M 450.00,200.00 L 450.00,200.00 C 455.523,200.00 460.00,204.477 460.00,210.00 C 460.00,215.523 455.523,220.00 450.00,220.00 C 444.477,220.00 440.00,215.523 440.00,210.00 C 440.00,204.477 444.477,200.00 450.00,200.00 ZM 448.75,213.75L 451.25,213.75L 451.25,216.25L 448.75,216.25zM 448.75,203.75L 451.25,203.75L 451.25,211.25L 448.75,211.25zM 488.75,213.75L 491.25,213.75L 491.25,216.25L 488.75,216.25zM 493.75,205.00 C 494.44,205.00 495.00,205.56 495.00,206.25 L 495.00,210.00 L 491.25,212.50 L 488.75,212.50 L 488.75,211.25 L 492.50,208.75 L 492.50,207.50 L 486.25,207.50 L 486.25,205.00 L 493.75,205.00 ZM 490.00,201.875 C 487.83,201.875 485.789,202.72 484.255,204.255 C 482.72,205.789 481.875,207.83 481.875,210.00 C 481.875,212.17 482.72,214.211 484.255,215.745 C 485.789,217.28 487.83,218.125 490.00,218.125 C 492.17,218.125 494.211,217.28 495.745,215.745 C 497.28,214.211 498.125,212.17 498.125,210.00 C 498.125,207.83 497.28,205.789 495.745,204.255 C 494.211,202.72 492.17,201.875 490.00,201.875 Z M 490.00,200.00 L 490.00,200.00 C 495.523,200.00 500.00,204.477 500.00,210.00 C 500.00,215.523 495.523,220.00 490.00,220.00 C 484.477,220.00 480.00,215.523 480.00,210.00 C 480.00,204.477 484.477,200.00 490.00,200.00 ZM 530.00,200.00C 524.477,200.00, 520.00,204.477, 520.00,210.00s 4.477,10.00, 10.00,10.00s 10.00-4.477, 10.00-10.00S 535.523,200.00, 530.00,200.00z M 530.00,218.125 c-4.487,0.00-8.125-3.638-8.125-8.125S 525.513,201.875, 530.00,201.875s 8.125,3.638, 8.125,8.125S 534.487,218.125, 530.00,218.125zM 528.75,205.00L 531.25,205.00L 531.25,207.50L 528.75,207.50zM 532.50,215.00L 527.50,215.00L 527.50,213.75L 528.75,213.75L 528.75,210.00L 527.50,210.00L 527.50,208.75L 531.25,208.75L 531.25,213.75L 532.50,213.75 zM 570.00,200.00C 564.477,200.00, 560.00,204.477, 560.00,210.00s 4.477,10.00, 10.00,10.00s 10.00-4.477, 10.00-10.00S 575.523,200.00, 570.00,200.00z M 568.75,203.75l 2.50,0.00 l0.00,2.50 l-2.50,0.00 L 568.75,203.75 z M 572.50,216.25L 567.50,216.25 l0.00-1.25 l 1.25,0.00 L 568.75,210.00 l-1.25,0.00 l0.00-1.25 l 3.75,0.00 l0.00,6.25 l 1.25,0.00 L 572.50,216.25 zM 600.00,210.00c0.00,5.523, 4.477,10.00, 10.00,10.00c 5.523,0.00, 10.00-4.477, 10.00-10.00S 615.523,200.00, 610.00,200.00C 604.477,200.00, 600.00,204.477, 600.00,210.00z M 617.50,210.00 c0.00,1.43-0.401,2.767-1.095,3.905L 606.096,203.595C 607.233,202.901, 608.57,202.50, 610.00,202.50C 614.142,202.50, 617.50,205.858, 617.50,210.00z M 602.50,210.00 c0.00-1.43, 0.401-2.767, 1.096-3.905l 10.309,10.309C 612.767,217.099, 611.43,217.50, 610.00,217.50C 605.858,217.50, 602.50,214.142, 602.50,210.00zM 10.00,240.00C 4.477,240.00,0.00,244.477,0.00,250.00s 4.477,10.00, 10.00,10.00s 10.00-4.477, 10.00-10.00S 15.523,240.00, 10.00,240.00z M 15.00,246.768L 11.768,250.00 L 15.00,253.232L 15.00,255.00 l-1.768,0.00 L 10.00,251.768L 6.768,255.00L 5.00,255.00 l0.00-1.768 L 8.232,250.00L 5.00,246.768L 5.00,245.00 l 1.768,0.00 L 10.00,248.232L 13.232,245.00L 15.00,245.00 L 15.00,246.768 zM 50.00,240.00C 44.477,240.00, 40.00,244.477, 40.00,250.00s 4.477,10.00, 10.00,10.00s 10.00-4.477, 10.00-10.00S 55.523,240.00, 50.00,240.00z M 48.125,256.25L 43.984,250.859l 1.836-1.914l 2.305,2.93 l 7.227-5.898l 0.898,0.898L 48.125,256.25zM 100.00,254.375M 94.375,240.00L 85.625,240.00 L 80.00,245.625l0.00,8.75 l 5.625,5.625l 8.75,0.00 l 5.625-5.625L 100.00,245.625 L 94.375,240.00z M 91.25,256.25l-2.50,0.00 l0.00-2.50 l 2.50,0.00 L 91.25,256.25 z M 91.25,251.25l-2.50,0.00 L 88.75,243.75 l 2.50,0.00 L 91.25,251.25 zM 139.818,256.068c0.00,0.000.00,0.000.00,0.00L 133.75,250.00l 6.067-6.067c 0.00,0.00, 0.00,0.00, 0.00,0.00 c 0.065-0.065, 0.113-0.142, 0.143-0.223c 0.083-0.222, 0.036-0.482-0.143-0.661L 136.951,240.183c-0.179-0.179-0.438-0.226-0.661-0.143 c-0.081,0.03-0.158,0.077-0.223,0.143c0.00,0.000.00,0.000.00,0.00L 130.00,246.25L 123.933,240.183 c0.00,0.000.00,0.000.00,0.00c-0.065-0.065-0.142-0.112-0.223-0.143c-0.222-0.083-0.482-0.036-0.661,0.143L 120.183,243.049 c-0.179,0.179-0.226,0.439-0.143,0.661c 0.03,0.081, 0.078,0.158, 0.143,0.223c 0.00,0.00, 0.00,0.00, 0.00,0.00L 126.25,250.00 L 120.183,256.067c0.00,0.000.00,0.000.00,0.00c-0.065,0.065-0.112,0.142-0.143,0.223c-0.083,0.222-0.036,0.482, 0.143,0.661 l 2.866,2.866c 0.179,0.179, 0.439,0.226, 0.661,0.143c 0.081-0.03, 0.158-0.078, 0.223-0.143c 0.00,0.00, 0.00,0.00, 0.00,0.00 l 6.067-6.067l 6.067,6.067c 0.00,0.00, 0.00,0.00, 0.00,0.00c 0.065,0.065, 0.142,0.113, 0.223,0.143 c 0.222,0.083, 0.482,0.036, 0.661-0.143l 2.866-2.866c 0.179-0.179, 0.226-0.439, 0.143-0.661 C 139.93,256.209, 139.883,256.133, 139.818,256.068zM 176.875,242.50L 167.50,251.875L 163.125,247.50L 160.00,250.625L 167.50,258.125L 180.00,245.625 zM 207.762,257.924l-7.771-7.648l 3.855-3.794l 3.916,3.854l 8.391-8.259l 3.855,3.794L 207.762,257.924z M 202.108,250.275l 5.655,5.566l 10.13-9.97l-1.739-1.712l-8.391,8.259L 203.847,248.564L 202.108,250.275zM 240.00,248.125l0.00,3.75 c0.00,0.345, 0.28,0.625, 0.625,0.625l 18.75,0.00 c 0.345,0.00, 0.625-0.28, 0.625-0.625l0.00-3.75 c0.00-0.345-0.28-0.625-0.625-0.625L 240.625,247.50 C 240.28,247.50, 240.00,247.78, 240.00,248.125zM 299.375,247.50L 292.50,247.50 L 292.50,240.625 c0.00-0.345-0.28-0.625-0.625-0.625l-3.75,0.00 c-0.345,0.00-0.625,0.28-0.625,0.625l0.00,6.875 L 280.625,247.50 c-0.345,0.00-0.625,0.28-0.625,0.625l0.00,3.75 c0.00,0.345, 0.28,0.625, 0.625,0.625l 6.875,0.00 l0.00,6.875 c0.00,0.345, 0.28,0.625, 0.625,0.625l 3.75,0.00 c 0.345,0.00, 0.625-0.28, 0.625-0.625L 292.50,252.50 l 6.875,0.00 c 0.345,0.00, 0.625-0.28, 0.625-0.625l0.00-3.75 C 300.00,247.78, 299.72,247.50, 299.375,247.50zM 327.50,250.00 L 321.25,250.00 L 321.25,247.50 L 327.50,247.50 L 327.50,245.00 L 331.25,248.75 L 327.50,252.50 ZM 340.00,240.00 L 340.00,256.25 L 332.50,260.00 L 332.50,256.25 L 325.00,256.25 L 325.00,251.25 L 326.25,251.25 L 326.25,255.00 L 332.50,255.00 L 332.50,243.75 L 337.50,241.25 L 326.25,241.25 L 326.25,246.25 L 325.00,246.25 L 325.00,240.00 ZM 375.00,252.50 L 375.00,250.00 L 368.75,250.00 L 368.75,247.50 L 375.00,247.50 L 375.00,245.00 L 378.75,248.75 ZM 373.75,251.25 L 373.75,256.25 L 367.50,256.25 L 367.50,260.00 L 360.00,256.25 L 360.00,240.00 L 373.75,240.00 L 373.75,246.25 L 372.50,246.25 L 372.50,241.25 L 362.50,241.25 L 367.50,243.75 L 367.50,255.00 L 372.50,255.00 L 372.50,251.25 ZM 403.75,242.50L 416.25,250.00L 403.75,257.50 zM 442.50,242.50L 448.75,242.50L 448.75,257.50L 442.50,257.50zM 451.25,242.50L 457.50,242.50L 457.50,257.50L 451.25,257.50zM 482.50,242.50L 497.50,242.50L 497.50,257.50L 482.50,257.50zM 531.25,243.125 L 531.25,249.375 L 537.50,243.125 L 537.50,256.875 L 531.25,250.625 L 531.25,256.875 L 524.375,250.00 ZM 574.053,256.241c-0.24,0.00-0.48-0.092-0.663-0.275c-0.366-0.366-0.366-0.96,0.00-1.326 c 2.559-2.559, 2.559-6.722,0.00-9.281c-0.366-0.366-0.366-0.96,0.00-1.326c 0.366-0.366, 0.96-0.366, 1.326,0.00 C 576.31,245.627, 577.188,247.746, 577.188,250.00c0.00,2.254-0.878,4.373-2.471,5.966C 574.533,256.149, 574.293,256.241, 574.053,256.241zM 570.723,254.473c-0.24,0.00-0.48-0.092-0.663-0.275c-0.366-0.366-0.366-0.96,0.00-1.326 c 1.584-1.584, 1.584-4.161,0.00-5.745c-0.366-0.366-0.366-0.96,0.00-1.326c 0.366-0.366, 0.96-0.366, 1.326,0.00 c 2.315,2.315, 2.315,6.082,0.00,8.397C 571.203,254.382, 570.963,254.473, 570.723,254.473zM 567.839,241.536 C 568.34,241.035 568.75,241.205 568.75,241.914 L 568.75,258.086 C 568.75,258.795 568.34,258.965 567.839,258.463 L 563.125,253.75 L 560.00,253.75 L 560.00,246.25 L 563.125,246.25 L 567.839,241.536 ZM 602.50,246.25L 615.00,246.25L 615.00,250.00L 620.00,245.00L 615.00,240.00L 615.00,243.75L 600.00,243.75L 600.00,251.25L 602.50,251.25 zM 617.50,253.75L 605.00,253.75L 605.00,250.00L 600.00,255.00L 605.00,260.00L 605.00,256.25L 620.00,256.25L 620.00,248.75L 617.50,248.75 zM 17.071,282.929C 15.261,281.12, 12.761,280.00, 10.00,280.00C 5.713,280.00, 2.057,282.698, 0.635,286.488l 2.341,0.878 C 4.043,284.523, 6.785,282.50, 10.00,282.50c 2.071,0.00, 3.946,0.84, 5.303,2.197L 12.50,287.50l 7.50,0.00 L 20.00,280.00 L 17.071,282.929zM 10.00,297.50c-2.071,0.00-3.946-0.84-5.303-2.197L 7.50,292.50L0.00,292.50 l0.00,7.50 l 2.93-2.93C 4.739,298.88, 7.239,300.00, 10.00,300.00 c 4.287,0.00, 7.943-2.698, 9.365-6.488l-2.341-0.878C 15.957,295.477, 13.215,297.50, 10.00,297.50zM 46.25,292.50L 46.25,288.75L 50.00,288.75L 45.00,283.75L 40.00,288.75L 43.75,288.75L 43.75,295.00L 51.25,295.00L 48.75,292.50 zM 56.25,291.25L 56.25,285.00L 48.75,285.00L 51.25,287.50L 53.75,287.50L 53.75,291.25L 50.00,291.25L 55.00,296.25L 60.00,291.25 zM 100.00,285.00L 95.00,280.00l0.00,3.75 c-2.554,0.00-4.507,0.61-5.97,1.863c-0.103,0.088-0.201,0.178-0.296,0.269 c 0.537,0.745, 0.951,1.514, 1.324,2.248C 91.002,286.99, 92.364,286.25, 95.00,286.25l0.00,3.75 l0.00,0.00 l0.00,3.75 c-4.227,0.00-5.178-1.902-6.382-4.309 c-0.67-1.34-1.363-2.726-2.648-3.828C 84.507,284.36, 82.554,283.75, 80.00,283.75l0.00,2.50 c 4.227,0.00, 5.178,1.902, 6.382,4.309 c 0.67,1.34, 1.363,2.726, 2.648,3.828C 90.493,295.64, 92.446,296.25, 95.00,296.25l0.00,3.75 l 5.00-5.00L 95.00,290.00L 100.00,285.00zM 80.00,293.75l0.00,2.50 c 2.554,0.00, 4.507-0.61, 5.97-1.863c 0.103-0.088, 0.201-0.178, 0.296-0.269 c-0.537-0.745-0.952-1.514-1.324-2.248C 83.998,293.01, 82.636,293.75, 80.00,293.75zM 120.00,295.00L 125.00,290.00L 135.00,300.00L 140.00,295.00L 130.00,285.00L 135.00,280.00L 120.00,280.00 zM 160.00,280.00l0.00,20.00 l 20.00,0.00 L 180.00,280.00 L 160.00,280.00 z M 178.75,298.75L 161.25,298.75 L 161.25,281.25 l 17.50,0.00 L 178.75,298.75 z M 175.00,284.375L 168.75,290.625l-3.75-3.75l-2.50,2.50l 6.25,6.25l 8.75-8.75L 175.00,284.375zM 200.00,280.00l0.00,20.00 l 20.00,0.00 L 220.00,280.00 L 200.00,280.00 z M 218.75,298.75L 201.25,298.75 L 201.25,281.25 l 17.50,0.00 L 218.75,298.75 zM 240.00,280.00l0.00,20.00 l 20.00,0.00 L 260.00,280.00 L 240.00,280.00 z M 258.75,298.75L 241.25,298.75 L 241.25,281.25 l 17.50,0.00 L 258.75,298.75 zM 245.00,285.00L 255.00,285.00L 255.00,295.00L 245.00,295.00zM 290.00,280.00C 284.477,280.00, 280.00,284.477, 280.00,290.00s 4.477,10.00, 10.00,10.00s 10.00-4.477, 10.00-10.00S 295.523,280.00, 290.00,280.00z M 290.00,297.50 c-4.142,0.00-7.50-3.358-7.50-7.50c0.00-4.142, 3.358-7.50, 7.50-7.50c 4.142,0.00, 7.50,3.358, 7.50,7.50C 297.50,294.142, 294.142,297.50, 290.00,297.50zM 286.25,290.00A3.75,3.75 12600.00 1 0 293.75,290A3.75,3.75 12600.00 1 0 286.25,290zM 330.00,280.00C 324.477,280.00, 320.00,284.477, 320.00,290.00s 4.477,10.00, 10.00,10.00s 10.00-4.477, 10.00-10.00S 335.523,280.00, 330.00,280.00z M 330.00,297.50 c-4.142,0.00-7.50-3.358-7.50-7.50c0.00-4.142, 3.358-7.50, 7.50-7.50c 4.142,0.00, 7.50,3.358, 7.50,7.50C 337.50,294.142, 334.142,297.50, 330.00,297.50zM 376.875,293.75c-0.882,0.00-1.678,0.366-2.246,0.954L 366.211,290.495C 366.236,290.334, 366.25,290.168, 366.25,290.00 s-0.014-0.334-0.039-0.495l 8.418-4.209C 375.197,285.884, 375.993,286.25, 376.875,286.25c 1.726,0.00, 3.125-1.399, 3.125-3.125S 378.601,280.00, 376.875,280.00 s-3.125,1.399-3.125,3.125c0.00,0.168, 0.014,0.334, 0.039,0.495L 365.371,287.829C 364.803,287.241, 364.007,286.875, 363.125,286.875c-1.726,0.00-3.125,1.399-3.125,3.125 c0.00,1.726, 1.399,3.125, 3.125,3.125c 0.882,0.00, 1.678-0.366, 2.246-0.954l 8.418,4.209C 373.764,296.541, 373.75,296.707, 373.75,296.875 c0.00,1.726, 1.399,3.125, 3.125,3.125s 3.125-1.399, 3.125-3.125C 380.00,295.149, 378.601,293.75, 376.875,293.75zM 411.247,300.00L 407.50,300.00 L 407.50,290.00 l-2.50,0.00 l0.00-3.446 l 2.50-0.001l-0.004-2.03C 407.496,281.711, 408.258,280.00, 411.57,280.00l 2.757,0.00 l0.00,3.447 l-1.723,0.00 c-1.29,0.00-1.352,0.482-1.352,1.381l-0.005,1.725l 3.099,0.00 l-0.365,3.446L 411.25,290.00L 411.247,300.00zM 456.667,280.00L 443.334,280.00 C 441.50,280.00, 440.00,281.50, 440.00,283.334l0.00,13.333 C 440.00,298.501, 441.50,300.00, 443.334,300.00l 13.333,0.00 c 1.834,0.00, 3.333-1.499, 3.333-3.334L 460.00,283.334 C 460.00,281.50, 458.50,280.00, 456.667,280.00z M 457.004,290.00L 453.75,290.00 l0.00,8.75 l-3.75,0.00 L 450.00,290.00 l-1.807,0.00 l0.00-2.863 L 450.00,287.137 l0.00-1.859 C 450.00,282.752, 451.09,281.25, 454.06,281.25l 3.423,0.00 l0.00,3.097 l-2.796,0.00 c-0.83-0.001-0.933,0.433-0.933,1.24L 453.75,287.137l 3.75,0.00 L 457.004,290.00zM 490.00,280.00 C 495.523,280.00 500.00,284.477 500.00,290.00 C 500.00,295.099 496.183,299.307 491.25,299.922 L 491.25,292.50 L 494.688,292.50 L 495.00,290.00 L 491.25,290.00 L 491.25,288.75 C 491.25,288.06 491.81,287.50 492.50,287.50 L 495.00,287.50 L 495.00,285.00 L 492.50,285.00 C 490.429,285.00 488.75,286.679 488.75,288.75 L 488.75,290.00 L 486.875,290.00 L 486.875,292.50 L 488.75,292.50 L 488.75,297.441 L 488.75,299.685 L 488.75,299.922 C 483.817,299.307 480.00,295.099 480.00,290.00 C 480.00,284.477 484.477,280.00 490.00,280.00 ZM 540.00,283.797c-0.736,0.326-1.527,0.547-2.357,0.646c 0.847-0.508, 1.498-1.312, 1.804-2.27 c-0.793,0.47-1.671,0.812-2.606,0.996c-0.748-0.797-1.815-1.296-2.995-1.296c-2.266,0.00-4.103,1.837-4.103,4.103 c0.00,0.322, 0.036,0.635, 0.106,0.935c-3.41-0.171-6.434-1.805-8.457-4.287c-0.353,0.606-0.556,1.311-0.556,2.063 c0.00,1.424, 0.724,2.68, 1.825,3.415c-0.673-0.021-1.305-0.206-1.858-0.513c0.00,0.0170.00,0.0340.00,0.052 c0.00,1.988, 1.414,3.646, 3.291,4.023c-0.344,0.094-0.707,0.144-1.081,0.144c-0.264,0.00-0.521-0.026-0.772-0.074 c 0.522,1.63, 2.037,2.817, 3.833,2.85c-1.404,1.101-3.174,1.757-5.096,1.757c-0.331,0.00-0.658-0.019-0.979-0.057 c 1.816,1.164, 3.973,1.844, 6.29,1.844c 7.547,0.00, 11.675-6.252, 11.675-11.675c0.00-0.178-0.004-0.355-0.012-0.531 C 538.754,285.343, 539.45,284.62, 540.00,283.797zM 576.667,280.00L 563.334,280.00 C 561.50,280.00, 560.00,281.50, 560.00,283.334l0.00,13.332 C 560.00,298.501, 561.50,300.00, 563.334,300.00l 13.333,0.00 C 578.50,300.00, 580.00,298.501, 580.00,296.666L 580.00,283.334 C 580.00,281.50, 578.50,280.00, 576.667,280.00z M 576.368,286.676 c 0.006,0.143, 0.01,0.288, 0.01,0.433c0.00,4.418-3.305,9.513-9.349,9.513c-1.856,0.00-3.583-0.554-5.037-1.502 c 0.257,0.031, 0.519,0.047, 0.784,0.047c 1.539,0.00, 2.956-0.535, 4.081-1.431c-1.438-0.027-2.651-0.994-3.069-2.322 c 0.201,0.039, 0.406,0.06, 0.618,0.06c 0.30,0.00, 0.59-0.041, 0.866-0.117c-1.503-0.307-2.636-1.659-2.636-3.278 c0.00-0.014,0.00-0.028, 0.00-0.042c 0.443,0.25, 0.95,0.401, 1.488,0.418c-0.882-0.60-1.462-1.623-1.462-2.783 c0.00-0.613, 0.162-1.187, 0.445-1.681c 1.621,2.023, 4.042,3.354, 6.773,3.493c-0.056-0.245-0.085-0.50-0.085-0.762 c0.00-1.846, 1.471-3.343, 3.286-3.343c 0.945,0.00, 1.799,0.406, 2.398,1.056c 0.748-0.15, 1.452-0.428, 2.087-0.811 c-0.245,0.781-0.766,1.436-1.445,1.85c 0.665-0.081, 1.298-0.261, 1.887-0.526C 577.567,285.616, 577.01,286.205, 576.368,286.676 zM 610.00,280.00C 604.477,280.00, 600.00,284.477, 600.00,290.00s 4.477,10.00, 10.00,10.00s 10.00-4.477, 10.00-10.00S 615.523,280.00, 610.00,280.00z M 615.747,287.053 c 0.006,0.127, 0.009,0.255, 0.009,0.384c0.00,3.918-2.983,8.437-8.437,8.437c-1.675,0.00-3.233-0.491-4.545-1.332 c 0.232,0.027, 0.468,0.042, 0.707,0.042c 1.389,0.00, 2.668-0.474, 3.683-1.269c-1.298-0.024-2.393-0.881-2.77-2.059 c 0.181,0.035, 0.367,0.053, 0.558,0.053c 0.27,0.00, 0.532-0.036, 0.781-0.104c-1.356-0.273-2.379-1.471-2.379-2.908 c0.00-0.013,0.00-0.025, 0.00-0.037c 0.40,0.222, 0.857,0.355, 1.343,0.371c-0.796-0.532-1.319-1.439-1.319-2.468 c0.00-0.543, 0.146-1.053, 0.401-1.491c 1.462,1.794, 3.647,2.974, 6.112,3.098c-0.051-0.217-0.077-0.443-0.077-0.676 c0.00-1.638, 1.328-2.965, 2.965-2.965c 0.853,0.00, 1.624,0.36, 2.164,0.936c 0.675-0.133, 1.31-0.38, 1.883-0.72 c-0.221,0.692-0.692,1.274-1.304,1.641c 0.60-0.072, 1.171-0.231, 1.703-0.467 C 616.829,286.112, 616.326,286.634, 615.747,287.053zM 16.25,322.50L 3.75,322.50 c-2.063,0.00-3.75,1.688-3.75,3.75l0.00,7.50 c0.00,2.063, 1.688,3.75, 3.75,3.75l 12.50,0.00 c 2.063,0.00, 3.75-1.688, 3.75-3.75L 20.00,326.25 C 20.00,324.188, 18.313,322.50, 16.25,322.50z M 7.50,335.00L 7.50,325.00 l 6.25,5.00L 7.50,335.00zM 51.251,328.75 L 51.251,333.324 C 51.251,334.484 51.236,335.153 51.359,335.482 C 51.481,335.809 51.787,336.149 52.12,336.345 C 52.563,336.611 53.068,336.743 53.638,336.743 C 54.651,336.743 55.249,336.61 56.25,335.952 L 56.25,338.958 L 56.25,338.958 C 55.396,339.36 54.651,339.595 53.959,339.758 C 53.265,339.919 52.516,340.00 51.711,340.00 C 50.797,340.00 50.257,339.885 49.555,339.655 C 48.852,339.423 48.253,339.092 47.757,338.668 C 47.26,338.24 46.917,337.785 46.725,337.304 C 46.533,336.823 46.438,336.124 46.438,335.209 L 46.438,328.196 L 43.754,328.196 L 43.754,325.364 C 44.539,325.109 45.417,324.743 45.976,324.267 C 46.538,323.789 46.987,323.218 47.326,322.549 C 47.665,321.882 47.899,321.031 48.026,320.00 L 51.251,320.00 L 51.251,325.00 L 56.25,325.00 L 56.25,328.75 L 51.251,328.75 ZM 96.668,320.00L 83.334,320.00 C 81.50,320.00, 80.00,321.50, 80.00,323.334l0.00,13.333 C 80.00,338.501, 81.50,340.00, 83.334,340.00L 96.668,340.00 C 98.501,340.00, 100.00,338.501, 100.00,336.666L 100.00,323.334 C 100.00,321.50, 98.501,320.00, 96.668,320.00z M 94.291,336.107 c-0.589,0.277-1.124,0.472-1.602,0.585c-0.478,0.111-0.995,0.167-1.551,0.167c-0.631,0.00-1.003-0.079-1.488-0.238 c-0.485-0.16-0.898-0.388-1.24-0.681c-0.343-0.295-0.58-0.609-0.712-0.941c-0.133-0.332-0.198-0.814-0.198-1.445L 87.50,328.713 l-1.875,0.00 l0.00-1.954 c 0.542-0.176, 1.171-0.428, 1.556-0.757c 0.388-0.33, 0.698-0.724, 0.931-1.185 c 0.234-0.46, 0.396-1.047, 0.483-1.759l 1.963,0.00 L 90.559,326.25 L 93.75,326.25 l0.00,2.463 l-3.191,0.00 l0.00,3.539 c0.00,0.801-0.01,1.262, 0.075,1.489 c 0.084,0.226, 0.295,0.46, 0.525,0.596c 0.306,0.183, 0.654,0.275, 1.047,0.275c 0.699,0.00, 1.394-0.227, 2.085-0.681L 94.291,336.107 L 94.291,336.107zM 135.459,330.627c-0.025-2.533, 2.066-3.748, 2.159-3.808c-1.175-1.719-3.005-1.955-3.657-1.982 c-1.557-0.158-3.039,0.917-3.829,0.917c-0.788,0.00-2.008-0.894-3.30-0.87c-1.698,0.025-3.263,0.987-4.137,2.507 c-1.764,3.061-0.452,7.595, 1.267,10.077c 0.84,1.215, 1.842,2.58, 3.157,2.531c 1.266-0.051, 1.745-0.819, 3.276-0.819 c 1.531,0.00, 1.961,0.819, 3.302,0.794c 1.363-0.025, 2.226-1.238, 3.06-2.457c 0.965-1.41, 1.362-2.774, 1.385-2.844 C 138.112,334.659, 135.485,333.652, 135.459,330.627zM 132.941,323.194C 133.639,322.347, 134.11,321.172, 133.981,320.00c-1.005,0.041-2.224,0.67-2.946,1.515 c-0.647,0.75-1.214,1.946-1.062,3.094C 131.096,324.697, 132.242,324.039, 132.941,323.194zM 176.875,326.25c-0.688,0.00-1.25,0.563-1.25,1.25l0.00,5.00 c0.00,0.688, 0.563,1.25, 1.25,1.25s 1.25-0.563, 1.25-1.25L 178.125,327.50 C 178.125,326.813, 177.563,326.25, 176.875,326.25zM 161.875,326.25c-0.688,0.00-1.25,0.563-1.25,1.25l0.00,5.00 c0.00,0.688, 0.563,1.25, 1.25,1.25s 1.25-0.563, 1.25-1.25L 163.125,327.50 C 163.125,326.813, 162.562,326.25, 161.875,326.25zM 163.75,334.375c0.00,1.036, 0.839,1.875, 1.875,1.875l 0.625,0.00 l0.00,2.50 c0.00,0.688, 0.563,1.25, 1.25,1.25s 1.25-0.563, 1.25-1.25l0.00-2.50 l 1.25,0.00 l0.00,2.50 c0.00,0.688, 0.563,1.25, 1.25,1.25s 1.25-0.563, 1.25-1.25 l0.00-2.50 l 0.625,0.00 c 1.036,0.00, 1.875-0.839, 1.875-1.875L 175.00,327.50 L 163.75,327.50 L 163.75,334.375 zM 171.691,321.748l 0.791-1.52c 0.04-0.076, 0.01-0.171-0.066-0.211s-0.171-0.01-0.211,0.066l-0.803,1.543 C 170.773,321.384, 170.09,321.25, 169.375,321.25c-0.715,0.00-1.398,0.134-2.027,0.377L 166.545,320.084c-0.04-0.076-0.134-0.106-0.211-0.066 s-0.106,0.134-0.066,0.211l 0.791,1.52c-1.77,0.801-3.052,2.492-3.274,4.502l 11.18,0.00 C 174.743,324.24, 173.462,322.549, 171.691,321.748z M 166.875,325.281c-0.501,0.00-0.906-0.406-0.906-0.906c0.00-0.501, 0.406-0.906, 0.906-0.906 s 0.906,0.406, 0.906,0.906C 167.781,324.876, 167.376,325.281, 166.875,325.281z M 171.875,325.281c-0.501,0.00-0.906-0.406-0.906-0.906 c0.00-0.501, 0.406-0.906, 0.906-0.906s 0.906,0.406, 0.906,0.906C 172.781,324.876, 172.376,325.281, 171.875,325.281zM 217.421,330.043c-0.353,0.00-0.69,0.069-0.997,0.193C 216.219,328.002, 214.27,326.25, 211.892,326.25 c-0.582,0.00-1.146,0.11-1.647,0.296c-0.195,0.072-0.246,0.147-0.246,0.291l0.00,7.866 c0.00,0.152, 0.122,0.278, 0.276,0.293 C 210.282,334.997, 217.376,335.00, 217.422,335.00C 218.846,335.00, 220.00,333.89, 220.00,332.522S 218.845,330.043, 217.421,330.043zM 207.813,335.00L 208.438,335.00L 208.75,330.621L 208.438,326.25L 207.813,326.25L 207.50,330.621 zM 205.938,335.00L 205.313,335.00L 205.00,331.821L 205.313,328.75L 205.938,328.75L 206.25,331.875 zM 202.813,335.00L 203.438,335.00L 203.75,332.50L 203.438,330.00L 202.813,330.00L 202.50,332.50 zM 200.313,333.75L 200.938,333.75L 201.25,332.50L 200.938,331.25L 200.313,331.25L 200.00,332.50 zM 250.00,320.00C 244.477,320.00, 240.00,324.477, 240.00,330.00s 4.477,10.00, 10.00,10.00c 5.523,0.00, 10.00-4.477, 10.00-10.00S 255.523,320.00, 250.00,320.00z M 250.97,333.362 c-0.909-0.071-1.29-0.521-2.002-0.953C 248.576,334.463, 248.097,336.432, 246.68,337.461 c-0.438-3.105, 0.642-5.437, 1.144-7.912c-0.855-1.44, 0.103-4.337, 1.907-3.623 c 2.219,0.878-1.922,5.352, 0.858,5.91c 2.903,0.583, 4.088-5.036, 2.288-6.864 c-2.601-2.639-7.57-0.06-6.959,3.718c 0.149,0.924, 1.103,1.204, 0.381,2.479c-1.664-0.369-2.161-1.682-2.097-3.432 c 0.103-2.865, 2.574-4.87, 5.052-5.148c 3.134-0.351, 6.076,1.151, 6.483,4.099 C 256.193,330.017, 254.321,333.621, 250.97,333.362zM 296.667,320.00L 283.333,320.00 C 281.492,320.00, 280.00,321.493, 280.00,323.334l0.00,13.333 C 280.00,338.507, 281.492,340.00, 283.333,340.00l 13.334,0.00 C 298.508,340.00, 300.00,338.507, 300.00,336.666L 300.00,323.334 C 300.00,321.493, 298.508,320.00, 296.667,320.00z M 290.97,333.362 c-0.909-0.071-1.29-0.521-2.002-0.953c-0.392,2.054-0.87,4.024-2.288,5.053 c-0.438-3.105, 0.642-5.437, 1.144-7.912c-0.855-1.44, 0.103-4.337, 1.907-3.623 c 2.219,0.878-1.922,5.352, 0.858,5.91c 2.903,0.583, 4.088-5.036, 2.288-6.864 c-2.601-2.639-7.57-0.06-6.959,3.718c 0.149,0.924, 1.103,1.204, 0.381,2.479c-1.664-0.369-2.161-1.682-2.097-3.432 c 0.103-2.865, 2.574-4.87, 5.052-5.148c 3.134-0.351, 6.076,1.151, 6.483,4.099 C 296.193,330.017, 294.321,333.621, 290.97,333.362z"></path></svg>