<?xml version="1.0" encoding="utf-8"?> <!-- Generator: IcoMoon.io --> <!DOCTYPE svg PUBLIC "-//W3C//DTD SVG 1.1//EN" "http://www.w3.org/Graphics/SVG/1.1/DTD/svg11.dtd"> <svg xmlns:xlink="http://www.w3.org/1999/xlink" xmlns="http://www.w3.org/2000/svg" fill="#666666" width="1032" height="480" viewBox="0 0 1032 480"><path d="M 32.00,18.451 L 16.00,6.032 L 0.00,18.451 L 0.00,13.388 L 16.00,0.968 L 32.00,13.388 ZM 28.00,18.00 L 28.00,30.00 L 20.00,30.00 L 20.00,22.00 L 12.00,22.00 L 12.00,30.00 L 4.00,30.00 L 4.00,18.00 L 16.00,9.00 ZM 96.00,19.00L 90.00,13.00L 90.00,4.00L 86.00,4.00L 86.00,9.00L 80.00,3.00L 64.00,19.00L 64.00,20.00L 68.00,20.00L 68.00,30.00L 78.00,30.00L 78.00,24.00L 82.00,24.00L 82.00,30.00L 92.00,30.00L 92.00,20.00L 96.00,20.00 zM 128.00,32.00l 16.00,0.00 L 144.00,0.00 L 128.00,0.00 L 128.00,32.00 z M 138.00,4.00l 4.00,0.00 l0.00,4.00 l-4.00,0.00 L 138.00,4.00 z M 138.00,12.00l 4.00,0.00 l0.00,4.00 l-4.00,0.00 L 138.00,12.00 z M 138.00,20.00l 4.00,0.00 l0.00,4.00 l-4.00,0.00 L 138.00,20.00 z M 130.00,4.00l 4.00,0.00 l0.00,4.00 L 130.00,8.00 L 130.00,4.00 z M 130.00,12.00 l 4.00,0.00 l0.00,4.00 L 130.00,16.00 L 130.00,12.00 z M 130.00,20.00l 4.00,0.00 l0.00,4.00 L 130.00,24.00 L 130.00,20.00 zM 146.00,10.00L 160.00,10.00L 160.00,12.00L 146.00,12.00zM 146.00,32.00L 150.00,32.00L 150.00,24.00L 156.00,24.00L 156.00,32.00L 160.00,32.00L 160.00,14.00L 146.00,14.00 zM 219.00,0.00 C 221.761,0.00 224.00,2.239 224.00,5.00 C 224.00,6.126 223.628,7.164 223.00,8.00 L 221.00,10.00 L 214.00,3.00 L 216.00,1.00 C 216.836,0.372 217.874,0.00 219.00,0.00 ZM 194.00,23.00L 192.00,32.00l 9.00-2.00l 18.50-18.50L 212.50,4.50L 194.00,23.00z M 214.362,11.362l-14.00,14.00l-1.724-1.724l 14.00-14.00L 214.362,11.362zM 268.00,6.00 C 275.732,6.00 282.00,12.268 282.00,20.00 L 279.00,20.00 C 279.00,17.062 277.856,14.299 275.778,12.222 C 273.701,10.144 270.938,9.00 268.00,9.00 L 268.00,6.00 ZM 268.00,0.00 C 279.046,0.00 288.00,8.954 288.00,20.00 L 285.00,20.00 C 285.00,17.704 284.551,15.478 283.665,13.384 C 282.809,11.36 281.583,9.541 280.021,7.979 C 278.459,6.417 276.64,5.191 274.616,4.335 C 272.522,3.449 270.296,3.00 268.00,3.00 L 268.00,0.00 ZM 273.95,14.05 C 275.317,15.418 276.00,17.21 275.999,19.002 C 274.00,22.002 274.00,26.00 274.00,26.00 C 266.00,26.00 260.00,32.00 260.00,32.00 L 259.563,31.563 L 258.84,30.84 L 267.702,21.978 C 267.799,21.992 267.899,22.00 268.00,22.00 C 269.105,22.00 270.00,21.105 270.00,20.00 C 270.00,18.895 269.105,18.00 268.00,18.00 C 266.895,18.00 266.00,18.895 266.00,20.00 C 266.00,20.101 266.008,20.201 266.022,20.298 L 257.16,29.16 L 256.00,28.00 C 256.00,28.00 262.00,22.00 262.00,14.00 C 262.00,14.00 266.00,14.00 269.00,12.00 C 270.791,12.00 272.583,12.683 273.95,14.05 ZM 348.00,6.00 L 324.00,6.00 L 324.00,26.00 L 348.00,26.00 L 348.00,6.00 Z M 352.00,2.00 L 352.00,2.00 L 352.00,30.00 L 320.00,30.00 L 320.00,2.00 L 352.00,2.00 ZM 346.00,24.00 L 326.00,24.00 L 326.00,20.00 L 332.00,10.00 L 340.219,20.00 L 346.00,16.00 L 346.00,18.00 ZM 340.00,11.00A3.00,3.00 2520.00 1 0 346.00,11A3.00,3.00 2520.00 1 0 340.00,11zM 384.00,4.00l0.00,26.00 l 32.00,0.00 L 416.00,4.00 L 384.00,4.00 z M 414.00,28.00L 386.00,28.00 L 386.00,6.00 l 28.00,0.00 L 414.00,28.00 zM 406.00,11.00A3.00,3.00 2520.00 1 0 412.00,11A3.00,3.00 2520.00 1 0 406.00,11zM 412.00,26.00 L 388.00,26.00 L 394.00,10.00 L 402.00,20.00 L 406.00,17.00 ZM 452.00,8.00l0.00,20.00 l 28.00,0.00 L 480.00,8.00 L 452.00,8.00 z M 478.00,24.667L 474.00,18.00l-4.533,3.778L 466.00,16.00L 454.00,26.00L 454.00,10.00 l 24.00,0.00 L 478.00,24.667 zM 456.00,15.00A3.00,3.00 7560.00 1 0 462.00,15A3.00,3.00 7560.00 1 0 456.00,15zM 476.00,4.00L 448.00,4.00L 448.00,24.00L 450.00,24.00L 450.00,6.00L 476.00,6.00 zM 521.50,19.00c0.00,3.59, 2.91,6.50, 6.50,6.50s 6.50-2.91, 6.50-6.50s-2.91-6.50-6.50-6.50S 521.50,15.41, 521.50,19.00z M 542.00,8.00L 535.00,8.00 c-0.50-2.00-1.00-4.00-3.00-4.00L 524.00,4.00 c-2.00,0.00-2.50,2.00-3.00,4.00L 514.00,8.00 c-1.10,0.00-2.00,0.90-2.00,2.00l0.00,18.00 c0.00,1.10, 0.90,2.00, 2.00,2.00l 28.00,0.00 c 1.10,0.00, 2.00-0.90, 2.00-2.00L 544.00,10.00 C 544.00,8.90, 543.10,8.00, 542.00,8.00z M 528.00,27.875c-4.902,0.00-8.875-3.973-8.875-8.875c0.00-4.902, 3.973-8.875, 8.875-8.875c 4.902,0.00, 8.875,3.973, 8.875,8.875 C 536.875,23.902, 532.902,27.875, 528.00,27.875z M 542.00,14.00l-4.00,0.00 l0.00-2.00 l 4.00,0.00 L 542.00,14.00 zM 586.00,6.00 L 608.00,0.00 L 608.00,2.00 L 608.00,6.00 L 608.00,23.00 C 608.00,25.761 604.866,28.00 601.00,28.00 C 597.134,28.00 594.00,25.761 594.00,23.00 C 594.00,20.239 597.134,18.00 601.00,18.00 C 602.074,18.00 603.091,18.173 604.00,18.481 L 604.00,8.182 L 590.00,12.00 L 590.00,27.00 C 590.00,29.761 586.866,32.00 583.00,32.00 C 579.134,32.00 576.00,29.761 576.00,27.00 C 576.00,24.239 579.134,22.00 583.00,22.00 C 584.074,22.00 585.091,22.173 586.00,22.481 L 586.00,12.00 L 586.00,6.00 ZM 646.00,18.071l0.00,13.857 c 0.327,0.047, 0.66,0.071, 1.00,0.071l 1.00,0.00 L 648.00,18.00 l-1.00,0.00 C 646.66,18.00, 646.327,18.025, 646.00,18.071zM 664.00,18.00l0.00,14.00 l 1.00,0.00 c 0.34,0.00, 0.673-0.025, 1.00-0.071L 666.00,18.071 c-0.327-0.047-0.66-0.071-1.00-0.071L 664.00,18.00 zM 672.00,16.00C 672.00,7.163, 664.837,0.00, 656.00,0.00S 640.00,7.163, 640.00,16.00c0.00,1.919, 0.338,3.76, 0.958,5.465C 640.349,22.502, 640.00,23.71, 640.00,25.00 c0.00,2.792, 1.635,5.202, 4.00,6.326L 644.00,18.674 c-0.629,0.299-1.206,0.689-1.714,1.153C 642.098,18.914, 642.00,17.969, 642.00,17.00 C 642.00,9.268, 648.268,3.00, 656.00,3.00s 14.00,6.268, 14.00,14.00c0.00,0.969-0.098,1.914-0.286,2.827c-0.509-0.464-1.085-0.854-1.714-1.153 l0.00,12.652 c 2.365-1.124, 4.00-3.534, 4.00-6.326c0.00-1.29-0.349-2.498-0.958-3.535C 671.662,19.76, 672.00,17.919, 672.00,16.00zM 734.662,5.003C 730.174,4.358, 725.214,4.00, 720.00,4.00c-5.214,0.00-10.174,0.358-14.662,1.003 C 704.477,8.37, 704.00,12.089, 704.00,16.00c0.00,3.911, 0.477,7.63, 1.338,10.997C 709.826,27.642, 714.786,28.00, 720.00,28.00 c 5.214,0.00, 10.174-0.358, 14.662-1.003C 735.523,23.63, 736.00,19.911, 736.00,16.00C 736.00,12.089, 735.523,8.37, 734.662,5.003z M 716.00,22.00L 716.00,10.00 l 10.00,6.00L 716.00,22.00zM 768.00,4.00l0.00,24.00 l 32.00,0.00 L 800.00,4.00 L 768.00,4.00 z M 774.00,26.00L 770.00,26.00 l0.00-4.00 l 4.00,0.00 L 774.00,26.00 z M 774.00,18.00L 770.00,18.00 l0.00-4.00 l 4.00,0.00 L 774.00,18.00 z M 774.00,10.00L 770.00,10.00 L 770.00,6.00 l 4.00,0.00 L 774.00,10.00 z M 792.00,26.00L 776.00,26.00 L 776.00,6.00 l 16.00,0.00 L 792.00,26.00 z M 798.00,26.00l-4.00,0.00 l0.00-4.00 l 4.00,0.00 L 798.00,26.00 z M 798.00,18.00l-4.00,0.00 l0.00-4.00 l 4.00,0.00 L 798.00,18.00 z M 798.00,10.00l-4.00,0.00 L 794.00,6.00 l 4.00,0.00 L 798.00,10.00 zM 780.00,10.00L 780.00,22.00L 788.00,16.00 zM 844.00,9.00A5.00,5.00 10800.00 1 0 854.00,9A5.00,5.00 10800.00 1 0 844.00,9zM 832.00,9.00A5.00,5.00 10800.00 1 0 842.00,9A5.00,5.00 10800.00 1 0 832.00,9zM 856.00,19.00l0.00-3.00 c0.00-1.10-0.90-2.00-2.00-2.00l-5.00,0.00 L 837.00,14.00 L 834.00,14.00 c-1.10,0.00-2.00,0.90-2.00,2.00l0.00,10.00 c0.00,1.10, 0.90,2.00, 2.00,2.00l 20.00,0.00 c 1.10,0.00, 2.00-0.90, 2.00-2.00 l0.00-3.00 l 8.00,5.00L 864.00,14.00 L 856.00,19.00z M 852.00,24.00L 836.00,24.00 l0.00-6.00 l 16.00,0.00 L 852.00,24.00 zM 928.00,13.414c0.00-6.279-1.837-11.373-4.109-11.413c 0.009,0.00, 0.018-0.001, 0.027-0.001l-2.592,0.00 c0.00,0.00-6.088,4.573-14.851,6.367c-0.268,1.415-0.438,3.102-0.438,5.047c0.00,1.945, 0.171,3.631, 0.438,5.047 c 8.763,1.794, 14.851,6.367, 14.851,6.367l 2.592,0.00 c-0.009,0.00-0.018-0.001-0.027-0.001C 926.163,24.787, 928.00,19.693, 928.00,13.414 z M 923.026,23.102c-0.293,0.00-0.61-0.304-0.773-0.486c-0.395-0.44-0.775-1.124-1.10-1.979 c-0.727-1.913-1.127-4.478-1.127-7.223c0.00-2.744, 0.40-5.309, 1.127-7.223c 0.325-0.855, 0.705-1.54, 1.10-1.979 c 0.163-0.182, 0.48-0.486, 0.773-0.486c 0.293,0.00, 0.611,0.304, 0.773,0.486c 0.395,0.44, 0.775,1.124, 1.10,1.979 c 0.727,1.913, 1.127,4.479, 1.127,7.223c0.00,2.744-0.40,5.309-1.127,7.223c-0.325,0.855-0.705,1.54-1.10,1.979 C 923.636,22.797, 923.319,23.102, 923.026,23.102z M 903.869,13.414c0.00-1.623, 0.119-3.201, 0.345-4.659 c-1.48,0.205-2.779,0.323-4.386,0.323c-2.096,0.00-2.096,0.00-2.096,0.00L 896.00,12.037l0.00,2.755 l 1.733,2.959c0.00,0.00,0.00,0.00, 2.096,0.00 c 1.606,0.00, 2.905,0.118, 4.386,0.323C 903.988,16.615, 903.869,15.038, 903.869,13.414z M 907.505,20.068l-4.00-0.766 l 2.558,10.048c 0.132,0.52, 0.648,0.782, 1.146,0.583l 3.705-1.483c 0.498-0.199, 0.698-0.749, 0.444-1.221L 907.505,20.068zM 923.026,17.148c-0.113,0.00-0.235-0.117-0.298-0.187c-0.152-0.169-0.299-0.433-0.424-0.763 c-0.28-0.738-0.434-1.726-0.434-2.784c0.00-1.058, 0.154-2.046, 0.434-2.784c 0.125-0.33, 0.272-0.593, 0.424-0.763 c 0.063-0.07, 0.185-0.187, 0.298-0.187c 0.113,0.00, 0.235,0.117, 0.298,0.187c 0.152,0.169, 0.299,0.433, 0.424,0.763 c 0.28,0.737, 0.434,1.726, 0.434,2.784c0.00,1.058-0.154,2.046-0.434,2.784c-0.125,0.33-0.272,0.593-0.424,0.763 C 923.261,17.03, 923.139,17.148, 923.026,17.148zM 980.00,18.00 C 983.308,18.00 986.308,19.346 988.481,21.519 L 985.654,24.346 C 984.206,22.897 982.206,22.00 980.00,22.00 C 977.794,22.00 975.794,22.897 974.346,24.346 L 971.519,21.519 C 973.692,19.346 976.692,18.00 980.00,18.00 ZM 965.858,15.858 C 969.635,12.08 974.658,10.00 980.00,10.00 C 985.342,10.00 990.365,12.08 994.142,15.858 L 991.314,18.686 L 991.314,18.686 C 988.292,15.664 984.274,14.00 980.00,14.00 C 975.726,14.00 971.708,15.664 968.686,18.686 L 965.858,15.858 ZM 990.899,4.201 C 994.234,5.612 997.228,7.63 999.799,10.201 L 999.799,10.201 L 996.971,13.029 C 992.438,8.496 986.411,6.00 980.00,6.00 C 973.589,6.00 967.563,8.496 963.029,13.029 L 960.201,10.201 C 962.772,7.63 965.766,5.612 969.101,4.201 C 972.554,2.741 976.221,2.00 980.00,2.00 C 983.779,2.00 987.446,2.741 990.899,4.201 ZM 978.00,28.00A2.00,2.00 2520.00 1 0 982.00,28A2.00,2.00 2520.00 1 0 978.00,28zM 0.00,74.00 L 32.00,74.00 L 30.00,94.00 L 2.00,94.00 L 0.00,74.00 Z M 29.00,70.00 L 30.00,72.00 L 2.00,72.00 L 4.00,68.00 L 15.00,68.00 L 16.00,70.00 L 29.00,70.00 ZM 90.00,94.00L 96.00,78.00L 70.00,78.00L 64.00,94.00 zM 68.00,76.00 L 64.00,94.00 L 64.00,68.00 L 73.00,68.00 L 77.00,72.00 L 90.00,72.00 L 90.00,76.00 ZM 156.994,64.00L 147.977,64.00 c-1.653,0.00-3.962,0.956-5.131,2.125L 128.877,80.094c-1.169,1.169-1.169,3.082,0.00,4.251 l 10.778,10.778c 1.169,1.169, 3.082,1.169, 4.251,0.00l 13.968-13.968C 159.044,79.986, 160.00,77.677, 160.00,76.023L 160.00,67.006 C 160.00,65.353, 158.647,64.00, 156.994,64.00z M 153.00,74.00c-1.657,0.00-3.00-1.343-3.00-3.00s 1.343-3.00, 3.00-3.00s 3.00,1.343, 3.00,3.00S 154.657,74.00, 153.00,74.00zM 196.00,93.00A3.00,3.00 10800.00 1 0 202.00,93A3.00,3.00 10800.00 1 0 196.00,93zM 216.00,93.00A3.00,3.00 10800.00 1 0 222.00,93A3.00,3.00 10800.00 1 0 216.00,93zM 222.00,80.00L 222.00,68.00 L 196.00,68.00 C 196.00,65.791, 194.209,64.00, 192.00,64.00l0.00,2.00 c 1.103,0.00, 2.00,0.897, 2.00,2.00l 1.502,12.877C 194.587,81.61, 194.00,82.736, 194.00,84.00 c0.00,2.209, 1.791,4.00, 4.00,4.00l 24.00,0.00 l0.00-2.00 L 198.00,86.00 c-1.105,0.00-2.00-0.895-2.00-2.00c0.00-0.007, 0.00-0.014, 0.001-0.021L 222.00,80.00zM 282.476,82.00c 1.10,0.00, 2.247-0.865, 2.549-1.923l 2.901-10.154C 288.228,68.865, 287.576,68.00, 286.476,68.00L 266.00,68.00 c0.00-2.209-1.791-4.00-4.00-4.00L 256.00,64.00 l0.00,4.00 l 6.00,0.00 l0.00,17.00 c0.00,1.657, 1.343,3.00, 3.00,3.00l 19.00,0.00 c 1.105,0.00, 2.00-0.895, 2.00-2.00s-0.895-2.00-2.00-2.00L 266.00,84.00 l0.00-2.00 L 282.476,82.00 z M 266.00,72.00l 18.088,0.00 l-1.714,6.00L 266.00,78.00 L 266.00,72.00 zM 268.00,93.50c0.00,1.375-1.125,2.50-2.50,2.50l-1.00,0.00 c-1.375,0.00-2.50-1.125-2.50-2.50l0.00-1.00 c0.00-1.375, 1.125-2.50, 2.50-2.50l 1.00,0.00 c 1.375,0.00, 2.50,1.125, 2.50,2.50L 268.00,93.50 zM 286.00,93.50c0.00,1.375-1.125,2.50-2.50,2.50l-1.00,0.00 c-1.375,0.00-2.50-1.125-2.50-2.50l0.00-1.00 c0.00-1.375, 1.125-2.50, 2.50-2.50l 1.00,0.00 c 1.375,0.00, 2.50,1.125, 2.50,2.50L 286.00,93.50 zM 350.549,70.077c-1.062-0.303-2.169,0.312-2.473,1.374L 347.92,72.00L 329.266,72.00 l-0.281-2.248 C 328.859,68.751, 328.009,68.00, 327.00,68.00L 322.00,68.00 C 320.895,68.00, 320.00,68.895, 320.00,70.00s 0.895,2.00, 2.00,2.00l 3.234,0.00 l 1.781,14.248 C 327.141,87.249, 327.991,88.00, 329.00,88.00l 17.00,0.00 c 0.893,0.00, 1.678-0.592, 1.923-1.451l 4.00-14.00 C 352.227,71.487, 351.611,70.38, 350.549,70.077z M 336.00,80.00l0.00-2.00 l 4.00,0.00 l0.00,2.00 L 336.00,80.00 z M 340.00,82.00l0.00,2.00 L 336.00,84.00 l0.00-2.00 L 340.00,82.00 z M 336.00,76.00l0.00-2.00 l 4.00,0.00 l0.00,2.00 L 336.00,76.00 z M 329.516,74.00L 334.00,74.00 l0.00,2.00 l-4.234,0.00 L 329.516,74.00z M 330.016,78.00L 334.00,78.00 l0.00,2.00 l-3.734,0.00 L 330.016,78.00z M 330.516,82.00L 334.00,82.00 l0.00,2.00 l-3.234,0.00 L 330.516,82.00z M 344.491,84.00l-2.491,0.00 l0.00-2.00 l 3.063,0.00 L 344.491,84.00z M 345.634,80.00l-3.634,0.00 l0.00-2.00 l 4.206,0.00 L 345.634,80.00z M 346.777,76.00l-4.777,0.00 l0.00-2.00 l 5.349,0.00 L 346.777,76.00zM 328.00,93.00A3.00,3.00 2520.00 1 0 334.00,93A3.00,3.00 2520.00 1 0 328.00,93zM 340.00,93.00A3.00,3.00 2520.00 1 0 346.00,93A3.00,3.00 2520.00 1 0 340.00,93zM 406.00,84.00c-2.00,2.00-2.00,4.00-4.00,4.00s-4.00-2.00-6.00-4.00s-4.00-4.00-4.00-6.00s 2.00-2.00, 4.00-4.00S 392.00,66.00, 390.00,66.00S 384.00,72.00, 384.00,72.00c0.00,4.00, 4.109,12.109, 8.00,16.00 s 12.00,8.00, 16.00,8.00c0.00,0.00, 6.00-4.00, 6.00-6.00S 408.00,82.00, 406.00,84.00zM 479.793,82.00 C 480.043,83.734 480.206,86.106 479.429,87.014 C 478.143,88.515 470.00,88.515 470.00,85.512 C 470.00,84.00 471.339,83.008 470.054,81.507 C 468.789,80.03 466.521,80.006 464.00,80.006 C 461.479,80.006 459.211,80.03 457.946,81.507 C 456.661,83.008 458.00,84.00 458.00,85.512 C 458.00,88.515 449.857,88.515 448.571,87.014 C 447.794,86.106 447.957,83.734 448.207,82.00 C 448.40,80.842 448.886,79.594 450.443,78.00 C 450.443,78.00 450.443,78.00 450.443,78.00 C 452.779,75.82 456.313,74.039 463.875,74.001 L 463.875,74.00 C 463.917,74.00 463.958,74.00 464.00,74.00 C 464.042,74.00 464.083,74.00 464.125,74.00 L 464.125,74.001 C 471.687,74.039 475.221,75.82 477.557,78.00 C 477.557,78.00 477.557,78.00 477.557,78.00 C 479.114,79.594 479.601,80.842 479.793,82.00 ZM 541.00,68.00L 515.00,68.00 C 513.35,68.00, 512.00,69.35, 512.00,71.00l0.00,20.00 c0.00,1.65, 1.35,3.00, 3.00,3.00l 26.00,0.00 c 1.65,0.00, 3.00-1.35, 3.00-3.00L 544.00,71.00 C 544.00,69.35, 542.65,68.00, 541.00,68.00z M 524.461,81.199L 516.00,87.79L 516.00,72.113 L 524.461,81.199z M 517.512,72.00L 538.488,72.00 L 528.00,79.875L 517.512,72.00z M 524.79,81.553L 528.00,85.00l 3.21-3.447 L 537.79,90.00L 518.21,90.00 L 524.79,81.553z M 531.539,81.199L 540.00,72.113l0.00,15.676 L 531.539,81.199zM 593.00,64.00l-3.00,3.00l 3.00,3.00L 586.00,78.00L 579.00,78.00 l 5.50,5.50L 576.00,94.769L 576.00,96.00 l 1.231,0.00 L 588.50,87.50l 5.50,5.50L 594.00,86.00 l 8.00-7.00l 3.00,3.00l 3.00-3.00L 593.00,64.00z M 590.00,81.00l-2.00-2.00 l 7.00-7.00l 2.00,2.00L 590.00,81.00zM 656.00,64.00C 650.477,64.00, 646.00,68.477, 646.00,74.00c0.00,10.00, 10.00,22.00, 10.00,22.00s 10.00-12.00, 10.00-22.00C 666.00,68.477, 661.523,64.00, 656.00,64.00z M 656.00,80.00 c-3.314,0.00-6.00-2.686-6.00-6.00s 2.686-6.00, 6.00-6.00s 6.00,2.686, 6.00,6.00S 659.314,80.00, 656.00,80.00zM 720.00,64.00C 714.477,64.00, 710.00,68.477, 710.00,74.00c0.00,10.00, 10.00,22.00, 10.00,22.00s 10.00-12.00, 10.00-22.00C 730.00,68.477, 725.523,64.00, 720.00,64.00z M 720.00,80.125 c-3.383,0.00-6.125-2.742-6.125-6.125s 2.742-6.125, 6.125-6.125s 6.125,2.742, 6.125,6.125S 723.383,80.125, 720.00,80.125zM 716.125,74.00A3.875,3.875 1080.00 1 0 723.875,74A3.875,3.875 1080.00 1 0 716.125,74zM 788.586,87.414L 782.00,80.828L 782.00,72.00L 786.00,72.00L 786.00,79.172L 791.414,84.586 zM 784.00,64.00C 775.163,64.00, 768.00,71.163, 768.00,80.00s 7.163,16.00, 16.00,16.00s 16.00-7.163, 16.00-16.00S 792.837,64.00, 784.00,64.00z M 784.00,92.00 c-6.627,0.00-12.00-5.373-12.00-12.00c0.00-6.627, 5.373-12.00, 12.00-12.00c 6.627,0.00, 12.00,5.373, 12.00,12.00C 796.00,86.627, 790.627,92.00, 784.00,92.00zM 848.00,64.00C 839.163,64.00, 832.00,71.163, 832.00,80.00s 7.163,16.00, 16.00,16.00s 16.00-7.163, 16.00-16.00S 856.837,64.00, 848.00,64.00z M 852.586,87.414L 846.00,80.828 L 846.00,72.00 l 4.00,0.00 l0.00,7.172 l 5.414,5.414L 852.586,87.414zM 912.00,68.00C 904.268,68.00, 898.00,74.268, 898.00,82.00s 6.268,14.00, 14.00,14.00s 14.00-6.268, 14.00-14.00S 919.732,68.00, 912.00,68.00z M 912.00,93.25 c-6.213,0.00-11.25-5.037-11.25-11.25c0.00-6.213, 5.037-11.25, 11.25-11.25c 6.213,0.00, 11.25,5.037, 11.25,11.25C 923.25,88.213, 918.213,93.25, 912.00,93.25z M 925.212,72.974C 925.713,72.098, 926.00,71.082, 926.00,70.00c0.00-3.314-2.686-6.00-6.00-6.00c-1.932,0.00-3.65,0.913-4.747,2.331 C 919.374,67.182, 922.915,69.619, 925.212,72.974z M 908.748,66.331C 907.65,64.913, 905.932,64.00, 904.00,64.00C 900.686,64.00, 898.00,66.686, 898.00,70.00 c0.00,1.082, 0.287,2.098, 0.788,2.974C 901.085,69.619, 904.626,67.182, 908.748,66.331z M 910.00,74.00l 2.00,0.00 l0.00,10.00 l-2.00,0.00 L 910.00,74.00 z M 912.00,82.00l 6.00,0.00 l0.00,2.00 l-6.00,0.00 L 912.00,82.00 zM 970.00,76.00L 974.00,76.00L 974.00,80.00L 970.00,80.00zM 976.00,76.00L 980.00,76.00L 980.00,80.00L 976.00,80.00zM 982.00,76.00L 986.00,76.00L 986.00,80.00L 982.00,80.00zM 964.00,88.00L 968.00,88.00L 968.00,92.00L 964.00,92.00zM 970.00,88.00L 974.00,88.00L 974.00,92.00L 970.00,92.00zM 976.00,88.00L 980.00,88.00L 980.00,92.00L 976.00,92.00zM 970.00,82.00L 974.00,82.00L 974.00,86.00L 970.00,86.00zM 976.00,82.00L 980.00,82.00L 980.00,86.00L 976.00,86.00zM 982.00,82.00L 986.00,82.00L 986.00,86.00L 982.00,86.00zM 964.00,82.00L 968.00,82.00L 968.00,86.00L 964.00,86.00zM 986.00,64.00l0.00,2.00 l-4.00,0.00 L 982.00,64.00 L 968.00,64.00 l0.00,2.00 L 964.00,66.00 L 964.00,64.00 L 960.00,64.00 l0.00,32.00 l 30.00,0.00 L 990.00,64.00 L 986.00,64.00 z M 988.00,94.00L 962.00,94.00 L 962.00,72.00 l 26.00,0.00 L 988.00,94.00 zM 28.00,132.00l-3.00,0.00 l0.00,1.00 c0.00,1.103-0.897,2.00-2.00,2.00s-2.00-0.897-2.00-2.00L 21.00,132.00 L 11.00,132.00 l0.00,1.00 c0.00,1.103-0.897,2.00-2.00,2.00s-2.00-0.897-2.00-2.00L 7.00,132.00 L 4.00,132.00 c-1.10,0.00-2.00,0.90-2.00,2.00l0.00,22.00 c0.00,1.10, 0.90,2.00, 2.00,2.00l 24.00,0.00 c 1.10,0.00, 2.00-0.90, 2.00-2.00L 30.00,134.00 C 30.00,132.90, 29.10,132.00, 28.00,132.00z M 28.00,155.996 c-0.001,0.001-0.002,0.003-0.004,0.004L 4.004,156.00 c-0.001-0.001-0.003-0.002-0.004-0.004L 4.00,138.00 l 24.00,0.00 L 28.00,155.996 zM 9.00,134.00c 0.552,0.00, 1.00-0.448, 1.00-1.00L 10.00,129.00 c0.00-0.552-0.448-1.00-1.00-1.00s-1.00,0.448-1.00,1.00l0.00,4.00 C 8.00,133.552, 8.448,134.00, 9.00,134.00zM 23.00,134.00c 0.552,0.00, 1.00-0.448, 1.00-1.00L 24.00,129.00 c0.00-0.552-0.448-1.00-1.00-1.00s-1.00,0.448-1.00,1.00l0.00,4.00 C 22.00,133.552, 22.448,134.00, 23.00,134.00zM 18.00,140.00L 8.00,140.00L 8.00,142.00L 16.00,142.00L 16.00,146.00L 8.00,146.00L 8.00,148.00L 16.00,148.00L 16.00,152.00L 8.00,152.00L 8.00,154.00L 18.00,154.00 zM 22.00,154.00L 24.00,154.00L 24.00,140.00L 20.00,140.00L 20.00,142.00L 22.00,142.00 zM 27.25,158.75L 4.75,158.75 c-1.10,0.00-2.00-0.65-2.00-1.75l0.00,1.00 c0.00,1.10, 0.90,2.00, 2.00,2.00l 22.50,0.00 c 1.10,0.00, 2.00-0.90, 2.00-2.00l0.00-1.00 C 29.25,158.10, 28.35,158.75, 27.25,158.75zM 72.00,130.00L 88.00,130.00L 88.00,134.00L 72.00,134.00zM 94.00,136.00L 66.00,136.00 C 64.90,136.00, 64.00,136.90, 64.00,138.00l0.00,10.00 c0.00,1.10, 0.90,2.00, 2.00,2.00l 6.00,0.00 l0.00,8.00 l 16.00,0.00 L 88.00,150.00 l 6.00,0.00 c 1.10,0.00, 2.00-0.90, 2.00-2.00L 96.00,138.00 C 96.00,136.90, 95.10,136.00, 94.00,136.00z M 86.00,156.00L 74.00,156.00 L 74.00,146.00 l 12.00,0.00 L 86.00,156.00 z M 94.45,139.00c0.00,0.801-0.649,1.45-1.45,1.45 c-0.801,0.00-1.45-0.649-1.45-1.45s 0.649-1.45, 1.45-1.45C 93.801,137.55, 94.45,138.199, 94.45,139.00zM 150.00,134.00L 138.00,134.00 L 128.00,146.00l0.00,5.00 l0.00,3.00 c0.00,1.105, 0.895,2.00, 2.00,2.00l 28.00,0.00 c 1.105,0.00, 2.00-0.895, 2.00-2.00l0.00-3.00 l0.00-5.00 L 150.00,134.00z M 152.00,146.00l-4.00,4.00L 140.00,150.00 l-4.00-4.00L 130.603,146.00 l 8.333-10.00l 10.127,0.00 l 8.333,10.00L 152.00,146.00 zM 214.00,134.00L 202.00,134.00 L 192.00,146.00l0.00,8.00 c0.00,1.105, 0.895,2.00, 2.00,2.00l 28.00,0.00 c 1.105,0.00, 2.00-0.895, 2.00-2.00L 224.00,146.00 L 214.00,134.00z M 212.00,150.00L 204.00,150.00 l-2.00-2.00l 12.00,0.00 L 212.00,150.00z M 194.603,146.00l 8.333-10.00l 10.127,0.00 l 8.333,10.00L 194.603,146.00 zM 200.905,140.00L 215.095,140.00L 213.428,138.00L 202.572,138.00 zM 197.572,144.00L 218.428,144.00L 216.762,142.00L 199.238,142.00 zM 284.078,128.00 L 286.179,145.861 L 283.821,146.139 L 281.944,130.188 L 262.056,130.188 L 260.179,146.139 L 257.821,145.861 L 259.922,128.00 ZM 264.00,132.00L 280.00,132.00L 280.00,134.00L 264.00,134.00zM 264.00,136.00L 280.00,136.00L 280.00,138.00L 264.00,138.00zM 264.00,140.00L 280.00,140.00L 280.00,142.00L 264.00,142.00zM 264.00,144.00L 280.00,144.00L 280.00,146.00L 264.00,146.00zM 287.00,148.00L 257.00,148.00 c-0.55,0.00-0.858,0.427-0.684,0.949L 259.684,159.051C 259.858,159.573, 260.45,160.00, 261.00,160.00l 22.00,0.00 c 0.55,0.00, 1.142-0.427, 1.316-0.949l 3.368-10.103C 287.858,148.427, 287.55,148.00, 287.00,148.00z M 276.00,152.00L 268.00,152.00 l0.00-2.00 l 8.00,0.00 L 276.00,152.00 zM 346.00,130.00L 326.00,130.00 L 320.00,136.00l0.00,21.00 c0.00,0.552, 0.448,1.00, 1.00,1.00l 30.00,0.00 c 0.552,0.00, 1.00-0.448, 1.00-1.00L 352.00,136.00 L 346.00,130.00z M 336.00,154.00L 326.00,146.00l 6.00,0.00 l0.00-6.00 l 8.00,0.00 l0.00,6.00 l 6.00,0.00 L 336.00,154.00z M 324.828,134.00l 2.00-2.00l 18.343,0.00 l 2.00,2.00L 324.828,134.00 zM 410.00,130.00L 390.00,130.00 L 384.00,136.00l0.00,21.00 c0.00,0.552, 0.448,1.00, 1.00,1.00l 30.00,0.00 c 0.552,0.00, 1.00-0.448, 1.00-1.00L 416.00,136.00 L 410.00,130.00z M 404.00,148.00l0.00,6.00 L 396.00,154.00 l0.00-6.00 L 390.00,148.00 l 10.00-8.00 l 10.00,8.00L 404.00,148.00 z M 388.828,134.00l 2.00-2.00l 18.343,0.00 l 2.00,2.00L 388.828,134.00 zM 464.00,146.00L 472.00,138.00L 466.00,138.00L 466.00,130.00L 462.00,130.00L 462.00,138.00L 456.00,138.00 zM 471.273,142.727L 469.031,144.969L 477.158,148.00L 464.00,152.907L 450.842,148.00L 458.969,144.969L 456.727,142.727L 448.00,146.00L 448.00,154.00L 464.00,160.00L 480.00,154.00L 480.00,146.00 zM 526.00,146.00L 530.00,146.00L 530.00,138.00L 536.00,138.00L 528.00,130.00L 520.00,138.00L 526.00,138.00 zM 532.00,141.50L 532.00,144.585L 541.158,148.00L 528.00,152.907L 514.842,148.00L 524.00,144.585L 524.00,141.50L 512.00,146.00L 512.00,154.00L 528.00,160.00L 544.00,154.00L 544.00,146.00 zM 592.00,130.00 C 600.837,130.00 608.00,135.82 608.00,143.00 C 608.00,150.18 600.837,156.00 592.00,156.00 C 591.151,156.00 590.318,155.946 589.505,155.842 C 586.069,159.279 581.966,159.895 578.00,159.986 L 578.00,159.145 C 580.142,158.096 582.00,156.184 582.00,154.00 C 582.00,153.695 581.976,153.396 581.932,153.103 C 578.314,150.72 576.00,147.08 576.00,143.00 C 576.00,135.82 583.163,130.00 592.00,130.00 ZM 674.00,156.161 C 674.00,157.583 674.813,158.815 676.00,159.417 L 676.00,159.915 C 675.668,159.961 675.329,159.985 674.984,159.985 C 672.859,159.985 670.942,159.093 669.587,157.664 C 668.767,157.882 667.899,158.00 667.00,158.00 C 662.029,158.00 658.00,154.418 658.00,150.00 C 658.00,145.582 662.029,142.00 667.00,142.00 C 671.971,142.00 676.00,145.582 676.00,150.00 C 676.00,151.73 675.382,153.331 674.333,154.64 C 674.119,155.103 674.00,155.618 674.00,156.161 ZM 656.00,128.00 C 664.702,128.00 671.781,133.644 671.995,140.672 C 670.458,139.988 668.758,139.625 667.00,139.625 C 664.014,139.625 661.193,140.67 659.058,142.568 C 656.844,144.536 655.625,147.175 655.625,150.00 C 655.625,151.396 655.923,152.747 656.492,153.993 C 656.328,153.997 656.165,154.00 656.00,154.00 C 655.151,154.00 654.318,153.946 653.505,153.842 C 650.069,157.279 645.966,157.895 642.00,157.986 L 642.00,157.145 C 644.142,156.096 646.00,154.184 646.00,152.00 C 646.00,151.695 645.976,151.396 645.932,151.103 C 642.314,148.72 640.00,145.08 640.00,141.00 C 640.00,133.82 647.163,128.00 656.00,128.00 ZM 720.00,134.00 C 718.283,134.00 716.625,134.271 715.072,134.804 C 713.612,135.306 712.313,136.015 711.209,136.912 C 709.139,138.593 708.00,140.755 708.00,143.00 C 708.00,144.259 708.35,145.481 709.039,146.63 C 709.75,147.815 710.82,148.898 712.133,149.763 C 713.081,150.387 713.719,151.386 713.888,152.509 C 713.944,152.884 713.979,153.262 713.993,153.638 C 714.227,153.445 714.454,153.237 714.677,153.014 C 715.432,152.259 716.451,151.842 717.505,151.842 C 717.673,151.842 717.842,151.853 718.01,151.874 C 718.666,151.958 719.335,152.00 720.00,152.00 C 721.717,152.00 723.375,151.729 724.928,151.196 C 726.388,150.694 727.688,149.985 728.791,149.088 C 730.86,147.407 732.00,145.245 732.00,143.00 C 732.00,140.755 730.86,138.593 728.791,136.912 C 727.688,136.015 726.388,135.306 724.928,134.804 C 723.375,134.271 721.717,134.00 720.00,134.00 Z M 720.00,130.00 L 720.00,130.00 C 728.837,130.00 736.00,135.82 736.00,143.00 C 736.00,150.18 728.837,156.00 720.00,156.00 C 719.151,156.00 718.318,155.946 717.505,155.842 C 714.069,159.279 709.966,159.895 706.00,159.986 L 706.00,159.145 C 708.142,158.096 710.00,156.184 710.00,154.00 C 710.00,153.695 709.976,153.396 709.932,153.103 C 706.314,150.72 704.00,147.08 704.00,143.00 C 704.00,135.82 711.163,130.00 720.00,130.00 ZM 802.00,156.161 C 802.00,157.583 802.813,158.815 804.00,159.417 L 804.00,159.915 C 803.668,159.961 803.329,159.985 802.984,159.985 C 800.859,159.985 798.942,159.093 797.587,157.664 C 796.767,157.882 795.899,158.00 795.00,158.00 C 790.029,158.00 786.00,154.418 786.00,150.00 C 786.00,145.582 790.029,142.00 795.00,142.00 C 799.971,142.00 804.00,145.582 804.00,150.00 C 804.00,151.73 803.382,153.331 802.333,154.64 C 802.119,155.103 802.00,155.618 802.00,156.161 ZM 775.209,134.912 C 773.139,136.593 772.00,138.755 772.00,141.00 C 772.00,142.259 772.35,143.481 773.039,144.63 C 773.75,145.815 774.82,146.898 776.133,147.763 C 777.081,148.387 777.719,149.386 777.888,150.509 C 777.944,150.884 777.979,151.262 777.993,151.638 C 778.227,151.445 778.454,151.237 778.677,151.014 C 779.432,150.259 780.451,149.842 781.505,149.842 C 781.673,149.842 781.842,149.853 782.01,149.874 C 782.665,149.957 783.333,150.00 783.997,150.00 L 783.997,154.00 C 783.15,154.00 782.318,153.946 781.505,153.842 C 778.069,157.279 773.966,157.895 770.00,157.986 L 770.00,157.145 C 772.142,156.096 774.00,154.184 774.00,152.00 C 774.00,151.695 773.976,151.396 773.932,151.103 C 770.314,148.72 768.00,145.08 768.00,141.00 C 768.00,133.82 775.163,128.00 784.00,128.00 C 792.702,128.00 799.781,133.644 799.995,140.672 C 798.711,140.10 797.312,139.753 795.862,139.654 C 795.501,137.902 794.443,136.254 792.791,134.912 C 791.688,134.015 790.388,133.306 788.928,132.804 C 787.375,132.271 785.717,132.00 784.00,132.00 C 782.283,132.00 780.625,132.271 779.072,132.804 C 777.612,133.306 776.313,134.015 775.209,134.912 ZM 851.463,149.96c-0.691-0.11-0.707-2.01-0.707-2.01s 2.03-2.01, 2.473-4.713 c 1.19,0.00, 1.926-2.873, 0.735-3.884C 854.014,138.29, 855.494,131.00, 848.00,131.00c-7.494,0.00-6.014,7.29-5.965,8.354 c-1.19,1.011-0.455,3.884, 0.735,3.884c 0.442,2.703, 2.473,4.713, 2.473,4.713s-0.016,1.90-0.707,2.01 C 842.311,150.315, 834.00,153.98, 834.00,158.00l 14.00,0.00 l 14.00,0.00 C 862.00,153.98, 853.689,150.315, 851.463,149.96zM 918.969,153.168c-0.592-0.093-0.606-1.708-0.606-1.708s 1.74-1.708, 2.119-4.005 c 1.02,0.00, 1.65-2.442, 0.63-3.301c 0.043-0.904, 1.312-7.099-5.112-7.099c-6.424,0.00-5.155,6.195-5.112,7.099 c-1.02,0.859-0.39,3.301, 0.63,3.301c 0.379,2.297, 2.12,4.005, 2.12,4.005s-0.013,1.615-0.606,1.708 C 911.124,153.469, 904.00,156.584, 904.00,160.00l 12.00,0.00 l 12.00,0.00 C 928.00,156.584, 920.876,153.469, 918.969,153.168zM 906.752,153.713c 1.378-0.848, 3.051-1.635, 4.423-2.107c-0.492-0.701-1.04-1.654-1.385-2.783 c-0.481-0.393-0.873-0.954-1.125-1.644c-0.252-0.691-0.348-1.464-0.269-2.178c 0.056-0.512, 0.202-0.99, 0.427-1.409 c-0.136-1.456-0.232-4.314, 1.639-6.398c 0.725-0.808, 1.642-1.389, 2.741-1.74C 913.006,133.43, 911.978,131.055, 908.00,131.055 c-6.424,0.00-5.155,6.195-5.112,7.099c-1.02,0.859-0.39,3.301, 0.63,3.301c 0.379,2.297, 2.12,4.005, 2.12,4.005 s-0.013,1.615-0.606,1.708C 903.124,147.469, 896.00,150.584, 896.00,154.00l 10.30,0.00 C 906.447,153.904, 906.597,153.808, 906.752,153.713zM 992.00,128.00 L 992.00,140.00 L 987.679,135.679 L 981.054,142.304 L 977.696,138.946 L 984.321,132.321 L 980.00,128.00 ZM 967.679,132.321 L 974.304,138.946 L 970.946,142.304 L 964.321,135.679 L 960.00,140.00 L 960.00,128.00 L 972.00,128.00 ZM 987.679,152.321 L 992.00,148.00 L 992.00,160.00 L 980.00,160.00 L 984.321,155.679 L 977.696,149.054 L 981.054,145.696 ZM 974.304,149.054 L 967.679,155.679 L 972.00,160.00 L 960.00,160.00 L 960.00,148.00 L 964.321,152.321 L 970.946,145.696 ZM 22.00,192.00c-5.523,0.00-10.00,4.477-10.00,10.00c0.00,0.626, 0.058,1.238, 0.168,1.832L0.00,216.00l0.00,6.00 c0.00,1.105, 0.895,2.00, 2.00,2.00 l 2.00,0.00 l0.00-2.00 l 4.00,0.00 l0.00-4.00 l 4.00,0.00 l0.00-4.00 l 4.00,0.00 l 2.595-2.595C 19.658,211.79, 20.804,212.00, 22.00,212.00c 5.523,0.00, 10.00-4.477, 10.00-10.00S 27.523,192.00, 22.00,192.00z M 24.996,202.004c-1.657,0.00-3.00-1.343-3.00-3.00s 1.343-3.00, 3.00-3.00s 3.00,1.343, 3.00,3.00S 26.653,202.004, 24.996,202.004zM 90.00,206.00l-2.00,0.00 l0.00-6.00 C 88.00,195.582, 84.418,192.00, 80.00,192.00c-4.418,0.00-8.00,3.582-8.00,8.00l0.00,6.00 L 70.00,206.00 c-1.10,0.00-2.00,0.90-2.00,2.00l0.00,14.00 c0.00,1.10, 0.90,2.00, 2.00,2.00l 20.00,0.00 c 1.10,0.00, 2.00-0.90, 2.00-2.00L 92.00,208.00 C 92.00,206.90, 91.10,206.00, 90.00,206.00z M 80.00,218.00c-1.105,0.00-2.00-0.895-2.00-2.00 s 0.895-2.00, 2.00-2.00s 2.00,0.895, 2.00,2.00S 81.105,218.00, 80.00,218.00z M 84.00,206.00L 76.00,206.00 l0.00-6.00 c0.00-2.206, 1.794-4.00, 4.00-4.00s 4.00,1.794, 4.00,4.00L 84.00,206.00 zM 146.50,206.00l-0.50,0.00 l0.00-6.00 c0.00-3.308-2.692-6.00-6.00-6.00l-4.00,0.00 c-3.308,0.00-6.00,2.692-6.00,6.00l0.00,6.00 l-0.50,0.00 c-0.825,0.00-1.50,0.675-1.50,1.50l0.00,15.00 c0.00,0.825, 0.675,1.50, 1.50,1.50l 17.00,0.00 c 0.825,0.00, 1.50-0.675, 1.50-1.50L 148.00,207.50 C 148.00,206.675, 147.325,206.00, 146.50,206.00z M 140.00,220.00l-4.00,0.00 l 0.87-4.35 C 136.345,215.29, 136.00,214.685, 136.00,214.00c0.00-1.105, 0.895-2.00, 2.00-2.00c 1.105,0.00, 2.00,0.895, 2.00,2.00c0.00,0.685-0.345,1.29-0.87,1.65L 140.00,220.00 z M 142.00,206.00L 134.00,206.00 l0.00-6.00 c0.00-1.103, 0.897-2.00, 2.00-2.00l 4.00,0.00 c 1.103,0.00, 2.00,0.897, 2.00,2.00L 142.00,206.00 zM 216.00,194.00l-4.00,0.00 c-3.308,0.00-6.00,2.692-6.00,6.00l0.00,6.00 L 193.50,206.00 c-0.825,0.00-1.50,0.675-1.50,1.50l0.00,15.00 c0.00,0.825, 0.675,1.50, 1.50,1.50l 17.00,0.00 c 0.825,0.00, 1.50-0.675, 1.50-1.50L 212.00,207.50 c0.00-0.825-0.675-1.50-1.50-1.50l-0.50,0.00 l0.00-6.00 c0.00-1.103, 0.897-2.00, 2.00-2.00l 4.00,0.00 c 1.103,0.00, 2.00,0.897, 2.00,2.00l0.00,6.00 l 4.00,0.00 l0.00-6.00 C 222.00,196.692, 219.308,194.00, 216.00,194.00z M 204.00,220.00l-4.00,0.00 l 0.87-4.35C 200.345,215.29, 200.00,214.685, 200.00,214.00c0.00-1.105, 0.895-2.00, 2.00-2.00c 1.105,0.00, 2.00,0.895, 2.00,2.00 c0.00,0.685-0.345,1.29-0.87,1.65L 204.00,220.00zM 287.342,217.559l-14.392-12.336C 273.62,203.963, 274.00,202.526, 274.00,201.00C 274.00,196.029, 269.971,192.00, 265.00,192.00 c-0.909,0.00-1.787,0.135-2.614,0.386l 5.20,5.20c 0.778,0.778, 0.778,2.051,0.00,2.828l-3.172,3.172 c-0.778,0.778-2.051,0.778-2.828,0.00L 256.386,198.386C 256.135,199.213, 256.00,200.091, 256.00,201.00c0.00,4.971, 4.029,9.00, 9.00,9.00 c 1.526,0.00, 2.963-0.38, 4.222-1.051l 12.336,14.392c 0.716,0.835, 1.938,0.882, 2.716,0.104l 3.172-3.172 C 288.224,219.497, 288.177,218.274, 287.342,217.559zM 349.181,211.07c-1.679-2.908-0.669-6.635, 2.255-8.328l-3.145-5.447c-0.898,0.527-1.943,0.829-3.058,0.829 c-3.361,0.00-6.085-2.742-6.085-6.125L 332.86,192.00 c 0.008,1.044-0.252,2.103-0.811,3.07 c-1.679,2.908-5.411,3.897-8.339,2.211L 320.564,202.728c 0.905,0.515, 1.689,1.268, 2.246,2.234 c 1.676,2.903, 0.672,6.622-2.241,8.319l 3.145,5.447c 0.895-0.522, 1.935-0.82, 3.044-0.82 c 3.35,0.00, 6.067,2.725, 6.084,6.092l 6.289,0.00 c-0.003-1.034, 0.259-2.08, 0.811-3.038 c 1.676-2.903, 5.399-3.894, 8.325-2.219l 3.145-5.447C 350.514,212.782, 349.735,212.031, 349.181,211.07z M 336.00,214.479 c-3.578,0.00-6.479-2.901-6.479-6.479c0.00-3.578, 2.901-6.479, 6.479-6.479c 3.578,0.00, 6.479,2.901, 6.479,6.479 C 342.479,211.578, 339.578,214.479, 336.00,214.479zM 416.00,211.003l0.00-6.006 l-4.587-0.764c-0.186-0.567-0.413-1.115-0.678-1.641l 2.702-3.782l-4.247-4.247l-3.776,2.697 c-0.528-0.267-1.079-0.496-1.649-0.684L 403.003,192.00l-6.006,0.00 l-0.763,4.575c-0.57,0.188-1.121,0.417-1.649,0.684 l-3.776-2.697l-4.247,4.247l 2.702,3.782c-0.265,0.526-0.492,1.074-0.678,1.641L 384.00,204.997l0.00,6.006 l 4.597,0.766 c 0.186,0.561, 0.413,1.105, 0.676,1.626l-2.711,3.795l 4.247,4.247l 3.802-2.715c 0.519,0.261, 1.059,0.485, 1.618,0.67 L 396.997,224.00l 6.006,0.00 l 0.768-4.609c 0.559-0.185, 1.099-0.409, 1.618-0.67l 3.802,2.715l 4.247-4.247l-2.711-3.795 c 0.264-0.521, 0.49-1.064, 0.676-1.626L 416.00,211.003z M 400.00,212.00c-2.209,0.00-4.00-1.791-4.00-4.00c0.00-2.209, 1.791-4.00, 4.00-4.00 c 2.209,0.00, 4.00,1.791, 4.00,4.00C 404.00,210.209, 402.209,212.00, 400.00,212.00zM 479.562,217.905L 470.139,208.482c-0.583-0.583-1.538-0.583-2.121,0.00l-0.707,0.707l-5.75-5.75L 471.00,194.00L 461.00,194.00 l-4.439,4.439 L 456.121,198.00L 454.00,198.00 l0.00,2.121 l 0.439,0.439L 448.00,207.00l 5.00,5.00l 6.439-6.439l 5.75,5.75l-0.707,0.707c-0.583,0.583-0.583,1.538,0.00,2.121 l 9.423,9.423c 0.583,0.583, 1.538,0.583, 2.121,0.00l 3.535-3.535C 480.146,219.444, 480.146,218.489, 479.562,217.905zM 526.00,210.00L 526.00,196.00 C 518.268,196.00, 512.00,202.268, 512.00,210.00s 6.268,14.00, 14.00,14.00s 14.00-6.268, 14.00-14.00c0.00-2.251-0.532-4.378-1.476-6.262 L 526.00,210.00zM 540.524,199.738C 538.225,195.15, 533.481,192.00, 528.00,192.00l0.00,14.00 L 540.524,199.738zM 592.00,194.00 C 600.837,194.00 608.00,201.163 608.00,210.00 C 608.00,216.025 604.669,221.271 599.75,224.00 L 584.25,224.00 C 579.33,221.271 576.00,216.025 576.00,210.00 C 576.00,201.163 583.163,194.00 592.00,194.00 Z M 601.06,219.06 C 603.48,216.64 604.813,213.422 604.813,210.00 L 602.00,210.00 L 602.00,208.00 L 604.657,208.00 C 604.438,206.594 603.989,205.245 603.327,204.00 L 600.00,204.00 L 600.00,202.00 L 602.009,202.00 C 601.714,201.632 601.398,201.278 601.06,200.94 C 599.615,199.496 597.887,198.439 596.00,197.822 L 596.00,200.00 L 594.00,200.00 L 594.00,197.343 C 593.344,197.24 592.676,197.188 592.00,197.188 C 591.324,197.188 590.656,197.24 590.00,197.343 L 590.00,200.00 L 588.00,200.00 L 588.00,197.822 C 586.113,198.439 584.385,199.496 582.94,200.94 C 582.602,201.278 582.286,201.632 581.991,202.00 L 584.00,202.00 L 584.00,204.00 L 580.673,204.00 C 580.011,205.245 579.562,206.594 579.342,208.00 L 582.00,208.00 L 582.00,210.00 L 579.188,210.00 C 579.188,213.422 580.52,216.64 582.94,219.06 C 583.275,219.395 583.625,219.708 583.989,220.00 L 590.00,220.00 L 591.143,204.00 L 592.857,204.00 L 594.00,220.00 L 600.011,220.00 C 600.375,219.708 600.725,219.394 601.06,219.06 ZM 656.00,192.00C 647.163,192.00, 640.00,199.163, 640.00,208.00s 7.163,16.00, 16.00,16.00s 16.00-7.163, 16.00-16.00S 664.837,192.00, 656.00,192.00z M 656.00,220.00 c-6.627,0.00-12.00-5.373-12.00-12.00c0.00-6.627, 5.373-12.00, 12.00-12.00c 6.627,0.00, 12.00,5.373, 12.00,12.00C 668.00,214.627, 662.627,220.00, 656.00,220.00zM 654.00,200.00A2.00,2.00 10800.00 1 0 658.00,200A2.00,2.00 10800.00 1 0 654.00,200zM 660.00,202.00A2.00,2.00 10800.00 1 0 664.00,202A2.00,2.00 10800.00 1 0 660.00,202zM 648.00,202.00A2.00,2.00 10800.00 1 0 652.00,202A2.00,2.00 10800.00 1 0 648.00,202zM 654.00,214.00L 654.00,216.00L 658.00,216.00L 658.00,214.00L 656.00,204.00 zM 714.031,224.00 C 711.899,219.562 713.035,217.019 714.674,214.624 C 716.469,212.00 716.931,209.403 716.931,209.403 C 716.931,209.403 718.342,211.237 717.778,214.106 C 720.271,211.331 720.741,206.91 720.365,205.217 C 726.00,209.155 728.408,217.681 725.162,224.00 C 742.424,214.233 729.456,199.62 727.198,197.973 C 727.951,199.62 728.094,202.406 726.573,203.759 C 724.00,194.00 717.637,192.00 717.637,192.00 C 718.389,197.033 714.909,202.536 711.553,206.648 C 711.435,204.641 711.309,203.256 710.254,201.336 C 710.017,204.981 707.231,207.953 706.477,211.606 C 705.455,216.552 707.242,220.174 714.031,224.00 ZM 774.00,224.00L 794.00,224.00L 796.00,202.00L 772.00,202.00 zM 788.00,196.00L 788.00,192.00 L 780.00,192.00 l0.00,4.00 L 770.00,196.00 l0.00,6.00 l 2.00-2.00l 24.00,0.00 l 2.00,2.00L 798.00,196.00 L 788.00,196.00 z M 786.00,196.00l-4.00,0.00 L 782.00,194.00 l 4.00,0.00 L 786.00,196.00 zM 857.00,196.00L 839.00,196.00 c-1.657,0.00-3.00,1.343-3.00,3.00l0.00,1.00 l 24.00,0.00 l0.00-1.00 C 860.00,197.343, 858.657,196.00, 857.00,196.00zM 851.76,194.00l 0.441,3.156L 843.799,197.156 l 0.441-3.156L 851.76,194.00 M 852.00,192.00L 844.00,192.00 c-0.825,0.00-1.593,0.668-1.708,1.486l-0.585,4.185 C 841.593,198.488, 842.175,199.156, 843.00,199.156l 10.00,0.00 c 0.825,0.00, 1.407-0.668, 1.292-1.486l-0.585-4.185C 853.593,192.668, 852.825,192.00, 852.00,192.00L 852.00,192.00z M 857.50,202.00L 838.50,202.00 c-1.10,0.00-1.919,0.896-1.819,1.992l 1.638,18.016C 838.418,223.104, 839.40,224.00, 840.50,224.00l 15.00,0.00 c 1.10,0.00, 2.082-0.896, 2.181-1.992l 1.638-18.016C 859.419,202.896, 858.60,202.00, 857.50,202.00z M 844.00,220.00l-3.00,0.00 l-1.00-14.00l 4.00,0.00 L 844.00,220.00 z M 850.00,220.00l-4.00,0.00 L 846.00,206.00 l 4.00,0.00 L 850.00,220.00 z M 855.00,220.00l-3.00,0.00 L 852.00,206.00 l 4.00,0.00 L 855.00,220.00zM 926.00,200.00L 918.00,200.00 L 918.00,198.00 c0.00-1.10-0.90-2.00-2.00-2.00L 908.00,196.00 c-1.10,0.00-2.00,0.90-2.00,2.00l0.00,2.00 L 898.00,200.00 c-1.10,0.00-2.00,0.90-2.00,2.00l0.00,18.00 c0.00,1.10, 0.90,2.00, 2.00,2.00l 28.00,0.00 c 1.10,0.00, 2.00-0.90, 2.00-2.00L 928.00,202.00 C 928.00,200.90, 927.10,200.00, 926.00,200.00z M 908.00,198.004 c 0.001-0.001, 0.002-0.003, 0.004-0.004l 7.993,0.00 c 0.001,0.001, 0.003,0.002, 0.004,0.004L 916.00,200.00 L 908.00,200.00 L 908.00,198.004 z M 926.00,208.00l-4.00,0.00 l0.00,3.00 c0.00,0.55-0.45,1.00-1.00,1.00l-2.00,0.00 c-0.55,0.00-1.00-0.45-1.00-1.00l0.00-3.00 L 906.00,208.00 l0.00,3.00 c0.00,0.55-0.45,1.00-1.00,1.00l-2.00,0.00 c-0.55,0.00-1.00-0.45-1.00-1.00l0.00-3.00 L 898.00,208.00 l0.00-2.00 l 28.00,0.00 L 926.00,208.00 zM 980.00,196.581l0.00,4.249 c 1.131,0.494, 2.172,1.20, 3.071,2.099C 984.96,204.818, 986.00,207.329, 986.00,210.00 s-1.04,5.182-2.929,7.071C 981.182,218.96, 978.671,220.00, 976.00,220.00s-5.182-1.04-7.071-2.929 C 967.04,215.182, 966.00,212.671, 966.00,210.00s 1.04-5.182, 2.929-7.071c 0.899-0.899, 1.94-1.606, 3.071-2.099L 972.00,196.581 C 966.217,198.302, 962.00,203.658, 962.00,210.00c0.00,7.732, 6.268,14.00, 14.00,14.00c 7.732,0.00, 14.00-6.268, 14.00-14.00 C 990.00,203.658, 985.783,198.302, 980.00,196.581zM 974.00,192.00L 978.00,192.00L 978.00,208.00L 974.00,208.00zM0.00,256.00L 8.00,256.00L 8.00,264.00L0.00,264.00zM 12.00,258.00L 32.00,258.00L 32.00,262.00L 12.00,262.00zM0.00,268.00L 8.00,268.00L 8.00,276.00L0.00,276.00zM 12.00,270.00L 32.00,270.00L 32.00,274.00L 12.00,274.00zM0.00,280.00L 8.00,280.00L 8.00,288.00L0.00,288.00zM 12.00,282.00L 32.00,282.00L 32.00,286.00L 12.00,286.00zM 64.00,268.00l 22.00,0.00 l0.00,4.00 L 64.00,272.00 L 64.00,268.00 z M 64.00,262.00l 22.00,0.00 l0.00,4.00 L 64.00,266.00 L 64.00,262.00 z M 64.00,274.00l 22.00,0.00 l0.00,4.00 L 64.00,278.00 L 64.00,274.00 z M 64.00,280.00l 22.00,0.00 l0.00,4.00 L 64.00,284.00 L 64.00,280.00 z M 88.00,274.00l 4.00,6.00l 4.00-6.00L 88.00,274.00 z M 96.00,272.00 l-4.00-6.00l-4.00,6.00L 96.00,272.00 zM 130.00,262.00L 158.00,262.00L 158.00,268.00L 130.00,268.00zM 130.00,270.00L 158.00,270.00L 158.00,276.00L 130.00,276.00zM 130.00,278.00L 158.00,278.00L 158.00,284.00L 130.00,284.00zM 224.00,276.548c0.00-2.565-1.771-4.716-4.156-5.296C 219.743,267.23, 216.455,264.00, 212.411,264.00 c-2.369,0.00-4.477,1.109-5.839,2.835c-0.764-0.987-1.959-1.624-3.303-1.624c-2.307,0.00-4.176,1.871-4.176,4.179 c0.00,0.201, 0.015,0.399, 0.043,0.592c-0.351-0.063-0.711-0.098-1.08-0.098C 194.71,269.885, 192.00,272.597, 192.00,275.942 C 192.00,279.288, 194.71,282.00, 198.054,282.00l 20.508,0.00 l0.00,0.00 C 221.567,281.994, 224.00,279.555, 224.00,276.548zM 283.844,267.252C 283.743,263.23, 280.455,260.00, 276.411,260.00c-2.369,0.00-4.477,1.109-5.839,2.835 c-0.764-0.987-1.959-1.624-3.303-1.624c-2.307,0.00-4.176,1.871-4.176,4.179c0.00,0.201, 0.015,0.399, 0.043,0.592 c-0.351-0.063-0.711-0.098-1.08-0.098C 258.71,265.885, 256.00,268.597, 256.00,271.942C 256.00,275.288, 258.71,278.00, 262.054,278.00l 3.118,0.00 L 272.00,284.828 L 278.828,278.00l 3.734,0.00 l0.00,0.00 C 285.567,277.994, 288.00,275.555, 288.00,272.548C 288.00,269.983, 286.229,267.833, 283.844,267.252z M 272.00,282.00l-6.00-6.00 l 4.00,0.00 l0.00-6.00 l 4.00,0.00 l0.00,6.00 l 4.00,0.00 L 272.00,282.00zM 347.883,268.078C 347.96,267.731, 348.00,267.37, 348.00,267.00c0.00-2.761-2.239-5.00-5.00-5.00c-0.444,0.00-0.875,0.058-1.285,0.167 C 340.94,259.75, 338.674,258.00, 336.00,258.00c-2.73,0.00-5.033,1.823-5.76,4.318C 329.529,262.111, 328.778,262.00, 328.00,262.00C 323.582,262.00, 320.00,265.582, 320.00,270.00 c0.00,4.418, 3.582,8.00, 8.00,8.00l 4.00,0.00 l0.00,6.00 l 8.00,0.00 l0.00-6.00 l 7.00,0.00 c 2.761,0.00, 5.00-2.239, 5.00-5.00C 352.00,270.54, 350.223,268.495, 347.883,268.078z M 338.00,276.00l0.00,6.00 l-4.00,0.00 l0.00-6.00 l-5.00,0.00 l 7.00-7.00l 7.00,7.00L 338.00,276.00 zM 399.00,278.00L 384.00,278.00 l0.00,8.00 l 30.00,0.00 L 414.00,278.00 L 399.00,278.00 z M 412.00,282.00l-4.00,0.00 l0.00-2.00 l 4.00,0.00 L 412.00,282.00 zM 391.00,266.00 L 399.00,258.00 L 407.00,266.00 L 402.00,266.00 L 402.00,276.00 L 396.00,276.00 L 396.00,266.00 ZM 477.794,258.333l-0.126-0.126c-2.942-2.942-7.756-2.942-10.698,0.00L 460.154,265.023 c-2.942,2.942-2.942,7.755,0.00,10.697l 0.126,0.126c 0.245,0.245, 0.505,0.466, 0.773,0.671l 2.495-2.495 c-0.291-0.172-0.566-0.377-0.816-0.627l-0.126-0.126c-1.597-1.597-1.597-4.196,0.00-5.793L 469.422,260.659 c 1.597-1.597, 4.196-1.597, 5.793,0.00l 0.126,0.126c 1.597,1.597, 1.597,4.197,0.00,5.793l-3.084,3.084 c 0.535,1.322, 0.789,2.731, 0.767,4.137l 4.769-4.769C 480.735,266.088, 480.735,261.274, 477.794,258.333zM 467.72,268.154c-0.245-0.245-0.505-0.466-0.773-0.67l-2.495,2.495c 0.291,0.172, 0.566,0.377, 0.816,0.627l 0.126,0.126 c 1.597,1.597, 1.597,4.196,0.00,5.793L 458.578,283.342c-1.597,1.597-4.196,1.597-5.793,0.00l-0.126-0.126 c-1.597-1.597-1.597-4.196,0.00-5.793l 3.084-3.084c-0.535-1.322-0.789-2.731-0.767-4.137l-4.769,4.769 c-2.942,2.942-2.942,7.756,0.00,10.698l 0.126,0.126c 2.942,2.942, 7.756,2.942, 10.698,0.00l 6.816-6.816 c 2.942-2.942, 2.942-7.756,0.00-10.698L 467.72,268.154zM 533.807,266.22l-2.03-2.029L 521.627,274.34c-1.682,1.681-1.682,4.408,0.00,6.089 c 1.681,1.681, 4.408,1.681, 6.09,0.00l 12.18-12.178c 2.804-2.802, 2.804-7.346,0.00-10.148 c-2.802-2.803-7.347-2.803-10.149,0.00L 516.958,270.888l 0.001,0.001c-0.009,0.009-0.019,0.018-0.027,0.026 c-3.909,3.909-3.909,10.245,0.00,14.153c 3.908,3.908, 10.246,3.908, 14.156,0.00c 0.009-0.009, 0.016-0.018, 0.026-0.027l 0.001,0.001 l 8.729-8.728l-2.031-2.029L 529.084,283.013l-0.001,0.00 c-0.009,0.008-0.018,0.018-0.026,0.026 c-2.784,2.783-7.312,2.783-10.096,0.00c-2.783-2.783-2.783-7.31,0.00-10.093c 0.009-0.009, 0.019-0.018, 0.028-0.026l-0.001-0.002 l 12.79-12.786c 1.679-1.679, 4.411-1.679, 6.09,0.00c 1.679,1.679, 1.679,4.411,0.00,6.089L 525.687,278.398 c-0.56,0.56-1.47,0.56-2.03,0.00c-0.559-0.559-0.559-1.47,0.00-2.029L 533.807,266.22zM 602.229,265.263 C 604.655,266.983 606.647,269.297 608.00,272.00 C 605.027,277.936 598.979,282.00 592.00,282.00 C 590.045,282.00 588.163,281.681 586.401,281.091 L 588.837,278.655 C 589.87,278.883 590.93,279.00 592.00,279.00 C 594.799,279.00 597.527,278.204 599.889,276.697 C 601.769,275.497 603.362,273.891 604.559,272.00 C 603.401,270.17 601.871,268.608 600.07,267.422 L 602.229,265.263 ZM 592.00,277.813 C 591.29,277.813 590.601,277.72 589.946,277.546 L 599.733,267.759 C 599.907,268.414 600.00,269.102 600.00,269.813 C 600.00,274.231 596.418,277.813 592.00,277.813 ZM 606.00,256.00l-1.679,0.00 L 597.458,262.863C 595.737,262.303, 593.903,262.00, 592.00,262.00C 585.021,262.00, 578.972,266.064, 576.00,272.00 c 1.333,2.662, 3.285,4.947, 5.662,6.658L 576.00,284.321L 576.00,286.00 l 1.679,0.00 L 606.00,257.679L 606.00,256.00 z M 589.00,265.813c 1.501,0.00, 2.745,1.103, 2.965,2.543 l-3.423,3.423C 587.103,271.558, 586.00,270.314, 586.00,268.813C 586.00,267.156, 587.343,265.813, 589.00,265.813z M 579.441,272.00 c 1.197-1.891, 2.79-3.498, 4.67-4.697c 0.122-0.078, 0.246-0.154, 0.371-0.228C 584.17,267.929, 584.00,268.851, 584.00,269.813 c0.00,1.829, 0.614,3.514, 1.647,4.861l-1.83,1.83C 582.065,275.327, 580.575,273.792, 579.441,272.00zM 646.00,256.00L 646.00,288.00L 656.00,278.00L 666.00,288.00L 666.00,256.00 zM 712.00,260.00L 712.00,288.00L 722.00,278.00L 732.00,288.00L 732.00,260.00 zM 728.00,256.00L 708.00,256.00L 708.00,284.00L 710.00,282.00L 710.00,258.00L 728.00,258.00 zM 800.00,268.408l-11.056-1.607L 784.00,256.783l-4.944,10.018L 768.00,268.408l 8.00,7.798L 774.112,287.217L 784.00,282.018l 9.889,5.199 l-1.889-11.011L 800.00,268.408z M 784.00,279.547l-6.983,3.671l 1.334-7.776l-5.65-5.507l 7.808-1.135L 784.00,261.726l 3.492,7.075 l 7.807,1.135l-5.65,5.507l 1.334,7.776L 784.00,279.547zM 864.00,268.408l-11.056-1.607L 848.00,256.783l-4.944,10.018L 832.00,268.408l 8.00,7.798L 838.112,287.217L 848.00,282.018l 9.889,5.199 l-1.889-11.011L 864.00,268.408z M 848.00,279.547l-0.029,0.015L 848.00,261.726l 3.492,7.075l 7.807,1.135l-5.65,5.507l 1.334,7.776 L 848.00,279.547zM 928.00,268.408L 916.944,266.801L 912.00,256.783l-4.944,10.018L 896.00,268.408l 8.00,7.798L 902.112,287.217L 912.00,282.018l 9.889,5.199 l-1.889-11.011L 928.00,268.408zM 992.00,267.192 C 992.00,269.891 990.837,272.318 988.985,274.00 L 989.00,274.00 L 979.00,284.00 C 978.00,285.00 977.00,286.00 976.00,286.00 C 975.00,286.00 974.00,285.00 973.00,284.00 L 963.00,274.00 L 963.015,274.00 C 961.163,272.318 960.00,269.891 960.00,267.192 C 960.00,262.116 964.116,258.00 969.192,258.00 C 971.891,258.00 974.318,259.163 976.00,261.015 C 977.682,259.163 980.109,258.00 982.808,258.00 C 987.884,258.00 992.00,262.116 992.00,267.192 ZM 32.00,331.192 C 32.00,333.891 30.837,336.318 28.985,338.00 L 29.00,338.00 L 19.00,348.00 C 18.00,349.00 17.00,350.00 16.00,350.00 C 15.00,350.00 14.00,349.00 13.00,348.00 L 3.00,338.00 L 3.015,338.00 C 1.163,336.318 0.00,333.891 0.00,331.192 C 0.00,326.116 4.116,322.00 9.192,322.00 C 10.925,322.00 12.546,322.48 13.929,323.314 L 11.00,328.00 L 18.00,332.00 L 14.00,342.00 L 25.00,330.00 L 18.00,326.00 L 20.465,322.302 C 21.213,322.105 21.998,322.00 22.808,322.00 C 27.884,322.00 32.00,326.116 32.00,331.192 ZM 93.00,338.00 C 95.281,338.00 94.00,344.00 92.00,344.00 C 93.00,344.00 92.00,349.00 90.00,349.00 C 90.00,351.00 88.00,352.00 86.00,352.00 C 77.552,352.00 80.523,349.886 72.00,349.00 L 72.00,333.00 C 79.529,330.742 87.00,325.08 87.00,320.00 C 88.656,320.00 93.00,322.00 87.00,332.00 C 87.00,332.00 92.00,332.00 93.00,332.00 C 96.00,332.00 95.00,338.00 93.00,338.00 ZM 70.00,333.00 L 70.00,349.00 L 72.00,349.00 L 72.00,350.00 L 68.00,350.00 C 66.90,350.00 66.00,348.65 66.00,347.00 L 66.00,335.00 C 66.00,333.35 66.90,332.00 68.00,332.00 L 72.00,332.00 L 72.00,333.00 L 70.00,333.00 ZM 131.00,334.00 C 128.719,334.00 130.00,328.00 132.00,328.00 C 131.00,328.00 132.00,323.00 134.00,323.00 C 134.00,321.00 136.00,320.00 138.00,320.00 C 146.448,320.00 143.477,322.114 152.00,323.00 L 152.00,339.00 C 144.471,341.258 137.00,346.919 137.00,352.00 C 135.344,352.00 131.00,350.00 137.00,340.00 C 137.00,340.00 132.00,340.00 131.00,340.00 C 128.00,340.00 129.00,334.00 131.00,334.00 ZM 154.00,339.00 L 154.00,323.00 L 152.00,323.00 L 152.00,322.00 L 156.00,322.00 C 157.10,322.00 158.00,323.35 158.00,325.00 L 158.00,337.00 C 158.00,338.65 157.10,340.00 156.00,340.00 L 152.00,340.00 L 152.00,339.00 L 154.00,339.00 ZM 208.00,324.96 L 197.224,348.00 L 218.776,348.00 L 208.00,324.96 Z M 208.00,320.00 L 208.00,320.00 C 208.69,320.00 209.379,320.465 209.903,321.395 L 223.561,348.617 C 224.608,350.478 223.717,352.00 221.583,352.00 L 194.417,352.00 C 192.283,352.00 191.392,350.478 192.439,348.617 L 206.097,321.395 C 206.621,320.465 207.31,320.00 208.00,320.00 ZM 206.00,344.00A2.00,2.00 2520.00 1 0 210.00,344A2.00,2.00 2520.00 1 0 206.00,344zM 208.00,332.00 C 209.105,332.00 210.00,332.895 210.00,334.00 L 209.375,340.00 L 206.625,340.00 L 206.00,334.00 C 206.00,332.895 206.895,332.00 208.00,332.00 ZM 272.00,323.00 C 268.528,323.00 265.263,324.352 262.808,326.808 C 260.352,329.263 259.00,332.528 259.00,336.00 C 259.00,339.472 260.352,342.737 262.808,345.192 C 265.263,347.648 268.528,349.00 272.00,349.00 C 275.472,349.00 278.737,347.648 281.192,345.192 C 283.648,342.737 285.00,339.472 285.00,336.00 C 285.00,332.528 283.648,329.263 281.192,326.808 C 278.737,324.352 275.472,323.00 272.00,323.00 Z M 272.00,320.00 L 272.00,320.00 C 280.837,320.00 288.00,327.163 288.00,336.00 C 288.00,344.837 280.837,352.00 272.00,352.00 C 263.163,352.00 256.00,344.837 256.00,336.00 C 256.00,327.163 263.163,320.00 272.00,320.00 ZM 270.00,342.00L 274.00,342.00L 274.00,346.00L 270.00,346.00zM 270.00,326.00L 274.00,326.00L 274.00,338.00L 270.00,338.00zM 334.00,342.00L 338.00,342.00L 338.00,346.00L 334.00,346.00zM 342.00,328.00 C 343.105,328.00 344.00,328.895 344.00,330.00 L 344.00,336.00 L 338.00,340.00 L 334.00,340.00 L 334.00,338.00 L 340.00,334.00 L 340.00,332.00 L 330.00,332.00 L 330.00,328.00 L 342.00,328.00 ZM 336.00,323.00 C 332.528,323.00 329.263,324.352 326.808,326.808 C 324.352,329.263 323.00,332.528 323.00,336.00 C 323.00,339.472 324.352,342.737 326.808,345.192 C 329.263,347.648 332.528,349.00 336.00,349.00 C 339.472,349.00 342.737,347.648 345.192,345.192 C 347.648,342.737 349.00,339.472 349.00,336.00 C 349.00,332.528 347.648,329.263 345.192,326.808 C 342.737,324.352 339.472,323.00 336.00,323.00 Z M 336.00,320.00 L 336.00,320.00 C 344.837,320.00 352.00,327.163 352.00,336.00 C 352.00,344.837 344.837,352.00 336.00,352.00 C 327.163,352.00 320.00,344.837 320.00,336.00 C 320.00,327.163 327.163,320.00 336.00,320.00 ZM 400.00,320.00C 391.163,320.00, 384.00,327.163, 384.00,336.00s 7.163,16.00, 16.00,16.00s 16.00-7.163, 16.00-16.00S 408.837,320.00, 400.00,320.00z M 400.00,349.00 c-7.18,0.00-13.00-5.82-13.00-13.00S 392.82,323.00, 400.00,323.00s 13.00,5.82, 13.00,13.00S 407.18,349.00, 400.00,349.00zM 398.00,328.00L 402.00,328.00L 402.00,332.00L 398.00,332.00zM 404.00,344.00L 396.00,344.00L 396.00,342.00L 398.00,342.00L 398.00,336.00L 396.00,336.00L 396.00,334.00L 402.00,334.00L 402.00,342.00L 404.00,342.00 zM 464.00,320.00C 455.163,320.00, 448.00,327.163, 448.00,336.00s 7.163,16.00, 16.00,16.00s 16.00-7.163, 16.00-16.00S 472.837,320.00, 464.00,320.00z M 462.00,326.00l 4.00,0.00 l0.00,4.00 l-4.00,0.00 L 462.00,326.00 z M 468.00,346.00L 460.00,346.00 l0.00-2.00 l 2.00,0.00 L 462.00,336.00 l-2.00,0.00 l0.00-2.00 l 6.00,0.00 l0.00,10.00 l 2.00,0.00 L 468.00,346.00 zM 512.00,336.00c0.00,8.837, 7.163,16.00, 16.00,16.00c 8.837,0.00, 16.00-7.163, 16.00-16.00S 536.837,320.00, 528.00,320.00C 519.163,320.00, 512.00,327.163, 512.00,336.00z M 540.00,336.00 c0.00,2.289-0.641,4.428-1.753,6.247L 521.753,325.753C 523.572,324.641, 525.711,324.00, 528.00,324.00C 534.627,324.00, 540.00,329.373, 540.00,336.00z M 516.00,336.00 c0.00-2.289, 0.641-4.427, 1.753-6.247l 16.494,16.494C 532.427,347.359, 530.289,348.00, 528.00,348.00C 521.373,348.00, 516.00,342.627, 516.00,336.00zM 592.00,320.00C 583.163,320.00, 576.00,327.163, 576.00,336.00s 7.163,16.00, 16.00,16.00s 16.00-7.163, 16.00-16.00S 600.837,320.00, 592.00,320.00z M 600.00,330.828L 594.828,336.00 L 600.00,341.172L 600.00,344.00 l-2.829,0.00 L 592.00,338.828L 586.828,344.00L 584.00,344.00 l0.00-2.829 L 589.172,336.00L 584.00,330.828L 584.00,328.00 l 2.828,0.00 L 592.00,333.172L 597.172,328.00L 600.00,328.00 L 600.00,330.828 zM 656.00,320.00C 647.163,320.00, 640.00,327.163, 640.00,336.00s 7.163,16.00, 16.00,16.00s 16.00-7.163, 16.00-16.00S 664.837,320.00, 656.00,320.00z M 653.00,346.00L 646.375,337.375l 2.938-3.063l 3.688,4.688 l 11.563-9.438l 1.438,1.438L 653.00,346.00zM 736.00,343.00M 727.00,320.00L 713.00,320.00 L 704.00,329.00l0.00,14.00 l 9.00,9.00l 14.00,0.00 l 9.00-9.00L 736.00,329.00 L 727.00,320.00z M 722.00,346.00l-4.00,0.00 l0.00-4.00 l 4.00,0.00 L 722.00,346.00 z M 722.00,338.00l-4.00,0.00 L 718.00,326.00 l 4.00,0.00 L 722.00,338.00 zM 799.708,345.708c0.00,0.000.00,0.000.00,0.00L 790.00,336.00l 9.708-9.708c 0.00,0.00, 0.00,0.00, 0.00,0.00 c 0.104-0.105, 0.18-0.227, 0.229-0.357c 0.133-0.355, 0.057-0.771-0.229-1.057L 795.122,320.292c-0.286-0.286-0.702-0.361-1.057-0.229 c-0.13,0.048-0.252,0.124-0.357,0.228c0.00,0.000.00,0.000.00,0.00L 784.00,330.00L 774.292,320.292 c0.00,0.000.00,0.000.00,0.00c-0.105-0.104-0.227-0.18-0.357-0.228c-0.356-0.133-0.771-0.057-1.057,0.229L 768.292,324.878 c-0.286,0.286-0.361,0.702-0.229,1.057c 0.049,0.13, 0.124,0.252, 0.229,0.357c 0.00,0.00, 0.00,0.00, 0.00,0.00L 778.00,336.00 L 768.292,345.708c0.00,0.000.00,0.000.00,0.00c-0.104,0.105-0.18,0.227-0.229,0.357c-0.133,0.355-0.057,0.771, 0.229,1.057 l 4.586,4.586c 0.286,0.286, 0.702,0.361, 1.057,0.229c 0.13-0.049, 0.252-0.124, 0.357-0.229c 0.00,0.00, 0.00,0.00, 0.00,0.00 l 9.708-9.708l 9.708,9.708c 0.00,0.00, 0.00,0.00, 0.00,0.00c 0.105,0.104, 0.227,0.18, 0.357,0.229 c 0.356,0.133, 0.771,0.057, 1.057-0.229l 4.586-4.586c 0.286-0.286, 0.362-0.702, 0.229-1.057 C 799.888,345.935, 799.813,345.813, 799.708,345.708zM 859.00,324.00L 844.00,339.00L 837.00,332.00L 832.00,337.00L 844.00,349.00L 864.00,329.00 zM 908.42,348.678l-12.433-12.238l 6.168-6.071l 6.265,6.167l 13.426-13.214l 6.168,6.071L 908.42,348.678z M 899.372,336.441l 9.048,8.905l 16.208-15.953l-2.782-2.739l-13.426,13.214L 902.155,333.702L 899.372,336.441zM 966.00,324.00L 986.00,336.00L 966.00,348.00 zM 4.00,388.00L 14.00,388.00L 14.00,412.00L 4.00,412.00zM 18.00,388.00L 28.00,388.00L 28.00,412.00L 18.00,412.00zM 68.00,388.00L 92.00,388.00L 92.00,412.00L 68.00,412.00zM 146.00,389.00 L 146.00,399.00 L 156.00,389.00 L 156.00,411.00 L 146.00,401.00 L 146.00,411.00 L 135.00,400.00 ZM 214.485,409.985c-0.384,0.00-0.768-0.146-1.061-0.439c-0.586-0.586-0.586-1.536,0.00-2.121 c 4.094-4.094, 4.094-10.755,0.00-14.849c-0.586-0.586-0.586-1.536,0.00-2.121c 0.586-0.586, 1.536-0.586, 2.121,0.00 C 218.096,393.004, 219.50,396.394, 219.50,400.00c0.00,3.606-1.404,6.996-3.954,9.546C 215.253,409.839, 214.869,409.985, 214.485,409.985zM 209.157,407.157c-0.384,0.00-0.768-0.146-1.061-0.439c-0.586-0.586-0.586-1.536,0.00-2.121 c 2.534-2.534, 2.534-6.658,0.00-9.192c-0.586-0.586-0.586-1.536,0.00-2.121c 0.586-0.586, 1.536-0.586, 2.121,0.00 c 3.704,3.704, 3.704,9.731,0.00,13.435C 209.925,407.01, 209.541,407.157, 209.157,407.157zM 204.542,386.458 C 205.344,385.656 206.00,385.928 206.00,387.063 L 206.00,412.938 C 206.00,414.072 205.344,414.344 204.542,413.542 L 197.00,406.00 L 192.00,406.00 L 192.00,394.00 L 197.00,394.00 L 204.542,386.458 ZM 256.00,384.00l0.00,32.00 l 32.00,0.00 L 288.00,384.00 L 256.00,384.00 z M 286.00,414.00L 258.00,414.00 L 258.00,386.00 l 28.00,0.00 L 286.00,414.00 z M 280.00,391.00L 270.00,401.00l-6.00-6.00l-4.00,4.00l 10.00,10.00l 14.00-14.00L 280.00,391.00zM 320.00,384.00l0.00,32.00 l 32.00,0.00 L 352.00,384.00 L 320.00,384.00 z M 350.00,414.00L 322.00,414.00 L 322.00,386.00 l 28.00,0.00 L 350.00,414.00 zM 384.00,384.00l0.00,32.00 l 32.00,0.00 L 416.00,384.00 L 384.00,384.00 z M 414.00,414.00L 386.00,414.00 L 386.00,386.00 l 28.00,0.00 L 414.00,414.00 zM 392.00,392.00L 408.00,392.00L 408.00,408.00L 392.00,408.00zM 464.00,384.00C 455.163,384.00, 448.00,391.163, 448.00,400.00s 7.163,16.00, 16.00,16.00s 16.00-7.163, 16.00-16.00S 472.837,384.00, 464.00,384.00z M 464.00,412.00 c-6.627,0.00-12.00-5.373-12.00-12.00c0.00-6.627, 5.373-12.00, 12.00-12.00c 6.627,0.00, 12.00,5.373, 12.00,12.00C 476.00,406.627, 470.627,412.00, 464.00,412.00zM 458.00,400.00A6.00,6.00 12600.00 1 0 470.00,400A6.00,6.00 12600.00 1 0 458.00,400zM 528.00,384.00C 519.163,384.00, 512.00,391.163, 512.00,400.00s 7.163,16.00, 16.00,16.00s 16.00-7.163, 16.00-16.00S 536.837,384.00, 528.00,384.00z M 528.00,412.00 c-6.627,0.00-12.00-5.373-12.00-12.00c0.00-6.627, 5.373-12.00, 12.00-12.00c 6.627,0.00, 12.00,5.373, 12.00,12.00C 540.00,406.627, 534.627,412.00, 528.00,412.00zM 603.00,406.00c-1.411,0.00-2.685,0.586-3.594,1.526L 585.937,400.791C 585.978,400.534, 586.00,400.269, 586.00,400.00 s-0.022-0.534-0.063-0.791l 13.469-6.734C 600.315,393.414, 601.589,394.00, 603.00,394.00c 2.761,0.00, 5.00-2.239, 5.00-5.00S 605.761,384.00, 603.00,384.00 s-5.00,2.239-5.00,5.00c0.00,0.269, 0.022,0.534, 0.063,0.791L 584.594,396.526C 583.685,395.586, 582.411,395.00, 581.00,395.00c-2.761,0.00-5.00,2.239-5.00,5.00 c0.00,2.761, 2.239,5.00, 5.00,5.00c 1.411,0.00, 2.685-0.586, 3.594-1.526l 13.469,6.734C 598.022,410.466, 598.00,410.731, 598.00,411.00 c0.00,2.761, 2.239,5.00, 5.00,5.00s 5.00-2.239, 5.00-5.00C 608.00,408.239, 605.761,406.00, 603.00,406.00zM 657.996,416.00L 652.00,416.00 L 652.00,400.00 l-4.00,0.00 l0.00-5.514 l 4.00-0.002l-0.006-3.248C 651.993,386.737, 653.213,384.00, 658.512,384.00l 4.412,0.00 l0.00,5.515 l-2.757,0.00 c-2.063,0.00-2.163,0.77-2.163,2.209l-0.008,2.76l 4.959,0.00 l-0.585,5.514L 658.00,400.00L 657.996,416.00zM 730.667,384.00L 709.334,384.00 C 706.40,384.00, 704.00,386.40, 704.00,389.334l0.00,21.332 C 704.00,413.602, 706.40,416.00, 709.334,416.00l 21.333,0.00 c 2.934,0.00, 5.333-2.398, 5.333-5.334L 736.00,389.334 C 736.00,386.40, 733.601,384.00, 730.667,384.00z M 731.206,400.00L 726.00,400.00 l0.00,14.00 l-6.00,0.00 L 720.00,400.00 l-2.891,0.00 l0.00-4.58 L 720.00,395.42 l0.00-2.975 C 720.00,388.403, 721.744,386.00, 726.496,386.00l 5.476,0.00 l0.00,4.955 l-4.473,0.00 c-1.328-0.002-1.492,0.692-1.492,1.985L 726.00,395.42l 6.00,0.00 L 731.206,400.00zM 784.00,384.00 C 792.837,384.00 800.00,391.163 800.00,400.00 C 800.00,408.159 793.893,414.892 786.00,415.876 L 786.00,404.00 L 791.50,404.00 L 792.00,400.00 L 786.00,400.00 L 786.00,398.00 C 786.00,396.895 786.895,396.00 788.00,396.00 L 792.00,396.00 L 792.00,392.00 L 788.00,392.00 C 784.686,392.00 782.00,394.686 782.00,398.00 L 782.00,400.00 L 779.00,400.00 L 779.00,404.00 L 782.00,404.00 L 782.00,411.906 L 782.00,415.496 L 782.00,415.876 C 774.107,414.892 768.00,408.159 768.00,400.00 C 768.00,391.163 775.163,384.00 784.00,384.00 ZM 864.00,390.076c-1.177,0.522-2.443,0.875-3.771,1.034c 1.355-0.813, 2.396-2.099, 2.887-3.632 c-1.269,0.752-2.674,1.299-4.169,1.593c-1.198-1.276-2.904-2.073-4.792-2.073c-3.626,0.00-6.565,2.939-6.565,6.565 c0.00,0.515, 0.058,1.016, 0.17,1.496c-5.456-0.274-10.294-2.888-13.532-6.86c-0.565,0.97-0.889,2.097-0.889,3.301 c0.00,2.278, 1.159,4.287, 2.921,5.465c-1.076-0.034-2.088-0.329-2.974-0.821c-0.001,0.027-0.001,0.055-0.001,0.083 c0.00,3.181, 2.263,5.834, 5.266,6.438c-0.551,0.15-1.131,0.23-1.73,0.23c-0.423,0.00-0.834-0.041-1.235-0.118 c 0.836,2.608, 3.26,4.506, 6.133,4.559c-2.247,1.761-5.078,2.81-8.154,2.81c-0.53,0.00-1.052-0.031-1.566-0.092 c 2.905,1.863, 6.356,2.95, 10.064,2.95c 12.076,0.00, 18.679-10.004, 18.679-18.68c0.00-0.285-0.006-0.568-0.019-0.849 C 862.007,392.548, 863.12,391.392, 864.00,390.076zM 922.667,384.00L 901.334,384.00 C 898.40,384.00, 896.00,386.40, 896.00,389.334l0.00,21.332 C 896.00,413.602, 898.40,416.00, 901.334,416.00l 21.333,0.00 C 925.601,416.00, 928.00,413.602, 928.00,410.666L 928.00,389.334 C 928.00,386.40, 925.601,384.00, 922.667,384.00z M 922.189,394.682 c 0.01,0.229, 0.015,0.46, 0.015,0.692c0.00,7.069-5.288,15.221-14.958,15.221c-2.969,0.00-5.732-0.886-8.059-2.404 c 0.411,0.05, 0.83,0.075, 1.254,0.075c 2.463,0.00, 4.73-0.855, 6.529-2.29c-2.30-0.043-4.242-1.59-4.911-3.715 c 0.321,0.063, 0.65,0.096, 0.989,0.096c 0.479,0.00, 0.944-0.066, 1.385-0.188c-2.405-0.492-4.217-2.654-4.217-5.245 c0.00-0.023,0.00-0.045, 0.001-0.067c 0.709,0.401, 1.52,0.641, 2.381,0.669c-1.411-0.959-2.339-2.597-2.339-4.453 c0.00-0.98, 0.259-1.899, 0.712-2.689c 2.593,3.237, 6.467,5.366, 10.836,5.589c-0.09-0.392-0.136-0.80-0.136-1.219 c0.00-2.954, 2.354-5.349, 5.257-5.349c 1.512,0.00, 2.879,0.65, 3.838,1.689c 1.198-0.24, 2.323-0.685, 3.338-1.298 c-0.393,1.249-1.226,2.298-2.311,2.96c 1.063-0.129, 2.077-0.417, 3.019-0.842C 924.108,392.986, 923.216,393.928, 922.189,394.682 zM 976.00,384.00C 967.163,384.00, 960.00,391.163, 960.00,400.00s 7.163,16.00, 16.00,16.00s 16.00-7.163, 16.00-16.00S 984.837,384.00, 976.00,384.00z M 985.195,395.284 c 0.009,0.203, 0.014,0.408, 0.014,0.614c0.00,6.269-4.772,13.499-13.499,13.499c-2.679,0.00-5.173-0.785-7.273-2.132 c 0.371,0.044, 0.749,0.066, 1.132,0.066c 2.223,0.00, 4.268-0.759, 5.892-2.031c-2.076-0.038-3.828-1.41-4.432-3.295 c 0.29,0.055, 0.587,0.085, 0.893,0.085c 0.433,0.00, 0.852-0.058, 1.25-0.166c-2.17-0.436-3.806-2.353-3.806-4.652 c0.00-0.02,0.00-0.04, 0.001-0.06c 0.64,0.355, 1.371,0.569, 2.149,0.593c-1.273-0.851-2.111-2.303-2.111-3.949 c0.00-0.869, 0.234-1.685, 0.642-2.385c 2.34,2.87, 5.836,4.759, 9.779,4.957c-0.081-0.347-0.123-0.709-0.123-1.081 c0.00-2.62, 2.124-4.744, 4.744-4.744c 1.365,0.00, 2.598,0.576, 3.463,1.498c 1.081-0.213, 2.096-0.608, 3.013-1.151 c-0.354,1.108-1.107,2.038-2.086,2.625c 0.96-0.115, 1.874-0.37, 2.725-0.747 C 986.927,393.779, 986.122,394.615, 985.195,395.284zM 26.00,452.00L 6.00,452.00 c-3.30,0.00-6.00,2.70-6.00,6.00l0.00,12.00 c0.00,3.30, 2.70,6.00, 6.00,6.00l 20.00,0.00 c 3.30,0.00, 6.00-2.70, 6.00-6.00L 32.00,458.00 C 32.00,454.70, 29.30,452.00, 26.00,452.00z M 12.00,472.00L 12.00,456.00 l 10.00,8.00L 12.00,472.00zM 82.001,462.00 L 82.001,469.318 C 82.001,471.175 81.977,472.245 82.174,472.771 C 82.369,473.295 82.859,473.838 83.392,474.153 C 84.101,474.577 84.909,474.789 85.821,474.789 C 87.441,474.789 88.398,474.575 90.00,473.523 L 90.00,478.333 L 90.00,478.333 C 88.634,478.976 87.442,479.352 86.334,479.612 C 85.224,479.87 84.026,480.00 82.738,480.00 C 81.274,480.00 80.411,479.816 79.288,479.448 C 78.164,479.077 77.204,478.548 76.412,477.869 C 75.617,477.184 75.068,476.456 74.76,475.686 C 74.453,474.917 74.301,473.799 74.301,472.335 L 74.301,461.113 L 70.006,461.113 L 70.006,456.582 C 71.263,456.174 72.667,455.588 73.562,454.827 C 74.46,454.063 75.179,453.149 75.721,452.079 C 76.265,451.012 76.638,449.65 76.842,448.00 L 82.001,448.00 L 82.001,456.00 L 90.00,456.00 L 90.00,462.00 L 82.001,462.00 ZM 154.668,448.00L 133.334,448.00 C 130.40,448.00, 128.00,450.40, 128.00,453.334l0.00,21.332 C 128.00,477.602, 130.40,480.00, 133.334,480.00L 154.668,480.00 C 157.602,480.00, 160.00,477.602, 160.00,474.666L 160.00,453.334 C 160.00,450.40, 157.601,448.00, 154.668,448.00z M 150.866,473.771 c-0.942,0.443-1.798,0.756-2.563,0.936c-0.765,0.178-1.593,0.267-2.481,0.267c-1.01,0.00-1.605-0.127-2.381-0.381 c-0.775-0.256-1.438-0.621-1.984-1.09c-0.549-0.473-0.928-0.975-1.14-1.506c-0.212-0.531-0.317-1.303-0.317-2.313L 140.00,461.941 l-3.00,0.00 l0.00-3.127 c 0.867-0.281, 1.873-0.685, 2.49-1.211c 0.62-0.527, 1.116-1.158, 1.49-1.896 c 0.375-0.736, 0.633-1.676, 0.773-2.815l 3.141,0.00 L 144.895,458.00 L 150.00,458.00 l0.00,3.941 l-5.106,0.00 l0.00,5.662 c0.00,1.281-0.017,2.02, 0.119,2.383 c 0.135,0.361, 0.473,0.736, 0.841,0.953c 0.489,0.293, 1.047,0.439, 1.676,0.439c 1.118,0.00, 2.231-0.363, 3.336-1.09L 150.866,473.771 L 150.866,473.771zM 216.734,465.003c-0.04-4.053, 3.305-5.996, 3.454-6.093c-1.88-2.751-4.808-3.127-5.851-3.171 c-2.492-0.252-4.862,1.467-6.127,1.467c-1.262,0.00-3.213-1.43-5.28-1.392c-2.716,0.04-5.221,1.579-6.619,4.012 c-2.822,4.897-0.723,12.151, 2.028,16.123c 1.344,1.944, 2.947,4.127, 5.051,4.049c 2.026-0.081, 2.793-1.311, 5.242-1.311 c 2.45,0.00, 3.138,1.311, 5.283,1.271c 2.18-0.041, 3.562-1.981, 4.897-3.931c 1.543-2.255, 2.179-4.439, 2.216-4.551 C 220.98,471.454, 216.776,469.843, 216.734,465.003zM 212.705,453.11C 213.822,451.755, 214.576,449.875, 214.37,448.00c-1.609,0.066-3.559,1.072-4.713,2.423 c-1.036,1.199-1.942,3.113-1.699,4.951C 209.754,455.515, 211.587,454.462, 212.705,453.11zM 283.00,458.00c-1.10,0.00-2.00,0.90-2.00,2.00l0.00,8.00 c0.00,1.10, 0.90,2.00, 2.00,2.00s 2.00-0.90, 2.00-2.00L 285.00,460.00 C 285.00,458.90, 284.10,458.00, 283.00,458.00zM 259.00,458.00c-1.10,0.00-2.00,0.90-2.00,2.00l0.00,8.00 c0.00,1.10, 0.90,2.00, 2.00,2.00s 2.00-0.90, 2.00-2.00L 261.00,460.00 C 261.00,458.90, 260.10,458.00, 259.00,458.00zM 262.00,471.00c0.00,1.657, 1.343,3.00, 3.00,3.00l 1.00,0.00 l0.00,4.00 c0.00,1.10, 0.90,2.00, 2.00,2.00s 2.00-0.90, 2.00-2.00l0.00-4.00 l 2.00,0.00 l0.00,4.00 c0.00,1.10, 0.90,2.00, 2.00,2.00s 2.00-0.90, 2.00-2.00 l0.00-4.00 l 1.00,0.00 c 1.657,0.00, 3.00-1.343, 3.00-3.00L 280.00,460.00 L 262.00,460.00 L 262.00,471.00 zM 274.706,450.797l 1.266-2.431c 0.064-0.122, 0.016-0.274-0.106-0.337s-0.274-0.016-0.337,0.106l-1.285,2.468 C 273.237,450.214, 272.144,450.00, 271.00,450.00c-1.144,0.00-2.237,0.214-3.244,0.603L 266.472,448.134c-0.064-0.122-0.215-0.17-0.337-0.106 s-0.17,0.215-0.106,0.337l 1.266,2.432c-2.832,1.282-4.883,3.987-5.238,7.203l 17.889,0.00 C 279.589,454.784, 277.538,452.079, 274.706,450.797z M 267.00,456.45c-0.801,0.00-1.45-0.649-1.45-1.45c0.00-0.801, 0.649-1.45, 1.45-1.45 s 1.45,0.649, 1.45,1.45C 268.45,455.801, 267.801,456.45, 267.00,456.45z M 275.00,456.45c-0.801,0.00-1.45-0.649-1.45-1.45 c0.00-0.801, 0.649-1.45, 1.45-1.45s 1.45,0.649, 1.45,1.45C 276.45,455.801, 275.801,456.45, 275.00,456.45zM 347.874,464.069c-0.565,0.00-1.105,0.11-1.596,0.308C 345.95,460.803, 342.831,458.00, 339.028,458.00 c-0.931,0.00-1.834,0.176-2.635,0.474c-0.311,0.116-0.393,0.235-0.393,0.466l0.00,12.585 c0.00,0.243, 0.195,0.445, 0.441,0.469 C 336.452,471.994, 347.802,472.00, 347.875,472.00C 350.154,472.00, 352.00,470.224, 352.00,468.035S 350.152,464.069, 347.874,464.069zM 332.50,472.00L 333.50,472.00L 334.00,464.993L 333.50,458.00L 332.50,458.00L 332.00,464.993 zM 329.50,472.00L 328.50,472.00L 328.00,466.914L 328.50,462.00L 329.50,462.00L 330.00,467.00 zM 324.50,472.00L 325.50,472.00L 326.00,468.00L 325.50,464.00L 324.50,464.00L 324.00,468.00 zM 320.50,470.00L 321.50,470.00L 322.00,468.00L 321.50,466.00L 320.50,466.00L 320.00,468.00 zM 400.00,448.00C 391.163,448.00, 384.00,455.163, 384.00,464.00s 7.163,16.00, 16.00,16.00c 8.837,0.00, 16.00-7.163, 16.00-16.00S 408.837,448.00, 400.00,448.00z M 401.551,469.379 c-1.454-0.113-2.064-0.833-3.203-1.525C 397.721,471.14, 396.956,474.291, 394.688,475.937 c-0.70-4.968, 1.028-8.699, 1.83-12.66c-1.368-2.303, 0.165-6.939, 3.051-5.796 c 3.551,1.405-3.075,8.563, 1.373,9.457c 4.644,0.933, 6.54-8.058, 3.661-10.982 c-4.161-4.222-12.112-0.096-11.135,5.949c 0.238,1.478, 1.765,1.926, 0.61,3.966c-2.663-0.59-3.458-2.691-3.356-5.491 c 0.165-4.584, 4.118-7.793, 8.084-8.236c 5.015-0.561, 9.722,1.841, 10.372,6.559 C 409.91,464.026, 406.914,469.793, 401.551,469.379zM 474.667,448.00L 453.333,448.00 C 450.387,448.00, 448.00,450.388, 448.00,453.334l0.00,21.332 C 448.00,477.612, 450.387,480.00, 453.333,480.00l 21.334,0.00 C 477.613,480.00, 480.00,477.612, 480.00,474.666L 480.00,453.334 C 480.00,450.388, 477.613,448.00, 474.667,448.00z M 465.551,469.379 c-1.454-0.113-2.064-0.833-3.203-1.525c-0.627,3.287-1.393,6.438-3.661,8.084 c-0.70-4.968, 1.028-8.699, 1.83-12.66c-1.368-2.303, 0.165-6.939, 3.051-5.796 c 3.551,1.405-3.075,8.563, 1.373,9.457c 4.644,0.933, 6.54-8.058, 3.661-10.982 c-4.161-4.222-12.112-0.096-11.135,5.949c 0.238,1.478, 1.765,1.926, 0.61,3.966c-2.663-0.59-3.458-2.691-3.356-5.491 c 0.165-4.584, 4.118-7.793, 8.084-8.236c 5.015-0.561, 9.722,1.841, 10.372,6.559 C 473.91,464.026, 470.914,469.793, 465.551,469.379z"></path></svg>